M48
; DRILL file {KiCad 7.0.7} date Sat Feb  3 16:35:46 2024
; FORMAT={-:-/ absolute / metric / decimal}
; #@! TF.CreationDate,2024-02-03T16:35:46-08:00
; #@! TF.GenerationSoftware,Kicad,Pcbnew,7.0.7
; #@! TF.FileFunction,NonPlated,1,2,NPTH
FMAT,2
METRIC
; #@! TA.AperFunction,NonPlated,NPTH,ComponentDrill
T1C1.300
; #@! TA.AperFunction,NonPlated,NPTH,ComponentDrill
T2C1.700
; #@! TA.AperFunction,NonPlated,NPTH,ComponentDrill
T3C3.200
%
G90
G05
T1
X71.85Y-108.165
X71.85Y-120.865
X84.55Y-108.165
X84.55Y-120.865
X94.71Y-108.165
X94.71Y-120.865
X107.41Y-108.165
X107.41Y-120.865
X152.985Y-107.925
X152.985Y-120.625
X165.685Y-107.925
X165.685Y-120.625
T2
X191.175Y-36.195
X193.675Y-36.195
X218.635Y-53.46
X218.635Y-65.96
X219.075Y-84.475
X219.075Y-86.975
X219.075Y-95.27
X219.075Y-97.77
T3
X72.5Y-42.5
X72.5Y-132.5
X212.5Y-42.5
X212.5Y-132.5
T0
M30
