%TF.GenerationSoftware,KiCad,Pcbnew,7.0.7*%
%TF.CreationDate,2024-02-03T16:35:20-08:00*%
%TF.ProjectId,Dyno22,44796e6f-3232-42e6-9b69-6361645f7063,rev?*%
%TF.SameCoordinates,Original*%
%TF.FileFunction,Soldermask,Top*%
%TF.FilePolarity,Negative*%
%FSLAX46Y46*%
G04 Gerber Fmt 4.6, Leading zero omitted, Abs format (unit mm)*
G04 Created by KiCad (PCBNEW 7.0.7) date 2024-02-03 16:35:20*
%MOMM*%
%LPD*%
G01*
G04 APERTURE LIST*
G04 Aperture macros list*
%AMRoundRect*
0 Rectangle with rounded corners*
0 $1 Rounding radius*
0 $2 $3 $4 $5 $6 $7 $8 $9 X,Y pos of 4 corners*
0 Add a 4 corners polygon primitive as box body*
4,1,4,$2,$3,$4,$5,$6,$7,$8,$9,$2,$3,0*
0 Add four circle primitives for the rounded corners*
1,1,$1+$1,$2,$3*
1,1,$1+$1,$4,$5*
1,1,$1+$1,$6,$7*
1,1,$1+$1,$8,$9*
0 Add four rect primitives between the rounded corners*
20,1,$1+$1,$2,$3,$4,$5,0*
20,1,$1+$1,$4,$5,$6,$7,0*
20,1,$1+$1,$6,$7,$8,$9,0*
20,1,$1+$1,$8,$9,$2,$3,0*%
G04 Aperture macros list end*
%ADD10RoundRect,0.250000X-0.262500X-0.450000X0.262500X-0.450000X0.262500X0.450000X-0.262500X0.450000X0*%
%ADD11C,3.000000*%
%ADD12C,3.200000*%
%ADD13R,1.700000X1.700000*%
%ADD14O,1.700000X1.700000*%
%ADD15RoundRect,0.250000X-0.250000X-0.475000X0.250000X-0.475000X0.250000X0.475000X-0.250000X0.475000X0*%
%ADD16C,1.700000*%
%ADD17RoundRect,0.250000X-0.600000X-0.600000X0.600000X-0.600000X0.600000X0.600000X-0.600000X0.600000X0*%
%ADD18RoundRect,0.250000X0.262500X0.450000X-0.262500X0.450000X-0.262500X-0.450000X0.262500X-0.450000X0*%
%ADD19RoundRect,0.243750X0.456250X-0.243750X0.456250X0.243750X-0.456250X0.243750X-0.456250X-0.243750X0*%
%ADD20C,1.600200*%
%ADD21C,1.800000*%
%ADD22RoundRect,0.250000X0.600000X-0.600000X0.600000X0.600000X-0.600000X0.600000X-0.600000X-0.600000X0*%
%ADD23RoundRect,0.250000X-0.450000X0.262500X-0.450000X-0.262500X0.450000X-0.262500X0.450000X0.262500X0*%
%ADD24C,1.300000*%
%ADD25C,1.524000*%
%ADD26C,1.600000*%
%ADD27RoundRect,0.200000X-0.600000X-0.600000X0.600000X-0.600000X0.600000X0.600000X-0.600000X0.600000X0*%
%ADD28RoundRect,0.250000X-0.850000X-0.600000X0.850000X-0.600000X0.850000X0.600000X-0.850000X0.600000X0*%
%ADD29O,2.200000X1.700000*%
%ADD30C,1.400000*%
%ADD31C,1.200000*%
%ADD32RoundRect,0.250000X0.450000X-0.262500X0.450000X0.262500X-0.450000X0.262500X-0.450000X-0.262500X0*%
%ADD33RoundRect,0.250000X0.375000X0.625000X-0.375000X0.625000X-0.375000X-0.625000X0.375000X-0.625000X0*%
%ADD34R,1.600000X1.600000*%
%ADD35O,1.600000X1.600000*%
%ADD36RoundRect,0.250000X-0.650000X0.325000X-0.650000X-0.325000X0.650000X-0.325000X0.650000X0.325000X0*%
%ADD37RoundRect,0.102000X1.387500X1.387500X-1.387500X1.387500X-1.387500X-1.387500X1.387500X-1.387500X0*%
%ADD38C,2.979000*%
G04 APERTURE END LIST*
D10*
%TO.C,R4*%
X115015000Y-114300000D03*
X116840000Y-114300000D03*
%TD*%
D11*
%TO.C,TP2*%
X191135000Y-137795000D03*
%TD*%
D12*
%TO.C,H3*%
X72500000Y-132500000D03*
%TD*%
D13*
%TO.C,J2*%
X72000000Y-51000000D03*
D14*
X72000000Y-53540000D03*
X72000000Y-56080000D03*
X72000000Y-58620000D03*
X72000000Y-61160000D03*
X72000000Y-63700000D03*
X72000000Y-66240000D03*
X72000000Y-68780000D03*
X72000000Y-71320000D03*
X72000000Y-73860000D03*
X72000000Y-76400000D03*
X72000000Y-78940000D03*
X72000000Y-81480000D03*
X72000000Y-84020000D03*
D13*
X156300000Y-63700000D03*
D14*
X156300000Y-66240000D03*
X156300000Y-68780000D03*
X156300000Y-71320000D03*
%TD*%
D11*
%TO.C,TP4*%
X219075000Y-78105000D03*
%TD*%
D15*
%TO.C,C5*%
X200622500Y-43180000D03*
X202522500Y-43180000D03*
%TD*%
D16*
%TO.C,J4*%
X218635000Y-53460000D03*
X218635000Y-65960000D03*
D17*
X208955000Y-53460000D03*
D16*
X208955000Y-55960000D03*
X208955000Y-58460000D03*
X208955000Y-60960000D03*
X208955000Y-63460000D03*
X208955000Y-65960000D03*
X211455000Y-53460000D03*
X211455000Y-55960000D03*
X211455000Y-58460000D03*
X211455000Y-60960000D03*
X211455000Y-63460000D03*
X211455000Y-65960000D03*
%TD*%
D18*
%TO.C,R10*%
X198397500Y-56515000D03*
X196572500Y-56515000D03*
%TD*%
D19*
%TO.C,D2*%
X205740000Y-87932500D03*
X205740000Y-86057500D03*
%TD*%
D11*
%TO.C,TP5*%
X182880000Y-137795000D03*
%TD*%
D10*
%TO.C,R14*%
X196143074Y-49030790D03*
X197968074Y-49030790D03*
%TD*%
D20*
%TO.C,Encoder*%
X139055000Y-111975000D03*
X139055000Y-116975000D03*
X124555000Y-111975000D03*
X124555000Y-114475000D03*
X124555000Y-116975000D03*
%TD*%
D21*
%TO.C,RV1*%
X205725000Y-123230000D03*
X203185000Y-123230000D03*
X200645000Y-123230000D03*
%TD*%
D16*
%TO.C,J7*%
X191175000Y-36195000D03*
X193675000Y-36195000D03*
D22*
X191175000Y-45875000D03*
D16*
X193675000Y-45875000D03*
X191175000Y-43375000D03*
X193675000Y-43375000D03*
%TD*%
D23*
%TO.C,R18*%
X205740000Y-81637500D03*
X205740000Y-83462500D03*
%TD*%
D24*
%TO.C,S3*%
X152985000Y-107925000D03*
X152985000Y-120625000D03*
X165685000Y-107925000D03*
X165685000Y-120625000D03*
D25*
X154835000Y-118085000D03*
X154835000Y-110465000D03*
X159335000Y-116815000D03*
X159335000Y-111735000D03*
X159335000Y-114275000D03*
%TD*%
D26*
%TO.C,A1*%
X165100000Y-35560000D03*
X165100000Y-38100000D03*
D27*
X165100000Y-40640000D03*
D26*
X165100000Y-43180000D03*
X165100000Y-45720000D03*
X165100000Y-48260000D03*
X165100000Y-50800000D03*
D27*
X165100000Y-53340000D03*
D26*
X165100000Y-55880000D03*
X165100000Y-58420000D03*
X165100000Y-60960000D03*
X165100000Y-63500000D03*
D27*
X165100000Y-66040000D03*
D26*
X165100000Y-68580000D03*
X165100000Y-71120000D03*
X165141881Y-73660000D03*
X165100000Y-76200000D03*
D27*
X165100000Y-78740000D03*
D26*
X165100000Y-81280000D03*
X165100000Y-83820000D03*
X182880000Y-83820000D03*
X182880000Y-81280000D03*
D27*
X182880000Y-78740000D03*
D26*
X182880000Y-76200000D03*
X182880000Y-73660000D03*
X182880000Y-71120000D03*
X182880000Y-68580000D03*
D27*
X182880000Y-66040000D03*
D26*
X182880000Y-63500000D03*
X182880000Y-60960000D03*
X182880000Y-58420000D03*
X182880000Y-55880000D03*
D27*
X182880000Y-53340000D03*
D26*
X182880000Y-50800000D03*
X182880000Y-48260000D03*
X182880000Y-45720000D03*
X182880000Y-43180000D03*
D27*
X182880000Y-40640000D03*
D26*
X182880000Y-38100000D03*
X182880000Y-35560000D03*
%TD*%
D16*
%TO.C,J3*%
X219075000Y-84475000D03*
X219075000Y-86975000D03*
D28*
X211895000Y-84475000D03*
D29*
X211895000Y-86975000D03*
%TD*%
D10*
%TO.C,R2*%
X88717500Y-102450000D03*
X90542500Y-102450000D03*
%TD*%
D18*
%TO.C,R3*%
X145152500Y-115150000D03*
X143327500Y-115150000D03*
%TD*%
D11*
%TO.C,TP3*%
X156972000Y-35560000D03*
%TD*%
D18*
%TO.C,R11*%
X204112500Y-56515000D03*
X202287500Y-56515000D03*
%TD*%
D24*
%TO.C,Back*%
X71850000Y-120865000D03*
X84550000Y-120865000D03*
X71850000Y-108165000D03*
X84550000Y-108165000D03*
D30*
X73700000Y-118325000D03*
D31*
X76290000Y-113755000D03*
X76290000Y-112235000D03*
X80110000Y-112235000D03*
X80110000Y-113755000D03*
D30*
X73700000Y-110705000D03*
%TD*%
D11*
%TO.C,TP1*%
X219075000Y-72390000D03*
%TD*%
D32*
%TO.C,R13*%
X198120000Y-43057377D03*
X198120000Y-41232377D03*
%TD*%
D10*
%TO.C,R6*%
X181610000Y-103505000D03*
X183435000Y-103505000D03*
%TD*%
D24*
%TO.C,Select*%
X94710000Y-120865000D03*
X107410000Y-120865000D03*
X94710000Y-108165000D03*
X107410000Y-108165000D03*
D30*
X96560000Y-118325000D03*
D31*
X99150000Y-113755000D03*
X99150000Y-112235000D03*
X102970000Y-112235000D03*
X102970000Y-113755000D03*
D30*
X96560000Y-110705000D03*
%TD*%
D12*
%TO.C,H4*%
X72500000Y-42500000D03*
%TD*%
%TO.C,H1*%
X212500000Y-132500000D03*
%TD*%
D33*
%TO.C,F1*%
X210950000Y-71755000D03*
X208150000Y-71755000D03*
%TD*%
D34*
%TO.C,U2*%
X188690000Y-67310000D03*
D35*
X191230000Y-67310000D03*
X193770000Y-67310000D03*
X196310000Y-67310000D03*
X198850000Y-67310000D03*
X201390000Y-67310000D03*
X203930000Y-67310000D03*
X203930000Y-59690000D03*
X201390000Y-59690000D03*
X198850000Y-59690000D03*
X196310000Y-59690000D03*
X193770000Y-59690000D03*
X191230000Y-59690000D03*
X188690000Y-59690000D03*
%TD*%
D36*
%TO.C,C1*%
X196431190Y-93775000D03*
X196431190Y-96725000D03*
%TD*%
D10*
%TO.C,R16*%
X200660000Y-49530000D03*
X202485000Y-49530000D03*
%TD*%
%TO.C,R1*%
X115048983Y-118677828D03*
X116873983Y-118677828D03*
%TD*%
%TO.C,R17*%
X200660000Y-46355000D03*
X202485000Y-46355000D03*
%TD*%
D16*
%TO.C,J1*%
X219075000Y-95270000D03*
X219075000Y-97770000D03*
D28*
X211895000Y-95270000D03*
D29*
X211895000Y-97770000D03*
%TD*%
D10*
%TO.C,R5*%
X114956007Y-110064519D03*
X116781007Y-110064519D03*
%TD*%
%TO.C,R9*%
X194032500Y-53340000D03*
X195857500Y-53340000D03*
%TD*%
D37*
%TO.C,ON/OFF*%
X201550000Y-75565000D03*
D38*
X196850000Y-75565000D03*
X192150000Y-75565000D03*
%TD*%
D19*
%TO.C,D1*%
X200660000Y-99997500D03*
X200660000Y-98122500D03*
%TD*%
D36*
%TO.C,C3*%
X190716190Y-93775000D03*
X190716190Y-96725000D03*
%TD*%
D32*
%TO.C,R7*%
X200660000Y-95805000D03*
X200660000Y-93980000D03*
%TD*%
D12*
%TO.C,H2*%
X212500000Y-42500000D03*
%TD*%
M02*
