%TF.GenerationSoftware,KiCad,Pcbnew,7.0.7*%
%TF.CreationDate,2024-02-03T16:35:20-08:00*%
%TF.ProjectId,Dyno22,44796e6f-3232-42e6-9b69-6361645f7063,rev?*%
%TF.SameCoordinates,Original*%
%TF.FileFunction,Paste,Top*%
%TF.FilePolarity,Positive*%
%FSLAX46Y46*%
G04 Gerber Fmt 4.6, Leading zero omitted, Abs format (unit mm)*
G04 Created by KiCad (PCBNEW 7.0.7) date 2024-02-03 16:35:20*
%MOMM*%
%LPD*%
G01*
G04 APERTURE LIST*
G04 Aperture macros list*
%AMRoundRect*
0 Rectangle with rounded corners*
0 $1 Rounding radius*
0 $2 $3 $4 $5 $6 $7 $8 $9 X,Y pos of 4 corners*
0 Add a 4 corners polygon primitive as box body*
4,1,4,$2,$3,$4,$5,$6,$7,$8,$9,$2,$3,0*
0 Add four circle primitives for the rounded corners*
1,1,$1+$1,$2,$3*
1,1,$1+$1,$4,$5*
1,1,$1+$1,$6,$7*
1,1,$1+$1,$8,$9*
0 Add four rect primitives between the rounded corners*
20,1,$1+$1,$2,$3,$4,$5,0*
20,1,$1+$1,$4,$5,$6,$7,0*
20,1,$1+$1,$6,$7,$8,$9,0*
20,1,$1+$1,$8,$9,$2,$3,0*%
G04 Aperture macros list end*
%ADD10RoundRect,0.250000X-0.262500X-0.450000X0.262500X-0.450000X0.262500X0.450000X-0.262500X0.450000X0*%
%ADD11RoundRect,0.250000X-0.250000X-0.475000X0.250000X-0.475000X0.250000X0.475000X-0.250000X0.475000X0*%
%ADD12RoundRect,0.250000X0.262500X0.450000X-0.262500X0.450000X-0.262500X-0.450000X0.262500X-0.450000X0*%
%ADD13RoundRect,0.243750X0.456250X-0.243750X0.456250X0.243750X-0.456250X0.243750X-0.456250X-0.243750X0*%
%ADD14RoundRect,0.250000X-0.450000X0.262500X-0.450000X-0.262500X0.450000X-0.262500X0.450000X0.262500X0*%
%ADD15RoundRect,0.250000X0.450000X-0.262500X0.450000X0.262500X-0.450000X0.262500X-0.450000X-0.262500X0*%
%ADD16RoundRect,0.250000X0.375000X0.625000X-0.375000X0.625000X-0.375000X-0.625000X0.375000X-0.625000X0*%
%ADD17RoundRect,0.250000X-0.650000X0.325000X-0.650000X-0.325000X0.650000X-0.325000X0.650000X0.325000X0*%
G04 APERTURE END LIST*
D10*
%TO.C,R4*%
X115015000Y-114300000D03*
X116840000Y-114300000D03*
%TD*%
D11*
%TO.C,C5*%
X200622500Y-43180000D03*
X202522500Y-43180000D03*
%TD*%
D12*
%TO.C,R10*%
X198397500Y-56515000D03*
X196572500Y-56515000D03*
%TD*%
D13*
%TO.C,D2*%
X205740000Y-87932500D03*
X205740000Y-86057500D03*
%TD*%
D10*
%TO.C,R14*%
X196143074Y-49030790D03*
X197968074Y-49030790D03*
%TD*%
D14*
%TO.C,R18*%
X205740000Y-81637500D03*
X205740000Y-83462500D03*
%TD*%
D10*
%TO.C,R2*%
X88717500Y-102450000D03*
X90542500Y-102450000D03*
%TD*%
D12*
%TO.C,R3*%
X145152500Y-115150000D03*
X143327500Y-115150000D03*
%TD*%
%TO.C,R11*%
X204112500Y-56515000D03*
X202287500Y-56515000D03*
%TD*%
D15*
%TO.C,R13*%
X198120000Y-43057377D03*
X198120000Y-41232377D03*
%TD*%
D10*
%TO.C,R6*%
X181610000Y-103505000D03*
X183435000Y-103505000D03*
%TD*%
D16*
%TO.C,F1*%
X210950000Y-71755000D03*
X208150000Y-71755000D03*
%TD*%
D17*
%TO.C,C1*%
X196431190Y-93775000D03*
X196431190Y-96725000D03*
%TD*%
D10*
%TO.C,R16*%
X200660000Y-49530000D03*
X202485000Y-49530000D03*
%TD*%
%TO.C,R1*%
X115048983Y-118677828D03*
X116873983Y-118677828D03*
%TD*%
%TO.C,R17*%
X200660000Y-46355000D03*
X202485000Y-46355000D03*
%TD*%
%TO.C,R5*%
X114956007Y-110064519D03*
X116781007Y-110064519D03*
%TD*%
%TO.C,R9*%
X194032500Y-53340000D03*
X195857500Y-53340000D03*
%TD*%
D13*
%TO.C,D1*%
X200660000Y-99997500D03*
X200660000Y-98122500D03*
%TD*%
D17*
%TO.C,C3*%
X190716190Y-93775000D03*
X190716190Y-96725000D03*
%TD*%
D15*
%TO.C,R7*%
X200660000Y-95805000D03*
X200660000Y-93980000D03*
%TD*%
M02*
