%TF.GenerationSoftware,KiCad,Pcbnew,7.0.7*%
%TF.CreationDate,2024-02-03T16:35:20-08:00*%
%TF.ProjectId,Dyno22,44796e6f-3232-42e6-9b69-6361645f7063,rev?*%
%TF.SameCoordinates,Original*%
%TF.FileFunction,Legend,Top*%
%TF.FilePolarity,Positive*%
%FSLAX46Y46*%
G04 Gerber Fmt 4.6, Leading zero omitted, Abs format (unit mm)*
G04 Created by KiCad (PCBNEW 7.0.7) date 2024-02-03 16:35:20*
%MOMM*%
%LPD*%
G01*
G04 APERTURE LIST*
G04 Aperture macros list*
%AMRoundRect*
0 Rectangle with rounded corners*
0 $1 Rounding radius*
0 $2 $3 $4 $5 $6 $7 $8 $9 X,Y pos of 4 corners*
0 Add a 4 corners polygon primitive as box body*
4,1,4,$2,$3,$4,$5,$6,$7,$8,$9,$2,$3,0*
0 Add four circle primitives for the rounded corners*
1,1,$1+$1,$2,$3*
1,1,$1+$1,$4,$5*
1,1,$1+$1,$6,$7*
1,1,$1+$1,$8,$9*
0 Add four rect primitives between the rounded corners*
20,1,$1+$1,$2,$3,$4,$5,0*
20,1,$1+$1,$4,$5,$6,$7,0*
20,1,$1+$1,$6,$7,$8,$9,0*
20,1,$1+$1,$8,$9,$2,$3,0*%
G04 Aperture macros list end*
%ADD10C,0.150000*%
%ADD11C,0.254000*%
%ADD12C,0.300000*%
%ADD13C,0.100000*%
%ADD14C,0.080000*%
%ADD15C,0.250000*%
%ADD16C,0.120000*%
%ADD17C,0.152400*%
%ADD18C,0.127000*%
%ADD19C,0.200000*%
%ADD20RoundRect,0.250000X-0.262500X-0.450000X0.262500X-0.450000X0.262500X0.450000X-0.262500X0.450000X0*%
%ADD21C,3.000000*%
%ADD22C,3.200000*%
%ADD23R,1.700000X1.700000*%
%ADD24O,1.700000X1.700000*%
%ADD25RoundRect,0.250000X-0.250000X-0.475000X0.250000X-0.475000X0.250000X0.475000X-0.250000X0.475000X0*%
%ADD26C,1.700000*%
%ADD27RoundRect,0.250000X-0.600000X-0.600000X0.600000X-0.600000X0.600000X0.600000X-0.600000X0.600000X0*%
%ADD28RoundRect,0.250000X0.262500X0.450000X-0.262500X0.450000X-0.262500X-0.450000X0.262500X-0.450000X0*%
%ADD29RoundRect,0.243750X0.456250X-0.243750X0.456250X0.243750X-0.456250X0.243750X-0.456250X-0.243750X0*%
%ADD30C,1.600200*%
%ADD31C,1.800000*%
%ADD32RoundRect,0.250000X0.600000X-0.600000X0.600000X0.600000X-0.600000X0.600000X-0.600000X-0.600000X0*%
%ADD33RoundRect,0.250000X-0.450000X0.262500X-0.450000X-0.262500X0.450000X-0.262500X0.450000X0.262500X0*%
%ADD34C,1.300000*%
%ADD35C,1.524000*%
%ADD36C,1.600000*%
%ADD37RoundRect,0.200000X-0.600000X-0.600000X0.600000X-0.600000X0.600000X0.600000X-0.600000X0.600000X0*%
%ADD38RoundRect,0.250000X-0.850000X-0.600000X0.850000X-0.600000X0.850000X0.600000X-0.850000X0.600000X0*%
%ADD39O,2.200000X1.700000*%
%ADD40C,1.400000*%
%ADD41C,1.200000*%
%ADD42RoundRect,0.250000X0.450000X-0.262500X0.450000X0.262500X-0.450000X0.262500X-0.450000X-0.262500X0*%
%ADD43RoundRect,0.250000X0.375000X0.625000X-0.375000X0.625000X-0.375000X-0.625000X0.375000X-0.625000X0*%
%ADD44R,1.600000X1.600000*%
%ADD45O,1.600000X1.600000*%
%ADD46RoundRect,0.250000X-0.650000X0.325000X-0.650000X-0.325000X0.650000X-0.325000X0.650000X0.325000X0*%
%ADD47RoundRect,0.102000X1.387500X1.387500X-1.387500X1.387500X-1.387500X-1.387500X1.387500X-1.387500X0*%
%ADD48C,2.979000*%
G04 APERTURE END LIST*
D10*
X152368095Y-36499819D02*
X152987142Y-36499819D01*
X152987142Y-36499819D02*
X152653809Y-36880771D01*
X152653809Y-36880771D02*
X152796666Y-36880771D01*
X152796666Y-36880771D02*
X152891904Y-36928390D01*
X152891904Y-36928390D02*
X152939523Y-36976009D01*
X152939523Y-36976009D02*
X152987142Y-37071247D01*
X152987142Y-37071247D02*
X152987142Y-37309342D01*
X152987142Y-37309342D02*
X152939523Y-37404580D01*
X152939523Y-37404580D02*
X152891904Y-37452200D01*
X152891904Y-37452200D02*
X152796666Y-37499819D01*
X152796666Y-37499819D02*
X152510952Y-37499819D01*
X152510952Y-37499819D02*
X152415714Y-37452200D01*
X152415714Y-37452200D02*
X152368095Y-37404580D01*
X153272857Y-36499819D02*
X153606190Y-37499819D01*
X153606190Y-37499819D02*
X153939523Y-36499819D01*
X191039523Y-132384819D02*
X190563333Y-132384819D01*
X190563333Y-132384819D02*
X190515714Y-132861009D01*
X190515714Y-132861009D02*
X190563333Y-132813390D01*
X190563333Y-132813390D02*
X190658571Y-132765771D01*
X190658571Y-132765771D02*
X190896666Y-132765771D01*
X190896666Y-132765771D02*
X190991904Y-132813390D01*
X190991904Y-132813390D02*
X191039523Y-132861009D01*
X191039523Y-132861009D02*
X191087142Y-132956247D01*
X191087142Y-132956247D02*
X191087142Y-133194342D01*
X191087142Y-133194342D02*
X191039523Y-133289580D01*
X191039523Y-133289580D02*
X190991904Y-133337200D01*
X190991904Y-133337200D02*
X190896666Y-133384819D01*
X190896666Y-133384819D02*
X190658571Y-133384819D01*
X190658571Y-133384819D02*
X190563333Y-133337200D01*
X190563333Y-133337200D02*
X190515714Y-133289580D01*
X191372857Y-132384819D02*
X191706190Y-133384819D01*
X191706190Y-133384819D02*
X192039523Y-132384819D01*
D11*
X157067381Y-123904411D02*
X157353095Y-123999649D01*
X157353095Y-123999649D02*
X157448333Y-124094887D01*
X157448333Y-124094887D02*
X157543571Y-124285363D01*
X157543571Y-124285363D02*
X157543571Y-124571077D01*
X157543571Y-124571077D02*
X157448333Y-124761553D01*
X157448333Y-124761553D02*
X157353095Y-124856792D01*
X157353095Y-124856792D02*
X157162619Y-124952030D01*
X157162619Y-124952030D02*
X156400714Y-124952030D01*
X156400714Y-124952030D02*
X156400714Y-122952030D01*
X156400714Y-122952030D02*
X157067381Y-122952030D01*
X157067381Y-122952030D02*
X157257857Y-123047268D01*
X157257857Y-123047268D02*
X157353095Y-123142506D01*
X157353095Y-123142506D02*
X157448333Y-123332982D01*
X157448333Y-123332982D02*
X157448333Y-123523458D01*
X157448333Y-123523458D02*
X157353095Y-123713934D01*
X157353095Y-123713934D02*
X157257857Y-123809172D01*
X157257857Y-123809172D02*
X157067381Y-123904411D01*
X157067381Y-123904411D02*
X156400714Y-123904411D01*
X158400714Y-124952030D02*
X158400714Y-123618696D01*
X158400714Y-123999649D02*
X158495952Y-123809172D01*
X158495952Y-123809172D02*
X158591190Y-123713934D01*
X158591190Y-123713934D02*
X158781666Y-123618696D01*
X158781666Y-123618696D02*
X158972143Y-123618696D01*
X160495952Y-124952030D02*
X160495952Y-123904411D01*
X160495952Y-123904411D02*
X160400714Y-123713934D01*
X160400714Y-123713934D02*
X160210238Y-123618696D01*
X160210238Y-123618696D02*
X159829285Y-123618696D01*
X159829285Y-123618696D02*
X159638809Y-123713934D01*
X160495952Y-124856792D02*
X160305476Y-124952030D01*
X160305476Y-124952030D02*
X159829285Y-124952030D01*
X159829285Y-124952030D02*
X159638809Y-124856792D01*
X159638809Y-124856792D02*
X159543571Y-124666315D01*
X159543571Y-124666315D02*
X159543571Y-124475839D01*
X159543571Y-124475839D02*
X159638809Y-124285363D01*
X159638809Y-124285363D02*
X159829285Y-124190125D01*
X159829285Y-124190125D02*
X160305476Y-124190125D01*
X160305476Y-124190125D02*
X160495952Y-124094887D01*
X161448333Y-124952030D02*
X161448333Y-122952030D01*
X161638809Y-124190125D02*
X162210238Y-124952030D01*
X162210238Y-123618696D02*
X161448333Y-124380601D01*
X163829286Y-124856792D02*
X163638810Y-124952030D01*
X163638810Y-124952030D02*
X163257857Y-124952030D01*
X163257857Y-124952030D02*
X163067381Y-124856792D01*
X163067381Y-124856792D02*
X162972143Y-124666315D01*
X162972143Y-124666315D02*
X162972143Y-123904411D01*
X162972143Y-123904411D02*
X163067381Y-123713934D01*
X163067381Y-123713934D02*
X163257857Y-123618696D01*
X163257857Y-123618696D02*
X163638810Y-123618696D01*
X163638810Y-123618696D02*
X163829286Y-123713934D01*
X163829286Y-123713934D02*
X163924524Y-123904411D01*
X163924524Y-123904411D02*
X163924524Y-124094887D01*
X163924524Y-124094887D02*
X162972143Y-124285363D01*
D12*
X202063558Y-126954638D02*
X202063558Y-124954638D01*
X202063558Y-124954638D02*
X202825463Y-124954638D01*
X202825463Y-124954638D02*
X203015939Y-125049876D01*
X203015939Y-125049876D02*
X203111177Y-125145114D01*
X203111177Y-125145114D02*
X203206415Y-125335590D01*
X203206415Y-125335590D02*
X203206415Y-125621304D01*
X203206415Y-125621304D02*
X203111177Y-125811780D01*
X203111177Y-125811780D02*
X203015939Y-125907019D01*
X203015939Y-125907019D02*
X202825463Y-126002257D01*
X202825463Y-126002257D02*
X202063558Y-126002257D01*
X204349272Y-126954638D02*
X204158796Y-126859400D01*
X204158796Y-126859400D02*
X204063558Y-126764161D01*
X204063558Y-126764161D02*
X203968320Y-126573685D01*
X203968320Y-126573685D02*
X203968320Y-126002257D01*
X203968320Y-126002257D02*
X204063558Y-125811780D01*
X204063558Y-125811780D02*
X204158796Y-125716542D01*
X204158796Y-125716542D02*
X204349272Y-125621304D01*
X204349272Y-125621304D02*
X204634987Y-125621304D01*
X204634987Y-125621304D02*
X204825463Y-125716542D01*
X204825463Y-125716542D02*
X204920701Y-125811780D01*
X204920701Y-125811780D02*
X205015939Y-126002257D01*
X205015939Y-126002257D02*
X205015939Y-126573685D01*
X205015939Y-126573685D02*
X204920701Y-126764161D01*
X204920701Y-126764161D02*
X204825463Y-126859400D01*
X204825463Y-126859400D02*
X204634987Y-126954638D01*
X204634987Y-126954638D02*
X204349272Y-126954638D01*
X205587368Y-125621304D02*
X206349272Y-125621304D01*
X205873082Y-124954638D02*
X205873082Y-126668923D01*
X205873082Y-126668923D02*
X205968320Y-126859400D01*
X205968320Y-126859400D02*
X206158796Y-126954638D01*
X206158796Y-126954638D02*
X206349272Y-126954638D01*
D10*
X213550714Y-78671009D02*
X213884047Y-78671009D01*
X214026904Y-79194819D02*
X213550714Y-79194819D01*
X213550714Y-79194819D02*
X213550714Y-78194819D01*
X213550714Y-78194819D02*
X214026904Y-78194819D01*
X214884047Y-79194819D02*
X214884047Y-78671009D01*
X214884047Y-78671009D02*
X214836428Y-78575771D01*
X214836428Y-78575771D02*
X214741190Y-78528152D01*
X214741190Y-78528152D02*
X214550714Y-78528152D01*
X214550714Y-78528152D02*
X214455476Y-78575771D01*
X214884047Y-79147200D02*
X214788809Y-79194819D01*
X214788809Y-79194819D02*
X214550714Y-79194819D01*
X214550714Y-79194819D02*
X214455476Y-79147200D01*
X214455476Y-79147200D02*
X214407857Y-79051961D01*
X214407857Y-79051961D02*
X214407857Y-78956723D01*
X214407857Y-78956723D02*
X214455476Y-78861485D01*
X214455476Y-78861485D02*
X214550714Y-78813866D01*
X214550714Y-78813866D02*
X214788809Y-78813866D01*
X214788809Y-78813866D02*
X214884047Y-78766247D01*
X215360238Y-79194819D02*
X215360238Y-78528152D01*
X215360238Y-78718628D02*
X215407857Y-78623390D01*
X215407857Y-78623390D02*
X215455476Y-78575771D01*
X215455476Y-78575771D02*
X215550714Y-78528152D01*
X215550714Y-78528152D02*
X215645952Y-78528152D01*
X215836429Y-78528152D02*
X216217381Y-78528152D01*
X215979286Y-78194819D02*
X215979286Y-79051961D01*
X215979286Y-79051961D02*
X216026905Y-79147200D01*
X216026905Y-79147200D02*
X216122143Y-79194819D01*
X216122143Y-79194819D02*
X216217381Y-79194819D01*
X216550715Y-79194819D02*
X216550715Y-78194819D01*
X216979286Y-79194819D02*
X216979286Y-78671009D01*
X216979286Y-78671009D02*
X216931667Y-78575771D01*
X216931667Y-78575771D02*
X216836429Y-78528152D01*
X216836429Y-78528152D02*
X216693572Y-78528152D01*
X216693572Y-78528152D02*
X216598334Y-78575771D01*
X216598334Y-78575771D02*
X216550715Y-78623390D01*
X211871429Y-101512342D02*
X211871429Y-100312342D01*
X211871429Y-100312342D02*
X212328572Y-100312342D01*
X212328572Y-100312342D02*
X212442857Y-100369485D01*
X212442857Y-100369485D02*
X212500000Y-100426628D01*
X212500000Y-100426628D02*
X212557143Y-100540914D01*
X212557143Y-100540914D02*
X212557143Y-100712342D01*
X212557143Y-100712342D02*
X212500000Y-100826628D01*
X212500000Y-100826628D02*
X212442857Y-100883771D01*
X212442857Y-100883771D02*
X212328572Y-100940914D01*
X212328572Y-100940914D02*
X211871429Y-100940914D01*
X212957143Y-100712342D02*
X213185715Y-101512342D01*
X213185715Y-101512342D02*
X213414286Y-100940914D01*
X213414286Y-100940914D02*
X213642857Y-101512342D01*
X213642857Y-101512342D02*
X213871429Y-100712342D01*
X214328572Y-101512342D02*
X214328572Y-100712342D01*
X214328572Y-100940914D02*
X214385715Y-100826628D01*
X214385715Y-100826628D02*
X214442858Y-100769485D01*
X214442858Y-100769485D02*
X214557143Y-100712342D01*
X214557143Y-100712342D02*
X214671429Y-100712342D01*
X215985715Y-101512342D02*
X215985715Y-100312342D01*
X216557144Y-100712342D02*
X216557144Y-101512342D01*
X216557144Y-100826628D02*
X216614287Y-100769485D01*
X216614287Y-100769485D02*
X216728572Y-100712342D01*
X216728572Y-100712342D02*
X216900001Y-100712342D01*
X216900001Y-100712342D02*
X217014287Y-100769485D01*
X217014287Y-100769485D02*
X217071430Y-100883771D01*
X217071430Y-100883771D02*
X217071430Y-101512342D01*
X217642858Y-100712342D02*
X217642858Y-101912342D01*
X217642858Y-100769485D02*
X217757144Y-100712342D01*
X217757144Y-100712342D02*
X217985715Y-100712342D01*
X217985715Y-100712342D02*
X218100001Y-100769485D01*
X218100001Y-100769485D02*
X218157144Y-100826628D01*
X218157144Y-100826628D02*
X218214286Y-100940914D01*
X218214286Y-100940914D02*
X218214286Y-101283771D01*
X218214286Y-101283771D02*
X218157144Y-101398057D01*
X218157144Y-101398057D02*
X218100001Y-101455200D01*
X218100001Y-101455200D02*
X217985715Y-101512342D01*
X217985715Y-101512342D02*
X217757144Y-101512342D01*
X217757144Y-101512342D02*
X217642858Y-101455200D01*
X219242858Y-100712342D02*
X219242858Y-101512342D01*
X218728572Y-100712342D02*
X218728572Y-101340914D01*
X218728572Y-101340914D02*
X218785715Y-101455200D01*
X218785715Y-101455200D02*
X218900000Y-101512342D01*
X218900000Y-101512342D02*
X219071429Y-101512342D01*
X219071429Y-101512342D02*
X219185715Y-101455200D01*
X219185715Y-101455200D02*
X219242858Y-101398057D01*
X219642857Y-100712342D02*
X220100000Y-100712342D01*
X219814286Y-100312342D02*
X219814286Y-101340914D01*
X219814286Y-101340914D02*
X219871429Y-101455200D01*
X219871429Y-101455200D02*
X219985714Y-101512342D01*
X219985714Y-101512342D02*
X220100000Y-101512342D01*
X214074524Y-73845057D02*
X214122143Y-73797438D01*
X214122143Y-73797438D02*
X214217381Y-73749819D01*
X214217381Y-73749819D02*
X214455476Y-73749819D01*
X214455476Y-73749819D02*
X214550714Y-73797438D01*
X214550714Y-73797438D02*
X214598333Y-73845057D01*
X214598333Y-73845057D02*
X214645952Y-73940295D01*
X214645952Y-73940295D02*
X214645952Y-74035533D01*
X214645952Y-74035533D02*
X214598333Y-74178390D01*
X214598333Y-74178390D02*
X214026905Y-74749819D01*
X214026905Y-74749819D02*
X214645952Y-74749819D01*
X215265000Y-73749819D02*
X215360238Y-73749819D01*
X215360238Y-73749819D02*
X215455476Y-73797438D01*
X215455476Y-73797438D02*
X215503095Y-73845057D01*
X215503095Y-73845057D02*
X215550714Y-73940295D01*
X215550714Y-73940295D02*
X215598333Y-74130771D01*
X215598333Y-74130771D02*
X215598333Y-74368866D01*
X215598333Y-74368866D02*
X215550714Y-74559342D01*
X215550714Y-74559342D02*
X215503095Y-74654580D01*
X215503095Y-74654580D02*
X215455476Y-74702200D01*
X215455476Y-74702200D02*
X215360238Y-74749819D01*
X215360238Y-74749819D02*
X215265000Y-74749819D01*
X215265000Y-74749819D02*
X215169762Y-74702200D01*
X215169762Y-74702200D02*
X215122143Y-74654580D01*
X215122143Y-74654580D02*
X215074524Y-74559342D01*
X215074524Y-74559342D02*
X215026905Y-74368866D01*
X215026905Y-74368866D02*
X215026905Y-74130771D01*
X215026905Y-74130771D02*
X215074524Y-73940295D01*
X215074524Y-73940295D02*
X215122143Y-73845057D01*
X215122143Y-73845057D02*
X215169762Y-73797438D01*
X215169762Y-73797438D02*
X215265000Y-73749819D01*
X215884048Y-73749819D02*
X216217381Y-74749819D01*
X216217381Y-74749819D02*
X216550714Y-73749819D01*
X181165714Y-132861009D02*
X181499047Y-132861009D01*
X181641904Y-133384819D02*
X181165714Y-133384819D01*
X181165714Y-133384819D02*
X181165714Y-132384819D01*
X181165714Y-132384819D02*
X181641904Y-132384819D01*
X182499047Y-133384819D02*
X182499047Y-132861009D01*
X182499047Y-132861009D02*
X182451428Y-132765771D01*
X182451428Y-132765771D02*
X182356190Y-132718152D01*
X182356190Y-132718152D02*
X182165714Y-132718152D01*
X182165714Y-132718152D02*
X182070476Y-132765771D01*
X182499047Y-133337200D02*
X182403809Y-133384819D01*
X182403809Y-133384819D02*
X182165714Y-133384819D01*
X182165714Y-133384819D02*
X182070476Y-133337200D01*
X182070476Y-133337200D02*
X182022857Y-133241961D01*
X182022857Y-133241961D02*
X182022857Y-133146723D01*
X182022857Y-133146723D02*
X182070476Y-133051485D01*
X182070476Y-133051485D02*
X182165714Y-133003866D01*
X182165714Y-133003866D02*
X182403809Y-133003866D01*
X182403809Y-133003866D02*
X182499047Y-132956247D01*
X182975238Y-133384819D02*
X182975238Y-132718152D01*
X182975238Y-132908628D02*
X183022857Y-132813390D01*
X183022857Y-132813390D02*
X183070476Y-132765771D01*
X183070476Y-132765771D02*
X183165714Y-132718152D01*
X183165714Y-132718152D02*
X183260952Y-132718152D01*
X183451429Y-132718152D02*
X183832381Y-132718152D01*
X183594286Y-132384819D02*
X183594286Y-133241961D01*
X183594286Y-133241961D02*
X183641905Y-133337200D01*
X183641905Y-133337200D02*
X183737143Y-133384819D01*
X183737143Y-133384819D02*
X183832381Y-133384819D01*
X184165715Y-133384819D02*
X184165715Y-132384819D01*
X184594286Y-133384819D02*
X184594286Y-132861009D01*
X184594286Y-132861009D02*
X184546667Y-132765771D01*
X184546667Y-132765771D02*
X184451429Y-132718152D01*
X184451429Y-132718152D02*
X184308572Y-132718152D01*
X184308572Y-132718152D02*
X184213334Y-132765771D01*
X184213334Y-132765771D02*
X184165715Y-132813390D01*
D13*
X91672455Y-138497924D02*
X91672455Y-137797924D01*
X91672455Y-137797924D02*
X91839122Y-137797924D01*
X91839122Y-137797924D02*
X91939122Y-137831257D01*
X91939122Y-137831257D02*
X92005789Y-137897924D01*
X92005789Y-137897924D02*
X92039122Y-137964591D01*
X92039122Y-137964591D02*
X92072455Y-138097924D01*
X92072455Y-138097924D02*
X92072455Y-138197924D01*
X92072455Y-138197924D02*
X92039122Y-138331257D01*
X92039122Y-138331257D02*
X92005789Y-138397924D01*
X92005789Y-138397924D02*
X91939122Y-138464591D01*
X91939122Y-138464591D02*
X91839122Y-138497924D01*
X91839122Y-138497924D02*
X91672455Y-138497924D01*
X92472455Y-138497924D02*
X92405789Y-138464591D01*
X92405789Y-138464591D02*
X92372455Y-138431257D01*
X92372455Y-138431257D02*
X92339122Y-138364591D01*
X92339122Y-138364591D02*
X92339122Y-138164591D01*
X92339122Y-138164591D02*
X92372455Y-138097924D01*
X92372455Y-138097924D02*
X92405789Y-138064591D01*
X92405789Y-138064591D02*
X92472455Y-138031257D01*
X92472455Y-138031257D02*
X92572455Y-138031257D01*
X92572455Y-138031257D02*
X92639122Y-138064591D01*
X92639122Y-138064591D02*
X92672455Y-138097924D01*
X92672455Y-138097924D02*
X92705789Y-138164591D01*
X92705789Y-138164591D02*
X92705789Y-138364591D01*
X92705789Y-138364591D02*
X92672455Y-138431257D01*
X92672455Y-138431257D02*
X92639122Y-138464591D01*
X92639122Y-138464591D02*
X92572455Y-138497924D01*
X92572455Y-138497924D02*
X92472455Y-138497924D01*
X93005788Y-138497924D02*
X93005788Y-138031257D01*
X93005788Y-138164591D02*
X93039122Y-138097924D01*
X93039122Y-138097924D02*
X93072455Y-138064591D01*
X93072455Y-138064591D02*
X93139122Y-138031257D01*
X93139122Y-138031257D02*
X93205788Y-138031257D01*
X93739121Y-138497924D02*
X93739121Y-138131257D01*
X93739121Y-138131257D02*
X93705788Y-138064591D01*
X93705788Y-138064591D02*
X93639121Y-138031257D01*
X93639121Y-138031257D02*
X93505788Y-138031257D01*
X93505788Y-138031257D02*
X93439121Y-138064591D01*
X93739121Y-138464591D02*
X93672455Y-138497924D01*
X93672455Y-138497924D02*
X93505788Y-138497924D01*
X93505788Y-138497924D02*
X93439121Y-138464591D01*
X93439121Y-138464591D02*
X93405788Y-138397924D01*
X93405788Y-138397924D02*
X93405788Y-138331257D01*
X93405788Y-138331257D02*
X93439121Y-138264591D01*
X93439121Y-138264591D02*
X93505788Y-138231257D01*
X93505788Y-138231257D02*
X93672455Y-138231257D01*
X93672455Y-138231257D02*
X93739121Y-138197924D01*
X94739121Y-138164591D02*
X94739121Y-138497924D01*
X94505787Y-137797924D02*
X94739121Y-138164591D01*
X94739121Y-138164591D02*
X94972454Y-137797924D01*
X95505787Y-138497924D02*
X95505787Y-138131257D01*
X95505787Y-138131257D02*
X95472454Y-138064591D01*
X95472454Y-138064591D02*
X95405787Y-138031257D01*
X95405787Y-138031257D02*
X95272454Y-138031257D01*
X95272454Y-138031257D02*
X95205787Y-138064591D01*
X95505787Y-138464591D02*
X95439121Y-138497924D01*
X95439121Y-138497924D02*
X95272454Y-138497924D01*
X95272454Y-138497924D02*
X95205787Y-138464591D01*
X95205787Y-138464591D02*
X95172454Y-138397924D01*
X95172454Y-138397924D02*
X95172454Y-138331257D01*
X95172454Y-138331257D02*
X95205787Y-138264591D01*
X95205787Y-138264591D02*
X95272454Y-138231257D01*
X95272454Y-138231257D02*
X95439121Y-138231257D01*
X95439121Y-138231257D02*
X95505787Y-138197924D01*
X95839120Y-138031257D02*
X95839120Y-138497924D01*
X95839120Y-138097924D02*
X95872454Y-138064591D01*
X95872454Y-138064591D02*
X95939120Y-138031257D01*
X95939120Y-138031257D02*
X96039120Y-138031257D01*
X96039120Y-138031257D02*
X96105787Y-138064591D01*
X96105787Y-138064591D02*
X96139120Y-138131257D01*
X96139120Y-138131257D02*
X96139120Y-138497924D01*
X96772453Y-138031257D02*
X96772453Y-138597924D01*
X96772453Y-138597924D02*
X96739120Y-138664591D01*
X96739120Y-138664591D02*
X96705787Y-138697924D01*
X96705787Y-138697924D02*
X96639120Y-138731257D01*
X96639120Y-138731257D02*
X96539120Y-138731257D01*
X96539120Y-138731257D02*
X96472453Y-138697924D01*
X96772453Y-138464591D02*
X96705787Y-138497924D01*
X96705787Y-138497924D02*
X96572453Y-138497924D01*
X96572453Y-138497924D02*
X96505787Y-138464591D01*
X96505787Y-138464591D02*
X96472453Y-138431257D01*
X96472453Y-138431257D02*
X96439120Y-138364591D01*
X96439120Y-138364591D02*
X96439120Y-138164591D01*
X96439120Y-138164591D02*
X96472453Y-138097924D01*
X96472453Y-138097924D02*
X96505787Y-138064591D01*
X96505787Y-138064591D02*
X96572453Y-138031257D01*
X96572453Y-138031257D02*
X96705787Y-138031257D01*
X96705787Y-138031257D02*
X96772453Y-138064591D01*
X97139120Y-138464591D02*
X97139120Y-138497924D01*
X97139120Y-138497924D02*
X97105786Y-138564591D01*
X97105786Y-138564591D02*
X97072453Y-138597924D01*
X98372452Y-138431257D02*
X98339119Y-138464591D01*
X98339119Y-138464591D02*
X98239119Y-138497924D01*
X98239119Y-138497924D02*
X98172452Y-138497924D01*
X98172452Y-138497924D02*
X98072452Y-138464591D01*
X98072452Y-138464591D02*
X98005786Y-138397924D01*
X98005786Y-138397924D02*
X97972452Y-138331257D01*
X97972452Y-138331257D02*
X97939119Y-138197924D01*
X97939119Y-138197924D02*
X97939119Y-138097924D01*
X97939119Y-138097924D02*
X97972452Y-137964591D01*
X97972452Y-137964591D02*
X98005786Y-137897924D01*
X98005786Y-137897924D02*
X98072452Y-137831257D01*
X98072452Y-137831257D02*
X98172452Y-137797924D01*
X98172452Y-137797924D02*
X98239119Y-137797924D01*
X98239119Y-137797924D02*
X98339119Y-137831257D01*
X98339119Y-137831257D02*
X98372452Y-137864591D01*
X98772452Y-138497924D02*
X98705786Y-138464591D01*
X98705786Y-138464591D02*
X98672452Y-138431257D01*
X98672452Y-138431257D02*
X98639119Y-138364591D01*
X98639119Y-138364591D02*
X98639119Y-138164591D01*
X98639119Y-138164591D02*
X98672452Y-138097924D01*
X98672452Y-138097924D02*
X98705786Y-138064591D01*
X98705786Y-138064591D02*
X98772452Y-138031257D01*
X98772452Y-138031257D02*
X98872452Y-138031257D01*
X98872452Y-138031257D02*
X98939119Y-138064591D01*
X98939119Y-138064591D02*
X98972452Y-138097924D01*
X98972452Y-138097924D02*
X99005786Y-138164591D01*
X99005786Y-138164591D02*
X99005786Y-138364591D01*
X99005786Y-138364591D02*
X98972452Y-138431257D01*
X98972452Y-138431257D02*
X98939119Y-138464591D01*
X98939119Y-138464591D02*
X98872452Y-138497924D01*
X98872452Y-138497924D02*
X98772452Y-138497924D01*
X99405785Y-138497924D02*
X99339119Y-138464591D01*
X99339119Y-138464591D02*
X99305785Y-138397924D01*
X99305785Y-138397924D02*
X99305785Y-137797924D01*
X99672452Y-138497924D02*
X99672452Y-137797924D01*
X99672452Y-138064591D02*
X99739119Y-138031257D01*
X99739119Y-138031257D02*
X99872452Y-138031257D01*
X99872452Y-138031257D02*
X99939119Y-138064591D01*
X99939119Y-138064591D02*
X99972452Y-138097924D01*
X99972452Y-138097924D02*
X100005786Y-138164591D01*
X100005786Y-138164591D02*
X100005786Y-138364591D01*
X100005786Y-138364591D02*
X99972452Y-138431257D01*
X99972452Y-138431257D02*
X99939119Y-138464591D01*
X99939119Y-138464591D02*
X99872452Y-138497924D01*
X99872452Y-138497924D02*
X99739119Y-138497924D01*
X99739119Y-138497924D02*
X99672452Y-138464591D01*
X100239119Y-138031257D02*
X100405785Y-138497924D01*
X100572452Y-138031257D02*
X100405785Y-138497924D01*
X100405785Y-138497924D02*
X100339119Y-138664591D01*
X100339119Y-138664591D02*
X100305785Y-138697924D01*
X100305785Y-138697924D02*
X100239119Y-138731257D01*
X101339118Y-138464591D02*
X101439118Y-138497924D01*
X101439118Y-138497924D02*
X101605785Y-138497924D01*
X101605785Y-138497924D02*
X101672451Y-138464591D01*
X101672451Y-138464591D02*
X101705785Y-138431257D01*
X101705785Y-138431257D02*
X101739118Y-138364591D01*
X101739118Y-138364591D02*
X101739118Y-138297924D01*
X101739118Y-138297924D02*
X101705785Y-138231257D01*
X101705785Y-138231257D02*
X101672451Y-138197924D01*
X101672451Y-138197924D02*
X101605785Y-138164591D01*
X101605785Y-138164591D02*
X101472451Y-138131257D01*
X101472451Y-138131257D02*
X101405785Y-138097924D01*
X101405785Y-138097924D02*
X101372451Y-138064591D01*
X101372451Y-138064591D02*
X101339118Y-137997924D01*
X101339118Y-137997924D02*
X101339118Y-137931257D01*
X101339118Y-137931257D02*
X101372451Y-137864591D01*
X101372451Y-137864591D02*
X101405785Y-137831257D01*
X101405785Y-137831257D02*
X101472451Y-137797924D01*
X101472451Y-137797924D02*
X101639118Y-137797924D01*
X101639118Y-137797924D02*
X101739118Y-137831257D01*
X102039118Y-138031257D02*
X102039118Y-138731257D01*
X102039118Y-138064591D02*
X102105785Y-138031257D01*
X102105785Y-138031257D02*
X102239118Y-138031257D01*
X102239118Y-138031257D02*
X102305785Y-138064591D01*
X102305785Y-138064591D02*
X102339118Y-138097924D01*
X102339118Y-138097924D02*
X102372452Y-138164591D01*
X102372452Y-138164591D02*
X102372452Y-138364591D01*
X102372452Y-138364591D02*
X102339118Y-138431257D01*
X102339118Y-138431257D02*
X102305785Y-138464591D01*
X102305785Y-138464591D02*
X102239118Y-138497924D01*
X102239118Y-138497924D02*
X102105785Y-138497924D01*
X102105785Y-138497924D02*
X102039118Y-138464591D01*
X102972451Y-138497924D02*
X102972451Y-138131257D01*
X102972451Y-138131257D02*
X102939118Y-138064591D01*
X102939118Y-138064591D02*
X102872451Y-138031257D01*
X102872451Y-138031257D02*
X102739118Y-138031257D01*
X102739118Y-138031257D02*
X102672451Y-138064591D01*
X102972451Y-138464591D02*
X102905785Y-138497924D01*
X102905785Y-138497924D02*
X102739118Y-138497924D01*
X102739118Y-138497924D02*
X102672451Y-138464591D01*
X102672451Y-138464591D02*
X102639118Y-138397924D01*
X102639118Y-138397924D02*
X102639118Y-138331257D01*
X102639118Y-138331257D02*
X102672451Y-138264591D01*
X102672451Y-138264591D02*
X102739118Y-138231257D01*
X102739118Y-138231257D02*
X102905785Y-138231257D01*
X102905785Y-138231257D02*
X102972451Y-138197924D01*
X103305784Y-138497924D02*
X103305784Y-138031257D01*
X103305784Y-138164591D02*
X103339118Y-138097924D01*
X103339118Y-138097924D02*
X103372451Y-138064591D01*
X103372451Y-138064591D02*
X103439118Y-138031257D01*
X103439118Y-138031257D02*
X103505784Y-138031257D01*
X103739117Y-138497924D02*
X103739117Y-137797924D01*
X103805784Y-138231257D02*
X104005784Y-138497924D01*
X104005784Y-138031257D02*
X103739117Y-138297924D01*
X104272451Y-138464591D02*
X104339118Y-138497924D01*
X104339118Y-138497924D02*
X104472451Y-138497924D01*
X104472451Y-138497924D02*
X104539118Y-138464591D01*
X104539118Y-138464591D02*
X104572451Y-138397924D01*
X104572451Y-138397924D02*
X104572451Y-138364591D01*
X104572451Y-138364591D02*
X104539118Y-138297924D01*
X104539118Y-138297924D02*
X104472451Y-138264591D01*
X104472451Y-138264591D02*
X104372451Y-138264591D01*
X104372451Y-138264591D02*
X104305784Y-138231257D01*
X104305784Y-138231257D02*
X104272451Y-138164591D01*
X104272451Y-138164591D02*
X104272451Y-138131257D01*
X104272451Y-138131257D02*
X104305784Y-138064591D01*
X104305784Y-138064591D02*
X104372451Y-138031257D01*
X104372451Y-138031257D02*
X104472451Y-138031257D01*
X104472451Y-138031257D02*
X104539118Y-138064591D01*
X91872455Y-138924924D02*
X91872455Y-139424924D01*
X91872455Y-139424924D02*
X91839122Y-139524924D01*
X91839122Y-139524924D02*
X91772455Y-139591591D01*
X91772455Y-139591591D02*
X91672455Y-139624924D01*
X91672455Y-139624924D02*
X91605789Y-139624924D01*
X92505788Y-139624924D02*
X92505788Y-139258257D01*
X92505788Y-139258257D02*
X92472455Y-139191591D01*
X92472455Y-139191591D02*
X92405788Y-139158257D01*
X92405788Y-139158257D02*
X92272455Y-139158257D01*
X92272455Y-139158257D02*
X92205788Y-139191591D01*
X92505788Y-139591591D02*
X92439122Y-139624924D01*
X92439122Y-139624924D02*
X92272455Y-139624924D01*
X92272455Y-139624924D02*
X92205788Y-139591591D01*
X92205788Y-139591591D02*
X92172455Y-139524924D01*
X92172455Y-139524924D02*
X92172455Y-139458257D01*
X92172455Y-139458257D02*
X92205788Y-139391591D01*
X92205788Y-139391591D02*
X92272455Y-139358257D01*
X92272455Y-139358257D02*
X92439122Y-139358257D01*
X92439122Y-139358257D02*
X92505788Y-139324924D01*
X92839121Y-139624924D02*
X92839121Y-139158257D01*
X92839121Y-139224924D02*
X92872455Y-139191591D01*
X92872455Y-139191591D02*
X92939121Y-139158257D01*
X92939121Y-139158257D02*
X93039121Y-139158257D01*
X93039121Y-139158257D02*
X93105788Y-139191591D01*
X93105788Y-139191591D02*
X93139121Y-139258257D01*
X93139121Y-139258257D02*
X93139121Y-139624924D01*
X93139121Y-139258257D02*
X93172455Y-139191591D01*
X93172455Y-139191591D02*
X93239121Y-139158257D01*
X93239121Y-139158257D02*
X93339121Y-139158257D01*
X93339121Y-139158257D02*
X93405788Y-139191591D01*
X93405788Y-139191591D02*
X93439121Y-139258257D01*
X93439121Y-139258257D02*
X93439121Y-139624924D01*
X94039121Y-139591591D02*
X93972454Y-139624924D01*
X93972454Y-139624924D02*
X93839121Y-139624924D01*
X93839121Y-139624924D02*
X93772454Y-139591591D01*
X93772454Y-139591591D02*
X93739121Y-139524924D01*
X93739121Y-139524924D02*
X93739121Y-139258257D01*
X93739121Y-139258257D02*
X93772454Y-139191591D01*
X93772454Y-139191591D02*
X93839121Y-139158257D01*
X93839121Y-139158257D02*
X93972454Y-139158257D01*
X93972454Y-139158257D02*
X94039121Y-139191591D01*
X94039121Y-139191591D02*
X94072454Y-139258257D01*
X94072454Y-139258257D02*
X94072454Y-139324924D01*
X94072454Y-139324924D02*
X93739121Y-139391591D01*
X94339121Y-139591591D02*
X94405788Y-139624924D01*
X94405788Y-139624924D02*
X94539121Y-139624924D01*
X94539121Y-139624924D02*
X94605788Y-139591591D01*
X94605788Y-139591591D02*
X94639121Y-139524924D01*
X94639121Y-139524924D02*
X94639121Y-139491591D01*
X94639121Y-139491591D02*
X94605788Y-139424924D01*
X94605788Y-139424924D02*
X94539121Y-139391591D01*
X94539121Y-139391591D02*
X94439121Y-139391591D01*
X94439121Y-139391591D02*
X94372454Y-139358257D01*
X94372454Y-139358257D02*
X94339121Y-139291591D01*
X94339121Y-139291591D02*
X94339121Y-139258257D01*
X94339121Y-139258257D02*
X94372454Y-139191591D01*
X94372454Y-139191591D02*
X94439121Y-139158257D01*
X94439121Y-139158257D02*
X94539121Y-139158257D01*
X94539121Y-139158257D02*
X94605788Y-139191591D01*
X95405788Y-138924924D02*
X95872454Y-138924924D01*
X95872454Y-138924924D02*
X95405788Y-139624924D01*
X95405788Y-139624924D02*
X95872454Y-139624924D01*
X96139121Y-139624924D02*
X96139121Y-138924924D01*
X96439121Y-139624924D02*
X96439121Y-139258257D01*
X96439121Y-139258257D02*
X96405788Y-139191591D01*
X96405788Y-139191591D02*
X96339121Y-139158257D01*
X96339121Y-139158257D02*
X96239121Y-139158257D01*
X96239121Y-139158257D02*
X96172455Y-139191591D01*
X96172455Y-139191591D02*
X96139121Y-139224924D01*
X97072454Y-139624924D02*
X97072454Y-139258257D01*
X97072454Y-139258257D02*
X97039121Y-139191591D01*
X97039121Y-139191591D02*
X96972454Y-139158257D01*
X96972454Y-139158257D02*
X96839121Y-139158257D01*
X96839121Y-139158257D02*
X96772454Y-139191591D01*
X97072454Y-139591591D02*
X97005788Y-139624924D01*
X97005788Y-139624924D02*
X96839121Y-139624924D01*
X96839121Y-139624924D02*
X96772454Y-139591591D01*
X96772454Y-139591591D02*
X96739121Y-139524924D01*
X96739121Y-139524924D02*
X96739121Y-139458257D01*
X96739121Y-139458257D02*
X96772454Y-139391591D01*
X96772454Y-139391591D02*
X96839121Y-139358257D01*
X96839121Y-139358257D02*
X97005788Y-139358257D01*
X97005788Y-139358257D02*
X97072454Y-139324924D01*
X97405787Y-139158257D02*
X97405787Y-139624924D01*
X97405787Y-139224924D02*
X97439121Y-139191591D01*
X97439121Y-139191591D02*
X97505787Y-139158257D01*
X97505787Y-139158257D02*
X97605787Y-139158257D01*
X97605787Y-139158257D02*
X97672454Y-139191591D01*
X97672454Y-139191591D02*
X97705787Y-139258257D01*
X97705787Y-139258257D02*
X97705787Y-139624924D01*
X98339120Y-139158257D02*
X98339120Y-139724924D01*
X98339120Y-139724924D02*
X98305787Y-139791591D01*
X98305787Y-139791591D02*
X98272454Y-139824924D01*
X98272454Y-139824924D02*
X98205787Y-139858257D01*
X98205787Y-139858257D02*
X98105787Y-139858257D01*
X98105787Y-139858257D02*
X98039120Y-139824924D01*
X98339120Y-139591591D02*
X98272454Y-139624924D01*
X98272454Y-139624924D02*
X98139120Y-139624924D01*
X98139120Y-139624924D02*
X98072454Y-139591591D01*
X98072454Y-139591591D02*
X98039120Y-139558257D01*
X98039120Y-139558257D02*
X98005787Y-139491591D01*
X98005787Y-139491591D02*
X98005787Y-139291591D01*
X98005787Y-139291591D02*
X98039120Y-139224924D01*
X98039120Y-139224924D02*
X98072454Y-139191591D01*
X98072454Y-139191591D02*
X98139120Y-139158257D01*
X98139120Y-139158257D02*
X98272454Y-139158257D01*
X98272454Y-139158257D02*
X98339120Y-139191591D01*
X98705787Y-139591591D02*
X98705787Y-139624924D01*
X98705787Y-139624924D02*
X98672453Y-139691591D01*
X98672453Y-139691591D02*
X98639120Y-139724924D01*
X99539119Y-139624924D02*
X99539119Y-138924924D01*
X99939119Y-139624924D02*
X99639119Y-139224924D01*
X99939119Y-138924924D02*
X99539119Y-139324924D01*
X100505786Y-139591591D02*
X100439119Y-139624924D01*
X100439119Y-139624924D02*
X100305786Y-139624924D01*
X100305786Y-139624924D02*
X100239119Y-139591591D01*
X100239119Y-139591591D02*
X100205786Y-139524924D01*
X100205786Y-139524924D02*
X100205786Y-139258257D01*
X100205786Y-139258257D02*
X100239119Y-139191591D01*
X100239119Y-139191591D02*
X100305786Y-139158257D01*
X100305786Y-139158257D02*
X100439119Y-139158257D01*
X100439119Y-139158257D02*
X100505786Y-139191591D01*
X100505786Y-139191591D02*
X100539119Y-139258257D01*
X100539119Y-139258257D02*
X100539119Y-139324924D01*
X100539119Y-139324924D02*
X100205786Y-139391591D01*
X100772453Y-139158257D02*
X100939119Y-139624924D01*
X100939119Y-139624924D02*
X101105786Y-139158257D01*
X101372452Y-139624924D02*
X101372452Y-139158257D01*
X101372452Y-138924924D02*
X101339119Y-138958257D01*
X101339119Y-138958257D02*
X101372452Y-138991591D01*
X101372452Y-138991591D02*
X101405786Y-138958257D01*
X101405786Y-138958257D02*
X101372452Y-138924924D01*
X101372452Y-138924924D02*
X101372452Y-138991591D01*
X101705785Y-139158257D02*
X101705785Y-139624924D01*
X101705785Y-139224924D02*
X101739119Y-139191591D01*
X101739119Y-139191591D02*
X101805785Y-139158257D01*
X101805785Y-139158257D02*
X101905785Y-139158257D01*
X101905785Y-139158257D02*
X101972452Y-139191591D01*
X101972452Y-139191591D02*
X102005785Y-139258257D01*
X102005785Y-139258257D02*
X102005785Y-139624924D01*
X102872451Y-139624924D02*
X102872451Y-138924924D01*
X102872451Y-138924924D02*
X103039118Y-138924924D01*
X103039118Y-138924924D02*
X103139118Y-138958257D01*
X103139118Y-138958257D02*
X103205785Y-139024924D01*
X103205785Y-139024924D02*
X103239118Y-139091591D01*
X103239118Y-139091591D02*
X103272451Y-139224924D01*
X103272451Y-139224924D02*
X103272451Y-139324924D01*
X103272451Y-139324924D02*
X103239118Y-139458257D01*
X103239118Y-139458257D02*
X103205785Y-139524924D01*
X103205785Y-139524924D02*
X103139118Y-139591591D01*
X103139118Y-139591591D02*
X103039118Y-139624924D01*
X103039118Y-139624924D02*
X102872451Y-139624924D01*
X103572451Y-139624924D02*
X103572451Y-139158257D01*
X103572451Y-138924924D02*
X103539118Y-138958257D01*
X103539118Y-138958257D02*
X103572451Y-138991591D01*
X103572451Y-138991591D02*
X103605785Y-138958257D01*
X103605785Y-138958257D02*
X103572451Y-138924924D01*
X103572451Y-138924924D02*
X103572451Y-138991591D01*
X103905784Y-139158257D02*
X103905784Y-139624924D01*
X103905784Y-139224924D02*
X103939118Y-139191591D01*
X103939118Y-139191591D02*
X104005784Y-139158257D01*
X104005784Y-139158257D02*
X104105784Y-139158257D01*
X104105784Y-139158257D02*
X104172451Y-139191591D01*
X104172451Y-139191591D02*
X104205784Y-139258257D01*
X104205784Y-139258257D02*
X104205784Y-139624924D01*
X104839117Y-139158257D02*
X104839117Y-139724924D01*
X104839117Y-139724924D02*
X104805784Y-139791591D01*
X104805784Y-139791591D02*
X104772451Y-139824924D01*
X104772451Y-139824924D02*
X104705784Y-139858257D01*
X104705784Y-139858257D02*
X104605784Y-139858257D01*
X104605784Y-139858257D02*
X104539117Y-139824924D01*
X104839117Y-139591591D02*
X104772451Y-139624924D01*
X104772451Y-139624924D02*
X104639117Y-139624924D01*
X104639117Y-139624924D02*
X104572451Y-139591591D01*
X104572451Y-139591591D02*
X104539117Y-139558257D01*
X104539117Y-139558257D02*
X104505784Y-139491591D01*
X104505784Y-139491591D02*
X104505784Y-139291591D01*
X104505784Y-139291591D02*
X104539117Y-139224924D01*
X104539117Y-139224924D02*
X104572451Y-139191591D01*
X104572451Y-139191591D02*
X104639117Y-139158257D01*
X104639117Y-139158257D02*
X104772451Y-139158257D01*
X104772451Y-139158257D02*
X104839117Y-139191591D01*
X105205784Y-139591591D02*
X105205784Y-139624924D01*
X105205784Y-139624924D02*
X105172450Y-139691591D01*
X105172450Y-139691591D02*
X105139117Y-139724924D01*
X105939116Y-138924924D02*
X106339116Y-138924924D01*
X106139116Y-139624924D02*
X106139116Y-138924924D01*
X106672449Y-139624924D02*
X106605783Y-139591591D01*
X106605783Y-139591591D02*
X106572449Y-139558257D01*
X106572449Y-139558257D02*
X106539116Y-139491591D01*
X106539116Y-139491591D02*
X106539116Y-139291591D01*
X106539116Y-139291591D02*
X106572449Y-139224924D01*
X106572449Y-139224924D02*
X106605783Y-139191591D01*
X106605783Y-139191591D02*
X106672449Y-139158257D01*
X106672449Y-139158257D02*
X106772449Y-139158257D01*
X106772449Y-139158257D02*
X106839116Y-139191591D01*
X106839116Y-139191591D02*
X106872449Y-139224924D01*
X106872449Y-139224924D02*
X106905783Y-139291591D01*
X106905783Y-139291591D02*
X106905783Y-139491591D01*
X106905783Y-139491591D02*
X106872449Y-139558257D01*
X106872449Y-139558257D02*
X106839116Y-139591591D01*
X106839116Y-139591591D02*
X106772449Y-139624924D01*
X106772449Y-139624924D02*
X106672449Y-139624924D01*
X107205782Y-139624924D02*
X107205782Y-139158257D01*
X107205782Y-139224924D02*
X107239116Y-139191591D01*
X107239116Y-139191591D02*
X107305782Y-139158257D01*
X107305782Y-139158257D02*
X107405782Y-139158257D01*
X107405782Y-139158257D02*
X107472449Y-139191591D01*
X107472449Y-139191591D02*
X107505782Y-139258257D01*
X107505782Y-139258257D02*
X107505782Y-139624924D01*
X107505782Y-139258257D02*
X107539116Y-139191591D01*
X107539116Y-139191591D02*
X107605782Y-139158257D01*
X107605782Y-139158257D02*
X107705782Y-139158257D01*
X107705782Y-139158257D02*
X107772449Y-139191591D01*
X107772449Y-139191591D02*
X107805782Y-139258257D01*
X107805782Y-139258257D02*
X107805782Y-139624924D01*
X108439115Y-139624924D02*
X108439115Y-139258257D01*
X108439115Y-139258257D02*
X108405782Y-139191591D01*
X108405782Y-139191591D02*
X108339115Y-139158257D01*
X108339115Y-139158257D02*
X108205782Y-139158257D01*
X108205782Y-139158257D02*
X108139115Y-139191591D01*
X108439115Y-139591591D02*
X108372449Y-139624924D01*
X108372449Y-139624924D02*
X108205782Y-139624924D01*
X108205782Y-139624924D02*
X108139115Y-139591591D01*
X108139115Y-139591591D02*
X108105782Y-139524924D01*
X108105782Y-139524924D02*
X108105782Y-139458257D01*
X108105782Y-139458257D02*
X108139115Y-139391591D01*
X108139115Y-139391591D02*
X108205782Y-139358257D01*
X108205782Y-139358257D02*
X108372449Y-139358257D01*
X108372449Y-139358257D02*
X108439115Y-139324924D01*
X108705782Y-139158257D02*
X109072448Y-139158257D01*
X109072448Y-139158257D02*
X108705782Y-139624924D01*
X108705782Y-139624924D02*
X109072448Y-139624924D01*
X109805782Y-138924924D02*
X110272448Y-138924924D01*
X110272448Y-138924924D02*
X109805782Y-139624924D01*
X109805782Y-139624924D02*
X110272448Y-139624924D01*
X110639115Y-139624924D02*
X110572449Y-139591591D01*
X110572449Y-139591591D02*
X110539115Y-139524924D01*
X110539115Y-139524924D02*
X110539115Y-138924924D01*
X110905782Y-139624924D02*
X110905782Y-139158257D01*
X110905782Y-138924924D02*
X110872449Y-138958257D01*
X110872449Y-138958257D02*
X110905782Y-138991591D01*
X110905782Y-138991591D02*
X110939116Y-138958257D01*
X110939116Y-138958257D02*
X110905782Y-138924924D01*
X110905782Y-138924924D02*
X110905782Y-138991591D01*
X111239115Y-139158257D02*
X111239115Y-139624924D01*
X111239115Y-139224924D02*
X111272449Y-139191591D01*
X111272449Y-139191591D02*
X111339115Y-139158257D01*
X111339115Y-139158257D02*
X111439115Y-139158257D01*
X111439115Y-139158257D02*
X111505782Y-139191591D01*
X111505782Y-139191591D02*
X111539115Y-139258257D01*
X111539115Y-139258257D02*
X111539115Y-139624924D01*
X112172448Y-139624924D02*
X112172448Y-138924924D01*
X112172448Y-139591591D02*
X112105782Y-139624924D01*
X112105782Y-139624924D02*
X111972448Y-139624924D01*
X111972448Y-139624924D02*
X111905782Y-139591591D01*
X111905782Y-139591591D02*
X111872448Y-139558257D01*
X111872448Y-139558257D02*
X111839115Y-139491591D01*
X111839115Y-139491591D02*
X111839115Y-139291591D01*
X111839115Y-139291591D02*
X111872448Y-139224924D01*
X111872448Y-139224924D02*
X111905782Y-139191591D01*
X111905782Y-139191591D02*
X111972448Y-139158257D01*
X111972448Y-139158257D02*
X112105782Y-139158257D01*
X112105782Y-139158257D02*
X112172448Y-139191591D01*
X112505781Y-139624924D02*
X112505781Y-139158257D01*
X112505781Y-139291591D02*
X112539115Y-139224924D01*
X112539115Y-139224924D02*
X112572448Y-139191591D01*
X112572448Y-139191591D02*
X112639115Y-139158257D01*
X112639115Y-139158257D02*
X112705781Y-139158257D01*
X113239114Y-139624924D02*
X113239114Y-139258257D01*
X113239114Y-139258257D02*
X113205781Y-139191591D01*
X113205781Y-139191591D02*
X113139114Y-139158257D01*
X113139114Y-139158257D02*
X113005781Y-139158257D01*
X113005781Y-139158257D02*
X112939114Y-139191591D01*
X113239114Y-139591591D02*
X113172448Y-139624924D01*
X113172448Y-139624924D02*
X113005781Y-139624924D01*
X113005781Y-139624924D02*
X112939114Y-139591591D01*
X112939114Y-139591591D02*
X112905781Y-139524924D01*
X112905781Y-139524924D02*
X112905781Y-139458257D01*
X112905781Y-139458257D02*
X112939114Y-139391591D01*
X112939114Y-139391591D02*
X113005781Y-139358257D01*
X113005781Y-139358257D02*
X113172448Y-139358257D01*
X113172448Y-139358257D02*
X113239114Y-139324924D01*
X113605781Y-139591591D02*
X113605781Y-139624924D01*
X113605781Y-139624924D02*
X113572447Y-139691591D01*
X113572447Y-139691591D02*
X113539114Y-139724924D01*
X114405780Y-139424924D02*
X114739113Y-139424924D01*
X114339113Y-139624924D02*
X114572447Y-138924924D01*
X114572447Y-138924924D02*
X114805780Y-139624924D01*
X115139113Y-139624924D02*
X115072447Y-139591591D01*
X115072447Y-139591591D02*
X115039113Y-139524924D01*
X115039113Y-139524924D02*
X115039113Y-138924924D01*
X115672447Y-139591591D02*
X115605780Y-139624924D01*
X115605780Y-139624924D02*
X115472447Y-139624924D01*
X115472447Y-139624924D02*
X115405780Y-139591591D01*
X115405780Y-139591591D02*
X115372447Y-139524924D01*
X115372447Y-139524924D02*
X115372447Y-139258257D01*
X115372447Y-139258257D02*
X115405780Y-139191591D01*
X115405780Y-139191591D02*
X115472447Y-139158257D01*
X115472447Y-139158257D02*
X115605780Y-139158257D01*
X115605780Y-139158257D02*
X115672447Y-139191591D01*
X115672447Y-139191591D02*
X115705780Y-139258257D01*
X115705780Y-139258257D02*
X115705780Y-139324924D01*
X115705780Y-139324924D02*
X115372447Y-139391591D01*
X115939114Y-139624924D02*
X116305780Y-139158257D01*
X115939114Y-139158257D02*
X116305780Y-139624924D01*
X117472447Y-138958257D02*
X117405780Y-138924924D01*
X117405780Y-138924924D02*
X117305780Y-138924924D01*
X117305780Y-138924924D02*
X117205780Y-138958257D01*
X117205780Y-138958257D02*
X117139114Y-139024924D01*
X117139114Y-139024924D02*
X117105780Y-139091591D01*
X117105780Y-139091591D02*
X117072447Y-139224924D01*
X117072447Y-139224924D02*
X117072447Y-139324924D01*
X117072447Y-139324924D02*
X117105780Y-139458257D01*
X117105780Y-139458257D02*
X117139114Y-139524924D01*
X117139114Y-139524924D02*
X117205780Y-139591591D01*
X117205780Y-139591591D02*
X117305780Y-139624924D01*
X117305780Y-139624924D02*
X117372447Y-139624924D01*
X117372447Y-139624924D02*
X117472447Y-139591591D01*
X117472447Y-139591591D02*
X117505780Y-139558257D01*
X117505780Y-139558257D02*
X117505780Y-139324924D01*
X117505780Y-139324924D02*
X117372447Y-139324924D01*
X118072447Y-139591591D02*
X118005780Y-139624924D01*
X118005780Y-139624924D02*
X117872447Y-139624924D01*
X117872447Y-139624924D02*
X117805780Y-139591591D01*
X117805780Y-139591591D02*
X117772447Y-139524924D01*
X117772447Y-139524924D02*
X117772447Y-139258257D01*
X117772447Y-139258257D02*
X117805780Y-139191591D01*
X117805780Y-139191591D02*
X117872447Y-139158257D01*
X117872447Y-139158257D02*
X118005780Y-139158257D01*
X118005780Y-139158257D02*
X118072447Y-139191591D01*
X118072447Y-139191591D02*
X118105780Y-139258257D01*
X118105780Y-139258257D02*
X118105780Y-139324924D01*
X118105780Y-139324924D02*
X117772447Y-139391591D01*
D14*
X201475887Y-46574642D02*
X201285411Y-46707975D01*
X201475887Y-46803213D02*
X201075887Y-46803213D01*
X201075887Y-46803213D02*
X201075887Y-46650832D01*
X201075887Y-46650832D02*
X201094935Y-46612737D01*
X201094935Y-46612737D02*
X201113982Y-46593690D01*
X201113982Y-46593690D02*
X201152078Y-46574642D01*
X201152078Y-46574642D02*
X201209220Y-46574642D01*
X201209220Y-46574642D02*
X201247316Y-46593690D01*
X201247316Y-46593690D02*
X201266363Y-46612737D01*
X201266363Y-46612737D02*
X201285411Y-46650832D01*
X201285411Y-46650832D02*
X201285411Y-46803213D01*
X201475887Y-46193690D02*
X201475887Y-46422261D01*
X201475887Y-46307975D02*
X201075887Y-46307975D01*
X201075887Y-46307975D02*
X201133030Y-46346071D01*
X201133030Y-46346071D02*
X201171125Y-46384166D01*
X201171125Y-46384166D02*
X201190173Y-46422261D01*
X201075887Y-46060357D02*
X201075887Y-45793690D01*
X201075887Y-45793690D02*
X201475887Y-45965119D01*
D15*
X91509763Y-136588404D02*
X91509763Y-135288404D01*
X91509763Y-135288404D02*
X91819287Y-135288404D01*
X91819287Y-135288404D02*
X92005001Y-135350309D01*
X92005001Y-135350309D02*
X92128811Y-135474119D01*
X92128811Y-135474119D02*
X92190716Y-135597928D01*
X92190716Y-135597928D02*
X92252620Y-135845547D01*
X92252620Y-135845547D02*
X92252620Y-136031261D01*
X92252620Y-136031261D02*
X92190716Y-136278880D01*
X92190716Y-136278880D02*
X92128811Y-136402690D01*
X92128811Y-136402690D02*
X92005001Y-136526500D01*
X92005001Y-136526500D02*
X91819287Y-136588404D01*
X91819287Y-136588404D02*
X91509763Y-136588404D01*
X92685954Y-135721738D02*
X92995478Y-136588404D01*
X93305001Y-135721738D02*
X92995478Y-136588404D01*
X92995478Y-136588404D02*
X92871668Y-136897928D01*
X92871668Y-136897928D02*
X92809763Y-136959833D01*
X92809763Y-136959833D02*
X92685954Y-137021738D01*
X93800239Y-135721738D02*
X93800239Y-136588404D01*
X93800239Y-135845547D02*
X93862144Y-135783642D01*
X93862144Y-135783642D02*
X93985954Y-135721738D01*
X93985954Y-135721738D02*
X94171668Y-135721738D01*
X94171668Y-135721738D02*
X94295477Y-135783642D01*
X94295477Y-135783642D02*
X94357382Y-135907452D01*
X94357382Y-135907452D02*
X94357382Y-136588404D01*
X95162144Y-136588404D02*
X95038334Y-136526500D01*
X95038334Y-136526500D02*
X94976429Y-136464595D01*
X94976429Y-136464595D02*
X94914525Y-136340785D01*
X94914525Y-136340785D02*
X94914525Y-135969357D01*
X94914525Y-135969357D02*
X94976429Y-135845547D01*
X94976429Y-135845547D02*
X95038334Y-135783642D01*
X95038334Y-135783642D02*
X95162144Y-135721738D01*
X95162144Y-135721738D02*
X95347858Y-135721738D01*
X95347858Y-135721738D02*
X95471667Y-135783642D01*
X95471667Y-135783642D02*
X95533572Y-135845547D01*
X95533572Y-135845547D02*
X95595477Y-135969357D01*
X95595477Y-135969357D02*
X95595477Y-136340785D01*
X95595477Y-136340785D02*
X95533572Y-136464595D01*
X95533572Y-136464595D02*
X95471667Y-136526500D01*
X95471667Y-136526500D02*
X95347858Y-136588404D01*
X95347858Y-136588404D02*
X95162144Y-136588404D01*
X97885952Y-136464595D02*
X97824048Y-136526500D01*
X97824048Y-136526500D02*
X97638333Y-136588404D01*
X97638333Y-136588404D02*
X97514524Y-136588404D01*
X97514524Y-136588404D02*
X97328810Y-136526500D01*
X97328810Y-136526500D02*
X97205000Y-136402690D01*
X97205000Y-136402690D02*
X97143095Y-136278880D01*
X97143095Y-136278880D02*
X97081191Y-136031261D01*
X97081191Y-136031261D02*
X97081191Y-135845547D01*
X97081191Y-135845547D02*
X97143095Y-135597928D01*
X97143095Y-135597928D02*
X97205000Y-135474119D01*
X97205000Y-135474119D02*
X97328810Y-135350309D01*
X97328810Y-135350309D02*
X97514524Y-135288404D01*
X97514524Y-135288404D02*
X97638333Y-135288404D01*
X97638333Y-135288404D02*
X97824048Y-135350309D01*
X97824048Y-135350309D02*
X97885952Y-135412214D01*
X98628810Y-136588404D02*
X98505000Y-136526500D01*
X98505000Y-136526500D02*
X98443095Y-136464595D01*
X98443095Y-136464595D02*
X98381191Y-136340785D01*
X98381191Y-136340785D02*
X98381191Y-135969357D01*
X98381191Y-135969357D02*
X98443095Y-135845547D01*
X98443095Y-135845547D02*
X98505000Y-135783642D01*
X98505000Y-135783642D02*
X98628810Y-135721738D01*
X98628810Y-135721738D02*
X98814524Y-135721738D01*
X98814524Y-135721738D02*
X98938333Y-135783642D01*
X98938333Y-135783642D02*
X99000238Y-135845547D01*
X99000238Y-135845547D02*
X99062143Y-135969357D01*
X99062143Y-135969357D02*
X99062143Y-136340785D01*
X99062143Y-136340785D02*
X99000238Y-136464595D01*
X99000238Y-136464595D02*
X98938333Y-136526500D01*
X98938333Y-136526500D02*
X98814524Y-136588404D01*
X98814524Y-136588404D02*
X98628810Y-136588404D01*
X99619285Y-135721738D02*
X99619285Y-136588404D01*
X99619285Y-135845547D02*
X99681190Y-135783642D01*
X99681190Y-135783642D02*
X99805000Y-135721738D01*
X99805000Y-135721738D02*
X99990714Y-135721738D01*
X99990714Y-135721738D02*
X100114523Y-135783642D01*
X100114523Y-135783642D02*
X100176428Y-135907452D01*
X100176428Y-135907452D02*
X100176428Y-136588404D01*
X100609761Y-135721738D02*
X101104999Y-135721738D01*
X100795475Y-135288404D02*
X100795475Y-136402690D01*
X100795475Y-136402690D02*
X100857380Y-136526500D01*
X100857380Y-136526500D02*
X100981190Y-136588404D01*
X100981190Y-136588404D02*
X101104999Y-136588404D01*
X101538332Y-136588404D02*
X101538332Y-135721738D01*
X101538332Y-135969357D02*
X101600237Y-135845547D01*
X101600237Y-135845547D02*
X101662142Y-135783642D01*
X101662142Y-135783642D02*
X101785951Y-135721738D01*
X101785951Y-135721738D02*
X101909761Y-135721738D01*
X102528809Y-136588404D02*
X102404999Y-136526500D01*
X102404999Y-136526500D02*
X102343094Y-136464595D01*
X102343094Y-136464595D02*
X102281190Y-136340785D01*
X102281190Y-136340785D02*
X102281190Y-135969357D01*
X102281190Y-135969357D02*
X102343094Y-135845547D01*
X102343094Y-135845547D02*
X102404999Y-135783642D01*
X102404999Y-135783642D02*
X102528809Y-135721738D01*
X102528809Y-135721738D02*
X102714523Y-135721738D01*
X102714523Y-135721738D02*
X102838332Y-135783642D01*
X102838332Y-135783642D02*
X102900237Y-135845547D01*
X102900237Y-135845547D02*
X102962142Y-135969357D01*
X102962142Y-135969357D02*
X102962142Y-136340785D01*
X102962142Y-136340785D02*
X102900237Y-136464595D01*
X102900237Y-136464595D02*
X102838332Y-136526500D01*
X102838332Y-136526500D02*
X102714523Y-136588404D01*
X102714523Y-136588404D02*
X102528809Y-136588404D01*
X103704999Y-136588404D02*
X103581189Y-136526500D01*
X103581189Y-136526500D02*
X103519284Y-136402690D01*
X103519284Y-136402690D02*
X103519284Y-135288404D01*
X105066903Y-135721738D02*
X105376427Y-136588404D01*
X105376427Y-136588404D02*
X105685950Y-135721738D01*
X106119284Y-135412214D02*
X106181188Y-135350309D01*
X106181188Y-135350309D02*
X106304998Y-135288404D01*
X106304998Y-135288404D02*
X106614522Y-135288404D01*
X106614522Y-135288404D02*
X106738331Y-135350309D01*
X106738331Y-135350309D02*
X106800236Y-135412214D01*
X106800236Y-135412214D02*
X106862141Y-135536023D01*
X106862141Y-135536023D02*
X106862141Y-135659833D01*
X106862141Y-135659833D02*
X106800236Y-135845547D01*
X106800236Y-135845547D02*
X106057379Y-136588404D01*
X106057379Y-136588404D02*
X106862141Y-136588404D01*
D10*
X115760833Y-113104819D02*
X115427500Y-112628628D01*
X115189405Y-113104819D02*
X115189405Y-112104819D01*
X115189405Y-112104819D02*
X115570357Y-112104819D01*
X115570357Y-112104819D02*
X115665595Y-112152438D01*
X115665595Y-112152438D02*
X115713214Y-112200057D01*
X115713214Y-112200057D02*
X115760833Y-112295295D01*
X115760833Y-112295295D02*
X115760833Y-112438152D01*
X115760833Y-112438152D02*
X115713214Y-112533390D01*
X115713214Y-112533390D02*
X115665595Y-112581009D01*
X115665595Y-112581009D02*
X115570357Y-112628628D01*
X115570357Y-112628628D02*
X115189405Y-112628628D01*
X116617976Y-112438152D02*
X116617976Y-113104819D01*
X116379881Y-112057200D02*
X116141786Y-112771485D01*
X116141786Y-112771485D02*
X116760833Y-112771485D01*
X189873095Y-134289819D02*
X190444523Y-134289819D01*
X190158809Y-135289819D02*
X190158809Y-134289819D01*
X190777857Y-135289819D02*
X190777857Y-134289819D01*
X190777857Y-134289819D02*
X191158809Y-134289819D01*
X191158809Y-134289819D02*
X191254047Y-134337438D01*
X191254047Y-134337438D02*
X191301666Y-134385057D01*
X191301666Y-134385057D02*
X191349285Y-134480295D01*
X191349285Y-134480295D02*
X191349285Y-134623152D01*
X191349285Y-134623152D02*
X191301666Y-134718390D01*
X191301666Y-134718390D02*
X191254047Y-134766009D01*
X191254047Y-134766009D02*
X191158809Y-134813628D01*
X191158809Y-134813628D02*
X190777857Y-134813628D01*
X191730238Y-134385057D02*
X191777857Y-134337438D01*
X191777857Y-134337438D02*
X191873095Y-134289819D01*
X191873095Y-134289819D02*
X192111190Y-134289819D01*
X192111190Y-134289819D02*
X192206428Y-134337438D01*
X192206428Y-134337438D02*
X192254047Y-134385057D01*
X192254047Y-134385057D02*
X192301666Y-134480295D01*
X192301666Y-134480295D02*
X192301666Y-134575533D01*
X192301666Y-134575533D02*
X192254047Y-134718390D01*
X192254047Y-134718390D02*
X191682619Y-135289819D01*
X191682619Y-135289819D02*
X192301666Y-135289819D01*
X71738095Y-132954819D02*
X71738095Y-131954819D01*
X71738095Y-132431009D02*
X72309523Y-132431009D01*
X72309523Y-132954819D02*
X72309523Y-131954819D01*
X72690476Y-131954819D02*
X73309523Y-131954819D01*
X73309523Y-131954819D02*
X72976190Y-132335771D01*
X72976190Y-132335771D02*
X73119047Y-132335771D01*
X73119047Y-132335771D02*
X73214285Y-132383390D01*
X73214285Y-132383390D02*
X73261904Y-132431009D01*
X73261904Y-132431009D02*
X73309523Y-132526247D01*
X73309523Y-132526247D02*
X73309523Y-132764342D01*
X73309523Y-132764342D02*
X73261904Y-132859580D01*
X73261904Y-132859580D02*
X73214285Y-132907200D01*
X73214285Y-132907200D02*
X73119047Y-132954819D01*
X73119047Y-132954819D02*
X72833333Y-132954819D01*
X72833333Y-132954819D02*
X72738095Y-132907200D01*
X72738095Y-132907200D02*
X72690476Y-132859580D01*
X68669819Y-67843333D02*
X69384104Y-67843333D01*
X69384104Y-67843333D02*
X69526961Y-67890952D01*
X69526961Y-67890952D02*
X69622200Y-67986190D01*
X69622200Y-67986190D02*
X69669819Y-68129047D01*
X69669819Y-68129047D02*
X69669819Y-68224285D01*
X68765057Y-67414761D02*
X68717438Y-67367142D01*
X68717438Y-67367142D02*
X68669819Y-67271904D01*
X68669819Y-67271904D02*
X68669819Y-67033809D01*
X68669819Y-67033809D02*
X68717438Y-66938571D01*
X68717438Y-66938571D02*
X68765057Y-66890952D01*
X68765057Y-66890952D02*
X68860295Y-66843333D01*
X68860295Y-66843333D02*
X68955533Y-66843333D01*
X68955533Y-66843333D02*
X69098390Y-66890952D01*
X69098390Y-66890952D02*
X69669819Y-67462380D01*
X69669819Y-67462380D02*
X69669819Y-66843333D01*
X155754819Y-67843333D02*
X156469104Y-67843333D01*
X156469104Y-67843333D02*
X156611961Y-67890952D01*
X156611961Y-67890952D02*
X156707200Y-67986190D01*
X156707200Y-67986190D02*
X156754819Y-68129047D01*
X156754819Y-68129047D02*
X156754819Y-68224285D01*
X155850057Y-67414761D02*
X155802438Y-67367142D01*
X155802438Y-67367142D02*
X155754819Y-67271904D01*
X155754819Y-67271904D02*
X155754819Y-67033809D01*
X155754819Y-67033809D02*
X155802438Y-66938571D01*
X155802438Y-66938571D02*
X155850057Y-66890952D01*
X155850057Y-66890952D02*
X155945295Y-66843333D01*
X155945295Y-66843333D02*
X156040533Y-66843333D01*
X156040533Y-66843333D02*
X156183390Y-66890952D01*
X156183390Y-66890952D02*
X156754819Y-67462380D01*
X156754819Y-67462380D02*
X156754819Y-66843333D01*
X217813095Y-75061819D02*
X218384523Y-75061819D01*
X218098809Y-76061819D02*
X218098809Y-75061819D01*
X218717857Y-76061819D02*
X218717857Y-75061819D01*
X218717857Y-75061819D02*
X219098809Y-75061819D01*
X219098809Y-75061819D02*
X219194047Y-75109438D01*
X219194047Y-75109438D02*
X219241666Y-75157057D01*
X219241666Y-75157057D02*
X219289285Y-75252295D01*
X219289285Y-75252295D02*
X219289285Y-75395152D01*
X219289285Y-75395152D02*
X219241666Y-75490390D01*
X219241666Y-75490390D02*
X219194047Y-75538009D01*
X219194047Y-75538009D02*
X219098809Y-75585628D01*
X219098809Y-75585628D02*
X218717857Y-75585628D01*
X220146428Y-75395152D02*
X220146428Y-76061819D01*
X219908333Y-75014200D02*
X219670238Y-75728485D01*
X219670238Y-75728485D02*
X220289285Y-75728485D01*
D14*
X199175292Y-43209166D02*
X199194340Y-43228214D01*
X199194340Y-43228214D02*
X199213387Y-43285356D01*
X199213387Y-43285356D02*
X199213387Y-43323452D01*
X199213387Y-43323452D02*
X199194340Y-43380595D01*
X199194340Y-43380595D02*
X199156244Y-43418690D01*
X199156244Y-43418690D02*
X199118149Y-43437737D01*
X199118149Y-43437737D02*
X199041959Y-43456785D01*
X199041959Y-43456785D02*
X198984816Y-43456785D01*
X198984816Y-43456785D02*
X198908625Y-43437737D01*
X198908625Y-43437737D02*
X198870530Y-43418690D01*
X198870530Y-43418690D02*
X198832435Y-43380595D01*
X198832435Y-43380595D02*
X198813387Y-43323452D01*
X198813387Y-43323452D02*
X198813387Y-43285356D01*
X198813387Y-43285356D02*
X198832435Y-43228214D01*
X198832435Y-43228214D02*
X198851482Y-43209166D01*
X198813387Y-42847261D02*
X198813387Y-43037737D01*
X198813387Y-43037737D02*
X199003863Y-43056785D01*
X199003863Y-43056785D02*
X198984816Y-43037737D01*
X198984816Y-43037737D02*
X198965768Y-42999642D01*
X198965768Y-42999642D02*
X198965768Y-42904404D01*
X198965768Y-42904404D02*
X198984816Y-42866309D01*
X198984816Y-42866309D02*
X199003863Y-42847261D01*
X199003863Y-42847261D02*
X199041959Y-42828214D01*
X199041959Y-42828214D02*
X199137197Y-42828214D01*
X199137197Y-42828214D02*
X199175292Y-42847261D01*
X199175292Y-42847261D02*
X199194340Y-42866309D01*
X199194340Y-42866309D02*
X199213387Y-42904404D01*
X199213387Y-42904404D02*
X199213387Y-42999642D01*
X199213387Y-42999642D02*
X199194340Y-43037737D01*
X199194340Y-43037737D02*
X199175292Y-43056785D01*
D10*
X208581666Y-47834819D02*
X208581666Y-48549104D01*
X208581666Y-48549104D02*
X208534047Y-48691961D01*
X208534047Y-48691961D02*
X208438809Y-48787200D01*
X208438809Y-48787200D02*
X208295952Y-48834819D01*
X208295952Y-48834819D02*
X208200714Y-48834819D01*
X209486428Y-48168152D02*
X209486428Y-48834819D01*
X209248333Y-47787200D02*
X209010238Y-48501485D01*
X209010238Y-48501485D02*
X209629285Y-48501485D01*
D14*
X195760887Y-56772142D02*
X195570411Y-56905475D01*
X195760887Y-57000713D02*
X195360887Y-57000713D01*
X195360887Y-57000713D02*
X195360887Y-56848332D01*
X195360887Y-56848332D02*
X195379935Y-56810237D01*
X195379935Y-56810237D02*
X195398982Y-56791190D01*
X195398982Y-56791190D02*
X195437078Y-56772142D01*
X195437078Y-56772142D02*
X195494220Y-56772142D01*
X195494220Y-56772142D02*
X195532316Y-56791190D01*
X195532316Y-56791190D02*
X195551363Y-56810237D01*
X195551363Y-56810237D02*
X195570411Y-56848332D01*
X195570411Y-56848332D02*
X195570411Y-57000713D01*
X195760887Y-56391190D02*
X195760887Y-56619761D01*
X195760887Y-56505475D02*
X195360887Y-56505475D01*
X195360887Y-56505475D02*
X195418030Y-56543571D01*
X195418030Y-56543571D02*
X195456125Y-56581666D01*
X195456125Y-56581666D02*
X195475173Y-56619761D01*
X195360887Y-56143571D02*
X195360887Y-56105476D01*
X195360887Y-56105476D02*
X195379935Y-56067380D01*
X195379935Y-56067380D02*
X195398982Y-56048333D01*
X195398982Y-56048333D02*
X195437078Y-56029285D01*
X195437078Y-56029285D02*
X195513268Y-56010238D01*
X195513268Y-56010238D02*
X195608506Y-56010238D01*
X195608506Y-56010238D02*
X195684697Y-56029285D01*
X195684697Y-56029285D02*
X195722792Y-56048333D01*
X195722792Y-56048333D02*
X195741840Y-56067380D01*
X195741840Y-56067380D02*
X195760887Y-56105476D01*
X195760887Y-56105476D02*
X195760887Y-56143571D01*
X195760887Y-56143571D02*
X195741840Y-56181666D01*
X195741840Y-56181666D02*
X195722792Y-56200714D01*
X195722792Y-56200714D02*
X195684697Y-56219761D01*
X195684697Y-56219761D02*
X195608506Y-56238809D01*
X195608506Y-56238809D02*
X195513268Y-56238809D01*
X195513268Y-56238809D02*
X195437078Y-56219761D01*
X195437078Y-56219761D02*
X195398982Y-56200714D01*
X195398982Y-56200714D02*
X195379935Y-56181666D01*
X195379935Y-56181666D02*
X195360887Y-56143571D01*
D10*
X204544819Y-87733094D02*
X203544819Y-87733094D01*
X203544819Y-87733094D02*
X203544819Y-87494999D01*
X203544819Y-87494999D02*
X203592438Y-87352142D01*
X203592438Y-87352142D02*
X203687676Y-87256904D01*
X203687676Y-87256904D02*
X203782914Y-87209285D01*
X203782914Y-87209285D02*
X203973390Y-87161666D01*
X203973390Y-87161666D02*
X204116247Y-87161666D01*
X204116247Y-87161666D02*
X204306723Y-87209285D01*
X204306723Y-87209285D02*
X204401961Y-87256904D01*
X204401961Y-87256904D02*
X204497200Y-87352142D01*
X204497200Y-87352142D02*
X204544819Y-87494999D01*
X204544819Y-87494999D02*
X204544819Y-87733094D01*
X203640057Y-86780713D02*
X203592438Y-86733094D01*
X203592438Y-86733094D02*
X203544819Y-86637856D01*
X203544819Y-86637856D02*
X203544819Y-86399761D01*
X203544819Y-86399761D02*
X203592438Y-86304523D01*
X203592438Y-86304523D02*
X203640057Y-86256904D01*
X203640057Y-86256904D02*
X203735295Y-86209285D01*
X203735295Y-86209285D02*
X203830533Y-86209285D01*
X203830533Y-86209285D02*
X203973390Y-86256904D01*
X203973390Y-86256904D02*
X204544819Y-86828332D01*
X204544819Y-86828332D02*
X204544819Y-86209285D01*
X181618095Y-134331819D02*
X182189523Y-134331819D01*
X181903809Y-135331819D02*
X181903809Y-134331819D01*
X182522857Y-135331819D02*
X182522857Y-134331819D01*
X182522857Y-134331819D02*
X182903809Y-134331819D01*
X182903809Y-134331819D02*
X182999047Y-134379438D01*
X182999047Y-134379438D02*
X183046666Y-134427057D01*
X183046666Y-134427057D02*
X183094285Y-134522295D01*
X183094285Y-134522295D02*
X183094285Y-134665152D01*
X183094285Y-134665152D02*
X183046666Y-134760390D01*
X183046666Y-134760390D02*
X182999047Y-134808009D01*
X182999047Y-134808009D02*
X182903809Y-134855628D01*
X182903809Y-134855628D02*
X182522857Y-134855628D01*
X183999047Y-134331819D02*
X183522857Y-134331819D01*
X183522857Y-134331819D02*
X183475238Y-134808009D01*
X183475238Y-134808009D02*
X183522857Y-134760390D01*
X183522857Y-134760390D02*
X183618095Y-134712771D01*
X183618095Y-134712771D02*
X183856190Y-134712771D01*
X183856190Y-134712771D02*
X183951428Y-134760390D01*
X183951428Y-134760390D02*
X183999047Y-134808009D01*
X183999047Y-134808009D02*
X184046666Y-134903247D01*
X184046666Y-134903247D02*
X184046666Y-135141342D01*
X184046666Y-135141342D02*
X183999047Y-135236580D01*
X183999047Y-135236580D02*
X183951428Y-135284200D01*
X183951428Y-135284200D02*
X183856190Y-135331819D01*
X183856190Y-135331819D02*
X183618095Y-135331819D01*
X183618095Y-135331819D02*
X183522857Y-135284200D01*
X183522857Y-135284200D02*
X183475238Y-135236580D01*
D14*
X194696461Y-49287932D02*
X194505985Y-49421265D01*
X194696461Y-49516503D02*
X194296461Y-49516503D01*
X194296461Y-49516503D02*
X194296461Y-49364122D01*
X194296461Y-49364122D02*
X194315509Y-49326027D01*
X194315509Y-49326027D02*
X194334556Y-49306980D01*
X194334556Y-49306980D02*
X194372652Y-49287932D01*
X194372652Y-49287932D02*
X194429794Y-49287932D01*
X194429794Y-49287932D02*
X194467890Y-49306980D01*
X194467890Y-49306980D02*
X194486937Y-49326027D01*
X194486937Y-49326027D02*
X194505985Y-49364122D01*
X194505985Y-49364122D02*
X194505985Y-49516503D01*
X194696461Y-48906980D02*
X194696461Y-49135551D01*
X194696461Y-49021265D02*
X194296461Y-49021265D01*
X194296461Y-49021265D02*
X194353604Y-49059361D01*
X194353604Y-49059361D02*
X194391699Y-49097456D01*
X194391699Y-49097456D02*
X194410747Y-49135551D01*
X194429794Y-48564123D02*
X194696461Y-48564123D01*
X194277414Y-48659361D02*
X194563128Y-48754599D01*
X194563128Y-48754599D02*
X194563128Y-48506980D01*
D11*
X126698809Y-123904411D02*
X127365476Y-123904411D01*
X127651190Y-124952030D02*
X126698809Y-124952030D01*
X126698809Y-124952030D02*
X126698809Y-122952030D01*
X126698809Y-122952030D02*
X127651190Y-122952030D01*
X128508333Y-123618696D02*
X128508333Y-124952030D01*
X128508333Y-123809172D02*
X128603571Y-123713934D01*
X128603571Y-123713934D02*
X128794047Y-123618696D01*
X128794047Y-123618696D02*
X129079762Y-123618696D01*
X129079762Y-123618696D02*
X129270238Y-123713934D01*
X129270238Y-123713934D02*
X129365476Y-123904411D01*
X129365476Y-123904411D02*
X129365476Y-124952030D01*
X131175000Y-124856792D02*
X130984524Y-124952030D01*
X130984524Y-124952030D02*
X130603571Y-124952030D01*
X130603571Y-124952030D02*
X130413095Y-124856792D01*
X130413095Y-124856792D02*
X130317857Y-124761553D01*
X130317857Y-124761553D02*
X130222619Y-124571077D01*
X130222619Y-124571077D02*
X130222619Y-123999649D01*
X130222619Y-123999649D02*
X130317857Y-123809172D01*
X130317857Y-123809172D02*
X130413095Y-123713934D01*
X130413095Y-123713934D02*
X130603571Y-123618696D01*
X130603571Y-123618696D02*
X130984524Y-123618696D01*
X130984524Y-123618696D02*
X131175000Y-123713934D01*
X132317857Y-124952030D02*
X132127381Y-124856792D01*
X132127381Y-124856792D02*
X132032143Y-124761553D01*
X132032143Y-124761553D02*
X131936905Y-124571077D01*
X131936905Y-124571077D02*
X131936905Y-123999649D01*
X131936905Y-123999649D02*
X132032143Y-123809172D01*
X132032143Y-123809172D02*
X132127381Y-123713934D01*
X132127381Y-123713934D02*
X132317857Y-123618696D01*
X132317857Y-123618696D02*
X132603572Y-123618696D01*
X132603572Y-123618696D02*
X132794048Y-123713934D01*
X132794048Y-123713934D02*
X132889286Y-123809172D01*
X132889286Y-123809172D02*
X132984524Y-123999649D01*
X132984524Y-123999649D02*
X132984524Y-124571077D01*
X132984524Y-124571077D02*
X132889286Y-124761553D01*
X132889286Y-124761553D02*
X132794048Y-124856792D01*
X132794048Y-124856792D02*
X132603572Y-124952030D01*
X132603572Y-124952030D02*
X132317857Y-124952030D01*
X134698810Y-124952030D02*
X134698810Y-122952030D01*
X134698810Y-124856792D02*
X134508334Y-124952030D01*
X134508334Y-124952030D02*
X134127381Y-124952030D01*
X134127381Y-124952030D02*
X133936905Y-124856792D01*
X133936905Y-124856792D02*
X133841667Y-124761553D01*
X133841667Y-124761553D02*
X133746429Y-124571077D01*
X133746429Y-124571077D02*
X133746429Y-123999649D01*
X133746429Y-123999649D02*
X133841667Y-123809172D01*
X133841667Y-123809172D02*
X133936905Y-123713934D01*
X133936905Y-123713934D02*
X134127381Y-123618696D01*
X134127381Y-123618696D02*
X134508334Y-123618696D01*
X134508334Y-123618696D02*
X134698810Y-123713934D01*
X136413096Y-124856792D02*
X136222620Y-124952030D01*
X136222620Y-124952030D02*
X135841667Y-124952030D01*
X135841667Y-124952030D02*
X135651191Y-124856792D01*
X135651191Y-124856792D02*
X135555953Y-124666315D01*
X135555953Y-124666315D02*
X135555953Y-123904411D01*
X135555953Y-123904411D02*
X135651191Y-123713934D01*
X135651191Y-123713934D02*
X135841667Y-123618696D01*
X135841667Y-123618696D02*
X136222620Y-123618696D01*
X136222620Y-123618696D02*
X136413096Y-123713934D01*
X136413096Y-123713934D02*
X136508334Y-123904411D01*
X136508334Y-123904411D02*
X136508334Y-124094887D01*
X136508334Y-124094887D02*
X135555953Y-124285363D01*
X137365477Y-124952030D02*
X137365477Y-123618696D01*
X137365477Y-123999649D02*
X137460715Y-123809172D01*
X137460715Y-123809172D02*
X137555953Y-123713934D01*
X137555953Y-123713934D02*
X137746429Y-123618696D01*
X137746429Y-123618696D02*
X137936906Y-123618696D01*
D10*
X139216319Y-110724999D02*
X139454414Y-110724999D01*
X139359176Y-110963094D02*
X139454414Y-110724999D01*
X139454414Y-110724999D02*
X139359176Y-110486904D01*
X139644890Y-110867856D02*
X139454414Y-110724999D01*
X139454414Y-110724999D02*
X139644890Y-110582142D01*
X140306680Y-110725000D02*
X140068585Y-110725000D01*
X140163823Y-110486905D02*
X140068585Y-110725000D01*
X140068585Y-110725000D02*
X140163823Y-110963095D01*
X139878109Y-110582143D02*
X140068585Y-110725000D01*
X140068585Y-110725000D02*
X139878109Y-110867857D01*
X192251666Y-39834819D02*
X192251666Y-40549104D01*
X192251666Y-40549104D02*
X192204047Y-40691961D01*
X192204047Y-40691961D02*
X192108809Y-40787200D01*
X192108809Y-40787200D02*
X191965952Y-40834819D01*
X191965952Y-40834819D02*
X191870714Y-40834819D01*
X192632619Y-39834819D02*
X193299285Y-39834819D01*
X193299285Y-39834819D02*
X192870714Y-40834819D01*
X207844819Y-83192857D02*
X207368628Y-83526190D01*
X207844819Y-83764285D02*
X206844819Y-83764285D01*
X206844819Y-83764285D02*
X206844819Y-83383333D01*
X206844819Y-83383333D02*
X206892438Y-83288095D01*
X206892438Y-83288095D02*
X206940057Y-83240476D01*
X206940057Y-83240476D02*
X207035295Y-83192857D01*
X207035295Y-83192857D02*
X207178152Y-83192857D01*
X207178152Y-83192857D02*
X207273390Y-83240476D01*
X207273390Y-83240476D02*
X207321009Y-83288095D01*
X207321009Y-83288095D02*
X207368628Y-83383333D01*
X207368628Y-83383333D02*
X207368628Y-83764285D01*
X207844819Y-82240476D02*
X207844819Y-82811904D01*
X207844819Y-82526190D02*
X206844819Y-82526190D01*
X206844819Y-82526190D02*
X206987676Y-82621428D01*
X206987676Y-82621428D02*
X207082914Y-82716666D01*
X207082914Y-82716666D02*
X207130533Y-82811904D01*
X207273390Y-81669047D02*
X207225771Y-81764285D01*
X207225771Y-81764285D02*
X207178152Y-81811904D01*
X207178152Y-81811904D02*
X207082914Y-81859523D01*
X207082914Y-81859523D02*
X207035295Y-81859523D01*
X207035295Y-81859523D02*
X206940057Y-81811904D01*
X206940057Y-81811904D02*
X206892438Y-81764285D01*
X206892438Y-81764285D02*
X206844819Y-81669047D01*
X206844819Y-81669047D02*
X206844819Y-81478571D01*
X206844819Y-81478571D02*
X206892438Y-81383333D01*
X206892438Y-81383333D02*
X206940057Y-81335714D01*
X206940057Y-81335714D02*
X207035295Y-81288095D01*
X207035295Y-81288095D02*
X207082914Y-81288095D01*
X207082914Y-81288095D02*
X207178152Y-81335714D01*
X207178152Y-81335714D02*
X207225771Y-81383333D01*
X207225771Y-81383333D02*
X207273390Y-81478571D01*
X207273390Y-81478571D02*
X207273390Y-81669047D01*
X207273390Y-81669047D02*
X207321009Y-81764285D01*
X207321009Y-81764285D02*
X207368628Y-81811904D01*
X207368628Y-81811904D02*
X207463866Y-81859523D01*
X207463866Y-81859523D02*
X207654342Y-81859523D01*
X207654342Y-81859523D02*
X207749580Y-81811904D01*
X207749580Y-81811904D02*
X207797200Y-81764285D01*
X207797200Y-81764285D02*
X207844819Y-81669047D01*
X207844819Y-81669047D02*
X207844819Y-81478571D01*
X207844819Y-81478571D02*
X207797200Y-81383333D01*
X207797200Y-81383333D02*
X207749580Y-81335714D01*
X207749580Y-81335714D02*
X207654342Y-81288095D01*
X207654342Y-81288095D02*
X207463866Y-81288095D01*
X207463866Y-81288095D02*
X207368628Y-81335714D01*
X207368628Y-81335714D02*
X207321009Y-81383333D01*
X207321009Y-81383333D02*
X207273390Y-81478571D01*
X211561666Y-80754819D02*
X211561666Y-81469104D01*
X211561666Y-81469104D02*
X211514047Y-81611961D01*
X211514047Y-81611961D02*
X211418809Y-81707200D01*
X211418809Y-81707200D02*
X211275952Y-81754819D01*
X211275952Y-81754819D02*
X211180714Y-81754819D01*
X211942619Y-80754819D02*
X212561666Y-80754819D01*
X212561666Y-80754819D02*
X212228333Y-81135771D01*
X212228333Y-81135771D02*
X212371190Y-81135771D01*
X212371190Y-81135771D02*
X212466428Y-81183390D01*
X212466428Y-81183390D02*
X212514047Y-81231009D01*
X212514047Y-81231009D02*
X212561666Y-81326247D01*
X212561666Y-81326247D02*
X212561666Y-81564342D01*
X212561666Y-81564342D02*
X212514047Y-81659580D01*
X212514047Y-81659580D02*
X212466428Y-81707200D01*
X212466428Y-81707200D02*
X212371190Y-81754819D01*
X212371190Y-81754819D02*
X212085476Y-81754819D01*
X212085476Y-81754819D02*
X211990238Y-81707200D01*
X211990238Y-81707200D02*
X211942619Y-81659580D01*
D14*
X91715887Y-102161666D02*
X91525411Y-102294999D01*
X91715887Y-102390237D02*
X91315887Y-102390237D01*
X91315887Y-102390237D02*
X91315887Y-102237856D01*
X91315887Y-102237856D02*
X91334935Y-102199761D01*
X91334935Y-102199761D02*
X91353982Y-102180714D01*
X91353982Y-102180714D02*
X91392078Y-102161666D01*
X91392078Y-102161666D02*
X91449220Y-102161666D01*
X91449220Y-102161666D02*
X91487316Y-102180714D01*
X91487316Y-102180714D02*
X91506363Y-102199761D01*
X91506363Y-102199761D02*
X91525411Y-102237856D01*
X91525411Y-102237856D02*
X91525411Y-102390237D01*
X91353982Y-102009285D02*
X91334935Y-101990237D01*
X91334935Y-101990237D02*
X91315887Y-101952142D01*
X91315887Y-101952142D02*
X91315887Y-101856904D01*
X91315887Y-101856904D02*
X91334935Y-101818809D01*
X91334935Y-101818809D02*
X91353982Y-101799761D01*
X91353982Y-101799761D02*
X91392078Y-101780714D01*
X91392078Y-101780714D02*
X91430173Y-101780714D01*
X91430173Y-101780714D02*
X91487316Y-101799761D01*
X91487316Y-101799761D02*
X91715887Y-102028333D01*
X91715887Y-102028333D02*
X91715887Y-101780714D01*
D10*
X144073333Y-117254819D02*
X143740000Y-116778628D01*
X143501905Y-117254819D02*
X143501905Y-116254819D01*
X143501905Y-116254819D02*
X143882857Y-116254819D01*
X143882857Y-116254819D02*
X143978095Y-116302438D01*
X143978095Y-116302438D02*
X144025714Y-116350057D01*
X144025714Y-116350057D02*
X144073333Y-116445295D01*
X144073333Y-116445295D02*
X144073333Y-116588152D01*
X144073333Y-116588152D02*
X144025714Y-116683390D01*
X144025714Y-116683390D02*
X143978095Y-116731009D01*
X143978095Y-116731009D02*
X143882857Y-116778628D01*
X143882857Y-116778628D02*
X143501905Y-116778628D01*
X144406667Y-116254819D02*
X145025714Y-116254819D01*
X145025714Y-116254819D02*
X144692381Y-116635771D01*
X144692381Y-116635771D02*
X144835238Y-116635771D01*
X144835238Y-116635771D02*
X144930476Y-116683390D01*
X144930476Y-116683390D02*
X144978095Y-116731009D01*
X144978095Y-116731009D02*
X145025714Y-116826247D01*
X145025714Y-116826247D02*
X145025714Y-117064342D01*
X145025714Y-117064342D02*
X144978095Y-117159580D01*
X144978095Y-117159580D02*
X144930476Y-117207200D01*
X144930476Y-117207200D02*
X144835238Y-117254819D01*
X144835238Y-117254819D02*
X144549524Y-117254819D01*
X144549524Y-117254819D02*
X144454286Y-117207200D01*
X144454286Y-117207200D02*
X144406667Y-117159580D01*
X151868095Y-34594819D02*
X152439523Y-34594819D01*
X152153809Y-35594819D02*
X152153809Y-34594819D01*
X152772857Y-35594819D02*
X152772857Y-34594819D01*
X152772857Y-34594819D02*
X153153809Y-34594819D01*
X153153809Y-34594819D02*
X153249047Y-34642438D01*
X153249047Y-34642438D02*
X153296666Y-34690057D01*
X153296666Y-34690057D02*
X153344285Y-34785295D01*
X153344285Y-34785295D02*
X153344285Y-34928152D01*
X153344285Y-34928152D02*
X153296666Y-35023390D01*
X153296666Y-35023390D02*
X153249047Y-35071009D01*
X153249047Y-35071009D02*
X153153809Y-35118628D01*
X153153809Y-35118628D02*
X152772857Y-35118628D01*
X153677619Y-34594819D02*
X154296666Y-34594819D01*
X154296666Y-34594819D02*
X153963333Y-34975771D01*
X153963333Y-34975771D02*
X154106190Y-34975771D01*
X154106190Y-34975771D02*
X154201428Y-35023390D01*
X154201428Y-35023390D02*
X154249047Y-35071009D01*
X154249047Y-35071009D02*
X154296666Y-35166247D01*
X154296666Y-35166247D02*
X154296666Y-35404342D01*
X154296666Y-35404342D02*
X154249047Y-35499580D01*
X154249047Y-35499580D02*
X154201428Y-35547200D01*
X154201428Y-35547200D02*
X154106190Y-35594819D01*
X154106190Y-35594819D02*
X153820476Y-35594819D01*
X153820476Y-35594819D02*
X153725238Y-35547200D01*
X153725238Y-35547200D02*
X153677619Y-35499580D01*
D14*
X201198387Y-56772142D02*
X201007911Y-56905475D01*
X201198387Y-57000713D02*
X200798387Y-57000713D01*
X200798387Y-57000713D02*
X200798387Y-56848332D01*
X200798387Y-56848332D02*
X200817435Y-56810237D01*
X200817435Y-56810237D02*
X200836482Y-56791190D01*
X200836482Y-56791190D02*
X200874578Y-56772142D01*
X200874578Y-56772142D02*
X200931720Y-56772142D01*
X200931720Y-56772142D02*
X200969816Y-56791190D01*
X200969816Y-56791190D02*
X200988863Y-56810237D01*
X200988863Y-56810237D02*
X201007911Y-56848332D01*
X201007911Y-56848332D02*
X201007911Y-57000713D01*
X201198387Y-56391190D02*
X201198387Y-56619761D01*
X201198387Y-56505475D02*
X200798387Y-56505475D01*
X200798387Y-56505475D02*
X200855530Y-56543571D01*
X200855530Y-56543571D02*
X200893625Y-56581666D01*
X200893625Y-56581666D02*
X200912673Y-56619761D01*
X201198387Y-56010238D02*
X201198387Y-56238809D01*
X201198387Y-56124523D02*
X200798387Y-56124523D01*
X200798387Y-56124523D02*
X200855530Y-56162619D01*
X200855530Y-56162619D02*
X200893625Y-56200714D01*
X200893625Y-56200714D02*
X200912673Y-56238809D01*
D11*
X76406428Y-125809411D02*
X76692142Y-125904649D01*
X76692142Y-125904649D02*
X76787380Y-125999887D01*
X76787380Y-125999887D02*
X76882618Y-126190363D01*
X76882618Y-126190363D02*
X76882618Y-126476077D01*
X76882618Y-126476077D02*
X76787380Y-126666553D01*
X76787380Y-126666553D02*
X76692142Y-126761792D01*
X76692142Y-126761792D02*
X76501666Y-126857030D01*
X76501666Y-126857030D02*
X75739761Y-126857030D01*
X75739761Y-126857030D02*
X75739761Y-124857030D01*
X75739761Y-124857030D02*
X76406428Y-124857030D01*
X76406428Y-124857030D02*
X76596904Y-124952268D01*
X76596904Y-124952268D02*
X76692142Y-125047506D01*
X76692142Y-125047506D02*
X76787380Y-125237982D01*
X76787380Y-125237982D02*
X76787380Y-125428458D01*
X76787380Y-125428458D02*
X76692142Y-125618934D01*
X76692142Y-125618934D02*
X76596904Y-125714172D01*
X76596904Y-125714172D02*
X76406428Y-125809411D01*
X76406428Y-125809411D02*
X75739761Y-125809411D01*
X78596904Y-126857030D02*
X78596904Y-125809411D01*
X78596904Y-125809411D02*
X78501666Y-125618934D01*
X78501666Y-125618934D02*
X78311190Y-125523696D01*
X78311190Y-125523696D02*
X77930237Y-125523696D01*
X77930237Y-125523696D02*
X77739761Y-125618934D01*
X78596904Y-126761792D02*
X78406428Y-126857030D01*
X78406428Y-126857030D02*
X77930237Y-126857030D01*
X77930237Y-126857030D02*
X77739761Y-126761792D01*
X77739761Y-126761792D02*
X77644523Y-126571315D01*
X77644523Y-126571315D02*
X77644523Y-126380839D01*
X77644523Y-126380839D02*
X77739761Y-126190363D01*
X77739761Y-126190363D02*
X77930237Y-126095125D01*
X77930237Y-126095125D02*
X78406428Y-126095125D01*
X78406428Y-126095125D02*
X78596904Y-125999887D01*
X80406428Y-126761792D02*
X80215952Y-126857030D01*
X80215952Y-126857030D02*
X79834999Y-126857030D01*
X79834999Y-126857030D02*
X79644523Y-126761792D01*
X79644523Y-126761792D02*
X79549285Y-126666553D01*
X79549285Y-126666553D02*
X79454047Y-126476077D01*
X79454047Y-126476077D02*
X79454047Y-125904649D01*
X79454047Y-125904649D02*
X79549285Y-125714172D01*
X79549285Y-125714172D02*
X79644523Y-125618934D01*
X79644523Y-125618934D02*
X79834999Y-125523696D01*
X79834999Y-125523696D02*
X80215952Y-125523696D01*
X80215952Y-125523696D02*
X80406428Y-125618934D01*
X81263571Y-126857030D02*
X81263571Y-124857030D01*
X81454047Y-126095125D02*
X82025476Y-126857030D01*
X82025476Y-125523696D02*
X81263571Y-126285601D01*
D10*
X217813095Y-69346819D02*
X218384523Y-69346819D01*
X218098809Y-70346819D02*
X218098809Y-69346819D01*
X218717857Y-70346819D02*
X218717857Y-69346819D01*
X218717857Y-69346819D02*
X219098809Y-69346819D01*
X219098809Y-69346819D02*
X219194047Y-69394438D01*
X219194047Y-69394438D02*
X219241666Y-69442057D01*
X219241666Y-69442057D02*
X219289285Y-69537295D01*
X219289285Y-69537295D02*
X219289285Y-69680152D01*
X219289285Y-69680152D02*
X219241666Y-69775390D01*
X219241666Y-69775390D02*
X219194047Y-69823009D01*
X219194047Y-69823009D02*
X219098809Y-69870628D01*
X219098809Y-69870628D02*
X218717857Y-69870628D01*
X220241666Y-70346819D02*
X219670238Y-70346819D01*
X219955952Y-70346819D02*
X219955952Y-69346819D01*
X219955952Y-69346819D02*
X219860714Y-69489676D01*
X219860714Y-69489676D02*
X219765476Y-69584914D01*
X219765476Y-69584914D02*
X219670238Y-69632533D01*
D14*
X197862857Y-40420764D02*
X197729524Y-40230288D01*
X197634286Y-40420764D02*
X197634286Y-40020764D01*
X197634286Y-40020764D02*
X197786667Y-40020764D01*
X197786667Y-40020764D02*
X197824762Y-40039812D01*
X197824762Y-40039812D02*
X197843809Y-40058859D01*
X197843809Y-40058859D02*
X197862857Y-40096955D01*
X197862857Y-40096955D02*
X197862857Y-40154097D01*
X197862857Y-40154097D02*
X197843809Y-40192193D01*
X197843809Y-40192193D02*
X197824762Y-40211240D01*
X197824762Y-40211240D02*
X197786667Y-40230288D01*
X197786667Y-40230288D02*
X197634286Y-40230288D01*
X198243809Y-40420764D02*
X198015238Y-40420764D01*
X198129524Y-40420764D02*
X198129524Y-40020764D01*
X198129524Y-40020764D02*
X198091428Y-40077907D01*
X198091428Y-40077907D02*
X198053333Y-40116002D01*
X198053333Y-40116002D02*
X198015238Y-40135050D01*
X198377142Y-40020764D02*
X198624761Y-40020764D01*
X198624761Y-40020764D02*
X198491428Y-40173145D01*
X198491428Y-40173145D02*
X198548571Y-40173145D01*
X198548571Y-40173145D02*
X198586666Y-40192193D01*
X198586666Y-40192193D02*
X198605714Y-40211240D01*
X198605714Y-40211240D02*
X198624761Y-40249336D01*
X198624761Y-40249336D02*
X198624761Y-40344574D01*
X198624761Y-40344574D02*
X198605714Y-40382669D01*
X198605714Y-40382669D02*
X198586666Y-40401717D01*
X198586666Y-40401717D02*
X198548571Y-40420764D01*
X198548571Y-40420764D02*
X198434285Y-40420764D01*
X198434285Y-40420764D02*
X198396190Y-40401717D01*
X198396190Y-40401717D02*
X198377142Y-40382669D01*
X180567149Y-103588333D02*
X180329054Y-103754999D01*
X180567149Y-103874047D02*
X180067149Y-103874047D01*
X180067149Y-103874047D02*
X180067149Y-103683571D01*
X180067149Y-103683571D02*
X180090959Y-103635952D01*
X180090959Y-103635952D02*
X180114768Y-103612142D01*
X180114768Y-103612142D02*
X180162387Y-103588333D01*
X180162387Y-103588333D02*
X180233816Y-103588333D01*
X180233816Y-103588333D02*
X180281435Y-103612142D01*
X180281435Y-103612142D02*
X180305244Y-103635952D01*
X180305244Y-103635952D02*
X180329054Y-103683571D01*
X180329054Y-103683571D02*
X180329054Y-103874047D01*
X180067149Y-103159761D02*
X180067149Y-103254999D01*
X180067149Y-103254999D02*
X180090959Y-103302618D01*
X180090959Y-103302618D02*
X180114768Y-103326428D01*
X180114768Y-103326428D02*
X180186197Y-103374047D01*
X180186197Y-103374047D02*
X180281435Y-103397856D01*
X180281435Y-103397856D02*
X180471911Y-103397856D01*
X180471911Y-103397856D02*
X180519530Y-103374047D01*
X180519530Y-103374047D02*
X180543340Y-103350237D01*
X180543340Y-103350237D02*
X180567149Y-103302618D01*
X180567149Y-103302618D02*
X180567149Y-103207380D01*
X180567149Y-103207380D02*
X180543340Y-103159761D01*
X180543340Y-103159761D02*
X180519530Y-103135952D01*
X180519530Y-103135952D02*
X180471911Y-103112142D01*
X180471911Y-103112142D02*
X180352863Y-103112142D01*
X180352863Y-103112142D02*
X180305244Y-103135952D01*
X180305244Y-103135952D02*
X180281435Y-103159761D01*
X180281435Y-103159761D02*
X180257625Y-103207380D01*
X180257625Y-103207380D02*
X180257625Y-103302618D01*
X180257625Y-103302618D02*
X180281435Y-103350237D01*
X180281435Y-103350237D02*
X180305244Y-103374047D01*
X180305244Y-103374047D02*
X180352863Y-103397856D01*
D11*
X96821904Y-126761792D02*
X97107618Y-126857030D01*
X97107618Y-126857030D02*
X97583809Y-126857030D01*
X97583809Y-126857030D02*
X97774285Y-126761792D01*
X97774285Y-126761792D02*
X97869523Y-126666553D01*
X97869523Y-126666553D02*
X97964761Y-126476077D01*
X97964761Y-126476077D02*
X97964761Y-126285601D01*
X97964761Y-126285601D02*
X97869523Y-126095125D01*
X97869523Y-126095125D02*
X97774285Y-125999887D01*
X97774285Y-125999887D02*
X97583809Y-125904649D01*
X97583809Y-125904649D02*
X97202856Y-125809411D01*
X97202856Y-125809411D02*
X97012380Y-125714172D01*
X97012380Y-125714172D02*
X96917142Y-125618934D01*
X96917142Y-125618934D02*
X96821904Y-125428458D01*
X96821904Y-125428458D02*
X96821904Y-125237982D01*
X96821904Y-125237982D02*
X96917142Y-125047506D01*
X96917142Y-125047506D02*
X97012380Y-124952268D01*
X97012380Y-124952268D02*
X97202856Y-124857030D01*
X97202856Y-124857030D02*
X97679047Y-124857030D01*
X97679047Y-124857030D02*
X97964761Y-124952268D01*
X99583809Y-126761792D02*
X99393333Y-126857030D01*
X99393333Y-126857030D02*
X99012380Y-126857030D01*
X99012380Y-126857030D02*
X98821904Y-126761792D01*
X98821904Y-126761792D02*
X98726666Y-126571315D01*
X98726666Y-126571315D02*
X98726666Y-125809411D01*
X98726666Y-125809411D02*
X98821904Y-125618934D01*
X98821904Y-125618934D02*
X99012380Y-125523696D01*
X99012380Y-125523696D02*
X99393333Y-125523696D01*
X99393333Y-125523696D02*
X99583809Y-125618934D01*
X99583809Y-125618934D02*
X99679047Y-125809411D01*
X99679047Y-125809411D02*
X99679047Y-125999887D01*
X99679047Y-125999887D02*
X98726666Y-126190363D01*
X100821904Y-126857030D02*
X100631428Y-126761792D01*
X100631428Y-126761792D02*
X100536190Y-126571315D01*
X100536190Y-126571315D02*
X100536190Y-124857030D01*
X102345714Y-126761792D02*
X102155238Y-126857030D01*
X102155238Y-126857030D02*
X101774285Y-126857030D01*
X101774285Y-126857030D02*
X101583809Y-126761792D01*
X101583809Y-126761792D02*
X101488571Y-126571315D01*
X101488571Y-126571315D02*
X101488571Y-125809411D01*
X101488571Y-125809411D02*
X101583809Y-125618934D01*
X101583809Y-125618934D02*
X101774285Y-125523696D01*
X101774285Y-125523696D02*
X102155238Y-125523696D01*
X102155238Y-125523696D02*
X102345714Y-125618934D01*
X102345714Y-125618934D02*
X102440952Y-125809411D01*
X102440952Y-125809411D02*
X102440952Y-125999887D01*
X102440952Y-125999887D02*
X101488571Y-126190363D01*
X104155238Y-126761792D02*
X103964762Y-126857030D01*
X103964762Y-126857030D02*
X103583809Y-126857030D01*
X103583809Y-126857030D02*
X103393333Y-126761792D01*
X103393333Y-126761792D02*
X103298095Y-126666553D01*
X103298095Y-126666553D02*
X103202857Y-126476077D01*
X103202857Y-126476077D02*
X103202857Y-125904649D01*
X103202857Y-125904649D02*
X103298095Y-125714172D01*
X103298095Y-125714172D02*
X103393333Y-125618934D01*
X103393333Y-125618934D02*
X103583809Y-125523696D01*
X103583809Y-125523696D02*
X103964762Y-125523696D01*
X103964762Y-125523696D02*
X104155238Y-125618934D01*
X104726667Y-125523696D02*
X105488571Y-125523696D01*
X105012381Y-124857030D02*
X105012381Y-126571315D01*
X105012381Y-126571315D02*
X105107619Y-126761792D01*
X105107619Y-126761792D02*
X105298095Y-126857030D01*
X105298095Y-126857030D02*
X105488571Y-126857030D01*
D10*
X71738095Y-42954819D02*
X71738095Y-41954819D01*
X71738095Y-42431009D02*
X72309523Y-42431009D01*
X72309523Y-42954819D02*
X72309523Y-41954819D01*
X73214285Y-42288152D02*
X73214285Y-42954819D01*
X72976190Y-41907200D02*
X72738095Y-42621485D01*
X72738095Y-42621485D02*
X73357142Y-42621485D01*
X209216666Y-73506009D02*
X208883333Y-73506009D01*
X208883333Y-74029819D02*
X208883333Y-73029819D01*
X208883333Y-73029819D02*
X209359523Y-73029819D01*
X210264285Y-74029819D02*
X209692857Y-74029819D01*
X209978571Y-74029819D02*
X209978571Y-73029819D01*
X209978571Y-73029819D02*
X209883333Y-73172676D01*
X209883333Y-73172676D02*
X209788095Y-73267914D01*
X209788095Y-73267914D02*
X209692857Y-73315533D01*
X186658095Y-68669819D02*
X186658095Y-69479342D01*
X186658095Y-69479342D02*
X186705714Y-69574580D01*
X186705714Y-69574580D02*
X186753333Y-69622200D01*
X186753333Y-69622200D02*
X186848571Y-69669819D01*
X186848571Y-69669819D02*
X187039047Y-69669819D01*
X187039047Y-69669819D02*
X187134285Y-69622200D01*
X187134285Y-69622200D02*
X187181904Y-69574580D01*
X187181904Y-69574580D02*
X187229523Y-69479342D01*
X187229523Y-69479342D02*
X187229523Y-68669819D01*
X187658095Y-68765057D02*
X187705714Y-68717438D01*
X187705714Y-68717438D02*
X187800952Y-68669819D01*
X187800952Y-68669819D02*
X188039047Y-68669819D01*
X188039047Y-68669819D02*
X188134285Y-68717438D01*
X188134285Y-68717438D02*
X188181904Y-68765057D01*
X188181904Y-68765057D02*
X188229523Y-68860295D01*
X188229523Y-68860295D02*
X188229523Y-68955533D01*
X188229523Y-68955533D02*
X188181904Y-69098390D01*
X188181904Y-69098390D02*
X187610476Y-69669819D01*
X187610476Y-69669819D02*
X188229523Y-69669819D01*
D16*
X196297857Y-98712664D02*
X196259761Y-98750760D01*
X196259761Y-98750760D02*
X196145476Y-98788855D01*
X196145476Y-98788855D02*
X196069285Y-98788855D01*
X196069285Y-98788855D02*
X195954999Y-98750760D01*
X195954999Y-98750760D02*
X195878809Y-98674569D01*
X195878809Y-98674569D02*
X195840714Y-98598379D01*
X195840714Y-98598379D02*
X195802618Y-98445998D01*
X195802618Y-98445998D02*
X195802618Y-98331712D01*
X195802618Y-98331712D02*
X195840714Y-98179331D01*
X195840714Y-98179331D02*
X195878809Y-98103140D01*
X195878809Y-98103140D02*
X195954999Y-98026950D01*
X195954999Y-98026950D02*
X196069285Y-97988855D01*
X196069285Y-97988855D02*
X196145476Y-97988855D01*
X196145476Y-97988855D02*
X196259761Y-98026950D01*
X196259761Y-98026950D02*
X196297857Y-98065045D01*
X197059761Y-98788855D02*
X196602618Y-98788855D01*
X196831190Y-98788855D02*
X196831190Y-97988855D01*
X196831190Y-97988855D02*
X196754999Y-98103140D01*
X196754999Y-98103140D02*
X196678809Y-98179331D01*
X196678809Y-98179331D02*
X196602618Y-98217426D01*
D14*
X199213387Y-49749642D02*
X199022911Y-49882975D01*
X199213387Y-49978213D02*
X198813387Y-49978213D01*
X198813387Y-49978213D02*
X198813387Y-49825832D01*
X198813387Y-49825832D02*
X198832435Y-49787737D01*
X198832435Y-49787737D02*
X198851482Y-49768690D01*
X198851482Y-49768690D02*
X198889578Y-49749642D01*
X198889578Y-49749642D02*
X198946720Y-49749642D01*
X198946720Y-49749642D02*
X198984816Y-49768690D01*
X198984816Y-49768690D02*
X199003863Y-49787737D01*
X199003863Y-49787737D02*
X199022911Y-49825832D01*
X199022911Y-49825832D02*
X199022911Y-49978213D01*
X199213387Y-49368690D02*
X199213387Y-49597261D01*
X199213387Y-49482975D02*
X198813387Y-49482975D01*
X198813387Y-49482975D02*
X198870530Y-49521071D01*
X198870530Y-49521071D02*
X198908625Y-49559166D01*
X198908625Y-49559166D02*
X198927673Y-49597261D01*
X198813387Y-49025833D02*
X198813387Y-49102023D01*
X198813387Y-49102023D02*
X198832435Y-49140119D01*
X198832435Y-49140119D02*
X198851482Y-49159166D01*
X198851482Y-49159166D02*
X198908625Y-49197261D01*
X198908625Y-49197261D02*
X198984816Y-49216309D01*
X198984816Y-49216309D02*
X199137197Y-49216309D01*
X199137197Y-49216309D02*
X199175292Y-49197261D01*
X199175292Y-49197261D02*
X199194340Y-49178214D01*
X199194340Y-49178214D02*
X199213387Y-49140119D01*
X199213387Y-49140119D02*
X199213387Y-49063928D01*
X199213387Y-49063928D02*
X199194340Y-49025833D01*
X199194340Y-49025833D02*
X199175292Y-49006785D01*
X199175292Y-49006785D02*
X199137197Y-48987738D01*
X199137197Y-48987738D02*
X199041959Y-48987738D01*
X199041959Y-48987738D02*
X199003863Y-49006785D01*
X199003863Y-49006785D02*
X198984816Y-49025833D01*
X198984816Y-49025833D02*
X198965768Y-49063928D01*
X198965768Y-49063928D02*
X198965768Y-49140119D01*
X198965768Y-49140119D02*
X198984816Y-49178214D01*
X198984816Y-49178214D02*
X199003863Y-49197261D01*
X199003863Y-49197261D02*
X199041959Y-49216309D01*
X115598333Y-117235887D02*
X115465000Y-117045411D01*
X115369762Y-117235887D02*
X115369762Y-116835887D01*
X115369762Y-116835887D02*
X115522143Y-116835887D01*
X115522143Y-116835887D02*
X115560238Y-116854935D01*
X115560238Y-116854935D02*
X115579285Y-116873982D01*
X115579285Y-116873982D02*
X115598333Y-116912078D01*
X115598333Y-116912078D02*
X115598333Y-116969220D01*
X115598333Y-116969220D02*
X115579285Y-117007316D01*
X115579285Y-117007316D02*
X115560238Y-117026363D01*
X115560238Y-117026363D02*
X115522143Y-117045411D01*
X115522143Y-117045411D02*
X115369762Y-117045411D01*
X115979285Y-117235887D02*
X115750714Y-117235887D01*
X115865000Y-117235887D02*
X115865000Y-116835887D01*
X115865000Y-116835887D02*
X115826904Y-116893030D01*
X115826904Y-116893030D02*
X115788809Y-116931125D01*
X115788809Y-116931125D02*
X115750714Y-116950173D01*
D10*
X211756666Y-91549819D02*
X211756666Y-92264104D01*
X211756666Y-92264104D02*
X211709047Y-92406961D01*
X211709047Y-92406961D02*
X211613809Y-92502200D01*
X211613809Y-92502200D02*
X211470952Y-92549819D01*
X211470952Y-92549819D02*
X211375714Y-92549819D01*
X212756666Y-92549819D02*
X212185238Y-92549819D01*
X212470952Y-92549819D02*
X212470952Y-91549819D01*
X212470952Y-91549819D02*
X212375714Y-91692676D01*
X212375714Y-91692676D02*
X212280476Y-91787914D01*
X212280476Y-91787914D02*
X212185238Y-91835533D01*
X115498333Y-108619819D02*
X115165000Y-108143628D01*
X114926905Y-108619819D02*
X114926905Y-107619819D01*
X114926905Y-107619819D02*
X115307857Y-107619819D01*
X115307857Y-107619819D02*
X115403095Y-107667438D01*
X115403095Y-107667438D02*
X115450714Y-107715057D01*
X115450714Y-107715057D02*
X115498333Y-107810295D01*
X115498333Y-107810295D02*
X115498333Y-107953152D01*
X115498333Y-107953152D02*
X115450714Y-108048390D01*
X115450714Y-108048390D02*
X115403095Y-108096009D01*
X115403095Y-108096009D02*
X115307857Y-108143628D01*
X115307857Y-108143628D02*
X114926905Y-108143628D01*
X116403095Y-107619819D02*
X115926905Y-107619819D01*
X115926905Y-107619819D02*
X115879286Y-108096009D01*
X115879286Y-108096009D02*
X115926905Y-108048390D01*
X115926905Y-108048390D02*
X116022143Y-108000771D01*
X116022143Y-108000771D02*
X116260238Y-108000771D01*
X116260238Y-108000771D02*
X116355476Y-108048390D01*
X116355476Y-108048390D02*
X116403095Y-108096009D01*
X116403095Y-108096009D02*
X116450714Y-108191247D01*
X116450714Y-108191247D02*
X116450714Y-108429342D01*
X116450714Y-108429342D02*
X116403095Y-108524580D01*
X116403095Y-108524580D02*
X116355476Y-108572200D01*
X116355476Y-108572200D02*
X116260238Y-108619819D01*
X116260238Y-108619819D02*
X116022143Y-108619819D01*
X116022143Y-108619819D02*
X115926905Y-108572200D01*
X115926905Y-108572200D02*
X115879286Y-108524580D01*
D14*
X193220887Y-53406666D02*
X193030411Y-53539999D01*
X193220887Y-53635237D02*
X192820887Y-53635237D01*
X192820887Y-53635237D02*
X192820887Y-53482856D01*
X192820887Y-53482856D02*
X192839935Y-53444761D01*
X192839935Y-53444761D02*
X192858982Y-53425714D01*
X192858982Y-53425714D02*
X192897078Y-53406666D01*
X192897078Y-53406666D02*
X192954220Y-53406666D01*
X192954220Y-53406666D02*
X192992316Y-53425714D01*
X192992316Y-53425714D02*
X193011363Y-53444761D01*
X193011363Y-53444761D02*
X193030411Y-53482856D01*
X193030411Y-53482856D02*
X193030411Y-53635237D01*
X193220887Y-53216190D02*
X193220887Y-53139999D01*
X193220887Y-53139999D02*
X193201840Y-53101904D01*
X193201840Y-53101904D02*
X193182792Y-53082856D01*
X193182792Y-53082856D02*
X193125649Y-53044761D01*
X193125649Y-53044761D02*
X193049459Y-53025714D01*
X193049459Y-53025714D02*
X192897078Y-53025714D01*
X192897078Y-53025714D02*
X192858982Y-53044761D01*
X192858982Y-53044761D02*
X192839935Y-53063809D01*
X192839935Y-53063809D02*
X192820887Y-53101904D01*
X192820887Y-53101904D02*
X192820887Y-53178095D01*
X192820887Y-53178095D02*
X192839935Y-53216190D01*
X192839935Y-53216190D02*
X192858982Y-53235237D01*
X192858982Y-53235237D02*
X192897078Y-53254285D01*
X192897078Y-53254285D02*
X192992316Y-53254285D01*
X192992316Y-53254285D02*
X193030411Y-53235237D01*
X193030411Y-53235237D02*
X193049459Y-53216190D01*
X193049459Y-53216190D02*
X193068506Y-53178095D01*
X193068506Y-53178095D02*
X193068506Y-53101904D01*
X193068506Y-53101904D02*
X193049459Y-53063809D01*
X193049459Y-53063809D02*
X193030411Y-53044761D01*
X193030411Y-53044761D02*
X192992316Y-53025714D01*
D11*
X191897380Y-81677030D02*
X192278333Y-81677030D01*
X192278333Y-81677030D02*
X192468809Y-81772268D01*
X192468809Y-81772268D02*
X192659285Y-81962744D01*
X192659285Y-81962744D02*
X192754523Y-82343696D01*
X192754523Y-82343696D02*
X192754523Y-83010363D01*
X192754523Y-83010363D02*
X192659285Y-83391315D01*
X192659285Y-83391315D02*
X192468809Y-83581792D01*
X192468809Y-83581792D02*
X192278333Y-83677030D01*
X192278333Y-83677030D02*
X191897380Y-83677030D01*
X191897380Y-83677030D02*
X191706904Y-83581792D01*
X191706904Y-83581792D02*
X191516428Y-83391315D01*
X191516428Y-83391315D02*
X191421190Y-83010363D01*
X191421190Y-83010363D02*
X191421190Y-82343696D01*
X191421190Y-82343696D02*
X191516428Y-81962744D01*
X191516428Y-81962744D02*
X191706904Y-81772268D01*
X191706904Y-81772268D02*
X191897380Y-81677030D01*
X193611666Y-83677030D02*
X193611666Y-81677030D01*
X193611666Y-81677030D02*
X194754523Y-83677030D01*
X194754523Y-83677030D02*
X194754523Y-81677030D01*
X197135475Y-81581792D02*
X195421190Y-84153220D01*
X198183094Y-81677030D02*
X198564047Y-81677030D01*
X198564047Y-81677030D02*
X198754523Y-81772268D01*
X198754523Y-81772268D02*
X198944999Y-81962744D01*
X198944999Y-81962744D02*
X199040237Y-82343696D01*
X199040237Y-82343696D02*
X199040237Y-83010363D01*
X199040237Y-83010363D02*
X198944999Y-83391315D01*
X198944999Y-83391315D02*
X198754523Y-83581792D01*
X198754523Y-83581792D02*
X198564047Y-83677030D01*
X198564047Y-83677030D02*
X198183094Y-83677030D01*
X198183094Y-83677030D02*
X197992618Y-83581792D01*
X197992618Y-83581792D02*
X197802142Y-83391315D01*
X197802142Y-83391315D02*
X197706904Y-83010363D01*
X197706904Y-83010363D02*
X197706904Y-82343696D01*
X197706904Y-82343696D02*
X197802142Y-81962744D01*
X197802142Y-81962744D02*
X197992618Y-81772268D01*
X197992618Y-81772268D02*
X198183094Y-81677030D01*
X200564047Y-82629411D02*
X199897380Y-82629411D01*
X199897380Y-83677030D02*
X199897380Y-81677030D01*
X199897380Y-81677030D02*
X200849761Y-81677030D01*
X202278333Y-82629411D02*
X201611666Y-82629411D01*
X201611666Y-83677030D02*
X201611666Y-81677030D01*
X201611666Y-81677030D02*
X202564047Y-81677030D01*
D14*
X198982149Y-99429047D02*
X198482149Y-99429047D01*
X198482149Y-99429047D02*
X198482149Y-99309999D01*
X198482149Y-99309999D02*
X198505959Y-99238571D01*
X198505959Y-99238571D02*
X198553578Y-99190952D01*
X198553578Y-99190952D02*
X198601197Y-99167142D01*
X198601197Y-99167142D02*
X198696435Y-99143333D01*
X198696435Y-99143333D02*
X198767863Y-99143333D01*
X198767863Y-99143333D02*
X198863101Y-99167142D01*
X198863101Y-99167142D02*
X198910720Y-99190952D01*
X198910720Y-99190952D02*
X198958340Y-99238571D01*
X198958340Y-99238571D02*
X198982149Y-99309999D01*
X198982149Y-99309999D02*
X198982149Y-99429047D01*
X198982149Y-98667142D02*
X198982149Y-98952856D01*
X198982149Y-98809999D02*
X198482149Y-98809999D01*
X198482149Y-98809999D02*
X198553578Y-98857618D01*
X198553578Y-98857618D02*
X198601197Y-98905237D01*
X198601197Y-98905237D02*
X198625006Y-98952856D01*
D16*
X190582857Y-98712664D02*
X190544761Y-98750760D01*
X190544761Y-98750760D02*
X190430476Y-98788855D01*
X190430476Y-98788855D02*
X190354285Y-98788855D01*
X190354285Y-98788855D02*
X190239999Y-98750760D01*
X190239999Y-98750760D02*
X190163809Y-98674569D01*
X190163809Y-98674569D02*
X190125714Y-98598379D01*
X190125714Y-98598379D02*
X190087618Y-98445998D01*
X190087618Y-98445998D02*
X190087618Y-98331712D01*
X190087618Y-98331712D02*
X190125714Y-98179331D01*
X190125714Y-98179331D02*
X190163809Y-98103140D01*
X190163809Y-98103140D02*
X190239999Y-98026950D01*
X190239999Y-98026950D02*
X190354285Y-97988855D01*
X190354285Y-97988855D02*
X190430476Y-97988855D01*
X190430476Y-97988855D02*
X190544761Y-98026950D01*
X190544761Y-98026950D02*
X190582857Y-98065045D01*
X190849523Y-97988855D02*
X191344761Y-97988855D01*
X191344761Y-97988855D02*
X191078095Y-98293617D01*
X191078095Y-98293617D02*
X191192380Y-98293617D01*
X191192380Y-98293617D02*
X191268571Y-98331712D01*
X191268571Y-98331712D02*
X191306666Y-98369807D01*
X191306666Y-98369807D02*
X191344761Y-98445998D01*
X191344761Y-98445998D02*
X191344761Y-98636474D01*
X191344761Y-98636474D02*
X191306666Y-98712664D01*
X191306666Y-98712664D02*
X191268571Y-98750760D01*
X191268571Y-98750760D02*
X191192380Y-98788855D01*
X191192380Y-98788855D02*
X190963809Y-98788855D01*
X190963809Y-98788855D02*
X190887618Y-98750760D01*
X190887618Y-98750760D02*
X190849523Y-98712664D01*
D14*
X200576666Y-97659649D02*
X200410000Y-97421554D01*
X200290952Y-97659649D02*
X200290952Y-97159649D01*
X200290952Y-97159649D02*
X200481428Y-97159649D01*
X200481428Y-97159649D02*
X200529047Y-97183459D01*
X200529047Y-97183459D02*
X200552857Y-97207268D01*
X200552857Y-97207268D02*
X200576666Y-97254887D01*
X200576666Y-97254887D02*
X200576666Y-97326316D01*
X200576666Y-97326316D02*
X200552857Y-97373935D01*
X200552857Y-97373935D02*
X200529047Y-97397744D01*
X200529047Y-97397744D02*
X200481428Y-97421554D01*
X200481428Y-97421554D02*
X200290952Y-97421554D01*
X200743333Y-97159649D02*
X201076666Y-97159649D01*
X201076666Y-97159649D02*
X200862381Y-97659649D01*
D10*
X211738095Y-42954819D02*
X211738095Y-41954819D01*
X211738095Y-42431009D02*
X212309523Y-42431009D01*
X212309523Y-42954819D02*
X212309523Y-41954819D01*
X212738095Y-42050057D02*
X212785714Y-42002438D01*
X212785714Y-42002438D02*
X212880952Y-41954819D01*
X212880952Y-41954819D02*
X213119047Y-41954819D01*
X213119047Y-41954819D02*
X213214285Y-42002438D01*
X213214285Y-42002438D02*
X213261904Y-42050057D01*
X213261904Y-42050057D02*
X213309523Y-42145295D01*
X213309523Y-42145295D02*
X213309523Y-42240533D01*
X213309523Y-42240533D02*
X213261904Y-42383390D01*
X213261904Y-42383390D02*
X212690476Y-42954819D01*
X212690476Y-42954819D02*
X213309523Y-42954819D01*
D16*
%TO.C,R4*%
X115700436Y-113565000D02*
X116154564Y-113565000D01*
X115700436Y-115035000D02*
X116154564Y-115035000D01*
%TO.C,TP2*%
X192835000Y-137795000D02*
G75*
G03*
X192835000Y-137795000I-1700000J0D01*
G01*
%TO.C,J2*%
X70670000Y-49670000D02*
X72000000Y-49670000D01*
X70670000Y-51000000D02*
X70670000Y-49670000D01*
X70670000Y-52270000D02*
X70670000Y-85350000D01*
X70670000Y-52270000D02*
X73330000Y-52270000D01*
X70670000Y-85350000D02*
X73330000Y-85350000D01*
X73330000Y-52270000D02*
X73330000Y-85350000D01*
X154970000Y-62370000D02*
X156300000Y-62370000D01*
X154970000Y-63700000D02*
X154970000Y-62370000D01*
X154970000Y-64970000D02*
X154970000Y-72650000D01*
X154970000Y-64970000D02*
X157630000Y-64970000D01*
X154970000Y-72650000D02*
X157630000Y-72650000D01*
X157630000Y-64970000D02*
X157630000Y-72650000D01*
D13*
X70186000Y-39502000D02*
X159486000Y-39502000D01*
X159486000Y-39502000D02*
X159486000Y-94502000D01*
X159486000Y-94502000D02*
X70186000Y-94502000D01*
X70186000Y-94502000D02*
X70186000Y-39502000D01*
D16*
%TO.C,TP4*%
X220775000Y-78105000D02*
G75*
G03*
X220775000Y-78105000I-1700000J0D01*
G01*
%TO.C,C5*%
X201311248Y-42445000D02*
X201833752Y-42445000D01*
X201311248Y-43915000D02*
X201833752Y-43915000D01*
%TO.C,G\u002A\u002A\u002A*%
G36*
X84324842Y-127495254D02*
G01*
X84340292Y-127629352D01*
X84342336Y-127648667D01*
X84428087Y-128142483D01*
X84582253Y-128631493D01*
X84807643Y-129122873D01*
X85107063Y-129623801D01*
X85126412Y-129652781D01*
X85255402Y-129839730D01*
X85390844Y-130024528D01*
X85538643Y-130213888D01*
X85704705Y-130414525D01*
X85894937Y-130633153D01*
X86115244Y-130876485D01*
X86371532Y-131151236D01*
X86669706Y-131464119D01*
X87015672Y-131821849D01*
X87207593Y-132018781D01*
X87656429Y-132483695D01*
X88048911Y-132902708D01*
X88388567Y-133281270D01*
X88678925Y-133624829D01*
X88923511Y-133938832D01*
X89125853Y-134228727D01*
X89289478Y-134499964D01*
X89417914Y-134757991D01*
X89514689Y-135008255D01*
X89583328Y-135256205D01*
X89627361Y-135507290D01*
X89650313Y-135766957D01*
X89651590Y-135793723D01*
X89648464Y-136184995D01*
X89598214Y-136537524D01*
X89495388Y-136879543D01*
X89397210Y-137110800D01*
X89167387Y-137514827D01*
X88881622Y-137868645D01*
X88546370Y-138166805D01*
X88168088Y-138403858D01*
X87753232Y-138574353D01*
X87617465Y-138613031D01*
X87384675Y-138654016D01*
X87106672Y-138674507D01*
X86813856Y-138674499D01*
X86536629Y-138653984D01*
X86306859Y-138613333D01*
X85928925Y-138482416D01*
X85567154Y-138293069D01*
X85235482Y-138055915D01*
X84947847Y-137781577D01*
X84718184Y-137480678D01*
X84638665Y-137341782D01*
X84584873Y-137245155D01*
X84560434Y-137220977D01*
X84565395Y-137268464D01*
X84599801Y-137386831D01*
X84630600Y-137479826D01*
X84801434Y-137904521D01*
X85012626Y-138279776D01*
X85279511Y-138630955D01*
X85420493Y-138786447D01*
X85762171Y-139105162D01*
X86128847Y-139363837D01*
X86532631Y-139568918D01*
X86985635Y-139726850D01*
X87355363Y-139816276D01*
X87710332Y-139888937D01*
X84318406Y-139889148D01*
X83809795Y-139889010D01*
X83325190Y-139888547D01*
X82870195Y-139887783D01*
X82450417Y-139886745D01*
X82071463Y-139885456D01*
X81738938Y-139883941D01*
X81458448Y-139882226D01*
X81235599Y-139880334D01*
X81075998Y-139878291D01*
X80985250Y-139876121D01*
X80965922Y-139874336D01*
X81020672Y-139861254D01*
X81132722Y-139839308D01*
X81281541Y-139812445D01*
X81343431Y-139801774D01*
X81837099Y-139678942D01*
X82298864Y-139486336D01*
X82723234Y-139228509D01*
X83104722Y-138910015D01*
X83437836Y-138535406D01*
X83717088Y-138109238D01*
X83928894Y-137657145D01*
X83987090Y-137500363D01*
X84029707Y-137372616D01*
X84051501Y-137290449D01*
X84051884Y-137269178D01*
X84023287Y-137289077D01*
X83969930Y-137361003D01*
X83921689Y-137438603D01*
X83727669Y-137709853D01*
X83474812Y-137971655D01*
X83182851Y-138207541D01*
X82871519Y-138401042D01*
X82642164Y-138506528D01*
X82422401Y-138584721D01*
X82228142Y-138635649D01*
X82029689Y-138664487D01*
X81797342Y-138676412D01*
X81660139Y-138677649D01*
X81383604Y-138671447D01*
X81157175Y-138648581D01*
X80952751Y-138602658D01*
X80742228Y-138527286D01*
X80497504Y-138416074D01*
X80486343Y-138410661D01*
X80090137Y-138176316D01*
X79748480Y-137885697D01*
X79463012Y-137541039D01*
X79263680Y-137193878D01*
X84062040Y-137193878D01*
X84081760Y-137213599D01*
X84101481Y-137193878D01*
X84081760Y-137174158D01*
X84062040Y-137193878D01*
X79263680Y-137193878D01*
X79235371Y-137144574D01*
X79067195Y-136698535D01*
X78987866Y-136369236D01*
X78948411Y-135984543D01*
X78976995Y-135591676D01*
X79074748Y-135187838D01*
X79242796Y-134770230D01*
X79482268Y-134336057D01*
X79794292Y-133882520D01*
X80179996Y-133406822D01*
X80184484Y-133401650D01*
X80295570Y-133277016D01*
X80452420Y-133105749D01*
X80645764Y-132897732D01*
X80866335Y-132662846D01*
X81104864Y-132410972D01*
X81352083Y-132151993D01*
X81534719Y-131962053D01*
X81933820Y-131545328D01*
X82280920Y-131175758D01*
X82581583Y-130846569D01*
X82841372Y-130550984D01*
X83065852Y-130282229D01*
X83260587Y-130033528D01*
X83431141Y-129798105D01*
X83583079Y-129569186D01*
X83721963Y-129339995D01*
X83797177Y-129207077D01*
X83946252Y-128901997D01*
X84078057Y-128564206D01*
X84185720Y-128216550D01*
X84262366Y-127881876D01*
X84301124Y-127583029D01*
X84303932Y-127522637D01*
X84307865Y-127445844D01*
X84314434Y-127435400D01*
X84324842Y-127495254D01*
G37*
%TO.C,J4*%
X208655000Y-51925736D02*
X208955000Y-52350000D01*
X208955000Y-52350000D02*
X209255000Y-51925736D01*
X209255000Y-51925736D02*
X208655000Y-51925736D01*
X212565000Y-53310000D02*
X212565000Y-53610000D01*
X212565000Y-53610000D02*
X213265000Y-53610000D01*
X212565000Y-55810000D02*
X212565000Y-56110000D01*
X212565000Y-56110000D02*
X213265000Y-56110000D01*
X212565000Y-58310000D02*
X212565000Y-58610000D01*
X212565000Y-58610000D02*
X213265000Y-58610000D01*
X212565000Y-60810000D02*
X212565000Y-61110000D01*
X212565000Y-61110000D02*
X213265000Y-61110000D01*
X212565000Y-63310000D02*
X212565000Y-63610000D01*
X212565000Y-63610000D02*
X213265000Y-63610000D01*
X212565000Y-65810000D02*
X212565000Y-66110000D01*
X212565000Y-66110000D02*
X213265000Y-66110000D01*
X213265000Y-51630000D02*
X213265000Y-67790000D01*
X213265000Y-53310000D02*
X212565000Y-53310000D01*
X213265000Y-53610000D02*
X213265000Y-53310000D01*
X213265000Y-55810000D02*
X212565000Y-55810000D01*
X213265000Y-56110000D02*
X213265000Y-55810000D01*
X213265000Y-58310000D02*
X212565000Y-58310000D01*
X213265000Y-58610000D02*
X213265000Y-58310000D01*
X213265000Y-60810000D02*
X212565000Y-60810000D01*
X213265000Y-61110000D02*
X213265000Y-60810000D01*
X213265000Y-63310000D02*
X212565000Y-63310000D01*
X213265000Y-63610000D02*
X213265000Y-63310000D01*
X213265000Y-65810000D02*
X212565000Y-65810000D01*
X213265000Y-66110000D02*
X213265000Y-65810000D01*
X213265000Y-67790000D02*
X221945000Y-67790000D01*
X221945000Y-51630000D02*
X213265000Y-51630000D01*
X221945000Y-67790000D02*
X221945000Y-51630000D01*
%TO.C,R10*%
X197712064Y-57250000D02*
X197257936Y-57250000D01*
X197712064Y-55780000D02*
X197257936Y-55780000D01*
%TO.C,D2*%
X204780000Y-88680000D02*
X206700000Y-88680000D01*
X206700000Y-88680000D02*
X206700000Y-85995000D01*
X204780000Y-85995000D02*
X204780000Y-88680000D01*
%TO.C,TP5*%
X184580000Y-137795000D02*
G75*
G03*
X184580000Y-137795000I-1700000J0D01*
G01*
%TO.C,R14*%
X196828510Y-48295790D02*
X197282638Y-48295790D01*
X196828510Y-49765790D02*
X197282638Y-49765790D01*
D17*
%TO.C,Encoder*%
X139037600Y-108099600D02*
X133784852Y-108099600D01*
X130325372Y-108099600D02*
X124572300Y-108099600D01*
X124572300Y-108099600D02*
X124572300Y-110842292D01*
X139037600Y-110842294D02*
X139037600Y-108099600D01*
X124572300Y-113107708D02*
X124572300Y-113342292D01*
X139037600Y-113823992D02*
X139037600Y-113107706D01*
X124572300Y-115607708D02*
X124572300Y-115842292D01*
X139037600Y-115842294D02*
X139037600Y-113823992D01*
X124572300Y-118107708D02*
X124572300Y-120850400D01*
X139037600Y-120850400D02*
X139037600Y-118107707D01*
X133784852Y-120850400D02*
X139037600Y-120850400D01*
X124572300Y-120850400D02*
X130325372Y-120850400D01*
D16*
%TO.C,RV1*%
X196815000Y-122600000D02*
X199490000Y-122600000D01*
X196815000Y-122600000D02*
X196815000Y-109860000D01*
X201800000Y-122600000D02*
X202030000Y-122600000D01*
X204341000Y-122600000D02*
X204570000Y-122600000D01*
X206880000Y-122600000D02*
X209555000Y-122600000D01*
X209555000Y-122600000D02*
X209555000Y-109860000D01*
X196815000Y-109860000D02*
X209555000Y-109860000D01*
%TO.C,J7*%
X189640736Y-46175000D02*
X190065000Y-45875000D01*
X190065000Y-45875000D02*
X189640736Y-45575000D01*
X189640736Y-45575000D02*
X189640736Y-46175000D01*
X191025000Y-42265000D02*
X191325000Y-42265000D01*
X191325000Y-42265000D02*
X191325000Y-41565000D01*
X193525000Y-42265000D02*
X193825000Y-42265000D01*
X193825000Y-42265000D02*
X193825000Y-41565000D01*
X189345000Y-41565000D02*
X195505000Y-41565000D01*
X191025000Y-41565000D02*
X191025000Y-42265000D01*
X191325000Y-41565000D02*
X191025000Y-41565000D01*
X193525000Y-41565000D02*
X193525000Y-42265000D01*
X193825000Y-41565000D02*
X193525000Y-41565000D01*
X195505000Y-41565000D02*
X195505000Y-32885000D01*
X189345000Y-32885000D02*
X189345000Y-41565000D01*
X195505000Y-32885000D02*
X189345000Y-32885000D01*
%TO.C,G\u002A\u002A\u002A*%
G36*
X105208043Y-131769908D02*
G01*
X105246800Y-131783922D01*
X105250914Y-131793501D01*
X105247143Y-131819850D01*
X105236428Y-131885418D01*
X105219670Y-131985034D01*
X105197772Y-132113530D01*
X105171634Y-132265736D01*
X105142158Y-132436483D01*
X105110246Y-132620602D01*
X105076800Y-132812923D01*
X105042721Y-133008277D01*
X105008911Y-133201495D01*
X104976271Y-133387408D01*
X104945704Y-133560846D01*
X104918110Y-133716640D01*
X104894392Y-133849621D01*
X104875450Y-133954620D01*
X104862187Y-134026466D01*
X104855844Y-134058541D01*
X104844055Y-134087973D01*
X104817903Y-134103194D01*
X104765377Y-134108715D01*
X104720839Y-134109251D01*
X104653080Y-134106462D01*
X104608214Y-134099270D01*
X104597316Y-134092347D01*
X104601124Y-134067515D01*
X104612057Y-134002508D01*
X104629385Y-133901535D01*
X104652374Y-133768807D01*
X104680292Y-133608532D01*
X104712408Y-133424922D01*
X104747989Y-133222185D01*
X104786303Y-133004531D01*
X104800150Y-132926021D01*
X104839203Y-132704601D01*
X104875785Y-132496995D01*
X104909164Y-132307357D01*
X104938612Y-132139844D01*
X104963398Y-131998612D01*
X104982793Y-131887816D01*
X104996067Y-131811613D01*
X105002490Y-131774158D01*
X105002984Y-131770963D01*
X105023380Y-131767876D01*
X105075982Y-131765830D01*
X105126947Y-131765329D01*
X105208043Y-131769908D01*
G37*
G36*
X105996850Y-131769905D02*
G01*
X106035601Y-131783913D01*
X106039718Y-131793501D01*
X106035937Y-131820063D01*
X106025239Y-131885505D01*
X106008585Y-131984327D01*
X105986938Y-132111027D01*
X105961260Y-132260106D01*
X105932512Y-132426061D01*
X105901657Y-132603392D01*
X105869657Y-132786598D01*
X105837474Y-132970179D01*
X105806071Y-133148633D01*
X105776409Y-133316459D01*
X105749450Y-133468157D01*
X105726156Y-133598225D01*
X105707491Y-133701163D01*
X105694415Y-133771470D01*
X105688958Y-133798998D01*
X105675697Y-133860617D01*
X106907867Y-133872605D01*
X106870181Y-134109251D01*
X106128156Y-134109251D01*
X105950396Y-134108757D01*
X105787912Y-134107357D01*
X105645961Y-134105169D01*
X105529803Y-134102314D01*
X105444696Y-134098911D01*
X105395899Y-134095081D01*
X105386136Y-134092347D01*
X105389943Y-134067515D01*
X105400877Y-134002508D01*
X105418205Y-133901535D01*
X105441194Y-133768807D01*
X105469112Y-133608532D01*
X105501228Y-133424922D01*
X105536809Y-133222185D01*
X105575123Y-133004531D01*
X105588970Y-132926021D01*
X105628023Y-132704601D01*
X105664605Y-132496995D01*
X105697984Y-132307357D01*
X105727432Y-132139844D01*
X105752218Y-131998612D01*
X105771613Y-131887816D01*
X105784887Y-131811613D01*
X105791310Y-131774158D01*
X105791804Y-131770963D01*
X105812199Y-131767876D01*
X105864802Y-131765830D01*
X105915767Y-131765329D01*
X105996850Y-131769905D01*
G37*
G36*
X111353069Y-134109251D02*
G01*
X111073774Y-134109251D01*
X111000401Y-133793723D01*
X110927029Y-133478195D01*
X109723882Y-133478195D01*
X109351810Y-134109251D01*
X109215733Y-134109251D01*
X109146016Y-134106742D01*
X109100385Y-134100212D01*
X109089011Y-134092347D01*
X109102009Y-134070494D01*
X109136193Y-134013424D01*
X109189518Y-133924546D01*
X109259934Y-133807270D01*
X109345395Y-133665004D01*
X109443852Y-133501157D01*
X109553258Y-133319138D01*
X109606680Y-133230280D01*
X109872335Y-133230280D01*
X110367565Y-133230280D01*
X110511511Y-133229777D01*
X110639005Y-133228371D01*
X110743608Y-133226210D01*
X110818884Y-133223447D01*
X110858396Y-133220231D01*
X110862794Y-133218688D01*
X110857205Y-133181782D01*
X110841707Y-133111198D01*
X110818209Y-133013987D01*
X110788616Y-132897199D01*
X110754835Y-132767883D01*
X110718772Y-132633090D01*
X110682335Y-132499870D01*
X110647429Y-132375272D01*
X110615961Y-132266346D01*
X110589839Y-132180143D01*
X110570967Y-132123712D01*
X110561362Y-132104088D01*
X110542480Y-132122861D01*
X110505190Y-132174667D01*
X110453487Y-132253423D01*
X110391361Y-132353046D01*
X110322804Y-132467454D01*
X110321889Y-132469010D01*
X110243818Y-132601719D01*
X110163876Y-132737435D01*
X110088709Y-132864886D01*
X110024964Y-132972801D01*
X109990058Y-133031759D01*
X109872335Y-133230280D01*
X109606680Y-133230280D01*
X109671566Y-133122355D01*
X109793017Y-132920386D01*
X110487666Y-131765329D01*
X110767015Y-131765329D01*
X111353069Y-134109251D01*
G37*
G36*
X98300921Y-128631038D02*
G01*
X98304107Y-128631467D01*
X98478757Y-128670535D01*
X98644078Y-128736219D01*
X98788231Y-128822780D01*
X98892743Y-128916787D01*
X98954406Y-128995229D01*
X99008144Y-129078676D01*
X99048335Y-129156580D01*
X99069355Y-129218394D01*
X99069191Y-129247761D01*
X99044057Y-129264858D01*
X98984757Y-129288689D01*
X98901008Y-129315692D01*
X98831079Y-129335083D01*
X98729432Y-129361071D01*
X98663074Y-129375983D01*
X98623748Y-129380374D01*
X98603192Y-129374801D01*
X98593149Y-129359820D01*
X98590221Y-129351305D01*
X98547693Y-129275299D01*
X98472691Y-129197322D01*
X98376021Y-129127991D01*
X98345794Y-129111183D01*
X98281621Y-129081029D01*
X98221422Y-129062850D01*
X98149892Y-129053736D01*
X98051728Y-129050776D01*
X98027568Y-129050667D01*
X97919810Y-129052550D01*
X97840528Y-129060705D01*
X97773248Y-129078094D01*
X97701491Y-129107679D01*
X97695856Y-129110291D01*
X97524813Y-129213733D01*
X97383953Y-129348828D01*
X97275476Y-129511890D01*
X97201581Y-129699233D01*
X97164469Y-129907174D01*
X97160354Y-130007387D01*
X97179161Y-130181074D01*
X97233746Y-130329040D01*
X97321197Y-130448690D01*
X97438602Y-130537432D01*
X97583049Y-130592672D01*
X97751627Y-130611818D01*
X97834684Y-130607958D01*
X98002325Y-130572898D01*
X98168360Y-130502942D01*
X98317731Y-130405617D01*
X98407762Y-130321433D01*
X98509768Y-130207977D01*
X98696884Y-130257875D01*
X98783925Y-130282237D01*
X98853988Y-130303989D01*
X98895777Y-130319541D01*
X98901764Y-130322966D01*
X98898006Y-130346955D01*
X98871815Y-130396459D01*
X98828594Y-130461539D01*
X98820165Y-130473132D01*
X98664124Y-130648167D01*
X98478323Y-130794093D01*
X98269612Y-130908097D01*
X98044844Y-130987363D01*
X97810869Y-131029077D01*
X97574540Y-131030424D01*
X97488467Y-131020219D01*
X97301428Y-130971593D01*
X97128880Y-130888214D01*
X96978479Y-130775421D01*
X96857878Y-130638550D01*
X96799380Y-130539786D01*
X96728937Y-130361006D01*
X96693793Y-130179683D01*
X96692932Y-129985954D01*
X96721871Y-129786694D01*
X96791758Y-129547854D01*
X96897822Y-129329477D01*
X97035870Y-129134625D01*
X97201707Y-128966361D01*
X97391139Y-128827746D01*
X97599970Y-128721844D01*
X97824008Y-128651717D01*
X98059056Y-128620428D01*
X98300921Y-128631038D01*
G37*
G36*
X92860853Y-128656440D02*
G01*
X92935506Y-128659984D01*
X92980994Y-128665157D01*
X92990390Y-128669180D01*
X92986597Y-128694001D01*
X92975842Y-128757821D01*
X92959060Y-128855259D01*
X92937185Y-128980935D01*
X92911153Y-129129469D01*
X92881897Y-129295481D01*
X92864110Y-129396021D01*
X92824520Y-129623169D01*
X92793608Y-129810952D01*
X92771117Y-129964185D01*
X92756790Y-130087683D01*
X92750370Y-130186262D01*
X92751602Y-130264737D01*
X92760227Y-130327923D01*
X92775990Y-130380637D01*
X92798634Y-130427693D01*
X92808254Y-130443906D01*
X92883221Y-130524272D01*
X92988682Y-130579818D01*
X93116237Y-130608504D01*
X93257488Y-130608292D01*
X93383334Y-130583494D01*
X93520744Y-130520739D01*
X93636421Y-130420800D01*
X93725741Y-130288193D01*
X93755980Y-130219396D01*
X93772331Y-130164244D01*
X93794764Y-130071265D01*
X93821900Y-129947086D01*
X93852362Y-129798334D01*
X93884769Y-129631637D01*
X93917744Y-129453620D01*
X93932558Y-129370697D01*
X94058867Y-128655125D01*
X94279642Y-128655125D01*
X94373192Y-128656788D01*
X94447088Y-128661269D01*
X94491693Y-128667800D01*
X94500416Y-128672676D01*
X94496485Y-128704098D01*
X94485486Y-128773189D01*
X94468617Y-128873305D01*
X94447072Y-128997803D01*
X94422045Y-129140041D01*
X94394733Y-129293373D01*
X94366331Y-129451159D01*
X94338033Y-129606753D01*
X94311035Y-129753514D01*
X94286532Y-129884797D01*
X94265720Y-129993960D01*
X94249793Y-130074359D01*
X94240659Y-130116485D01*
X94167216Y-130335999D01*
X94061071Y-130532586D01*
X93925974Y-130701963D01*
X93765679Y-130839848D01*
X93583937Y-130941955D01*
X93485749Y-130978394D01*
X93360801Y-131007669D01*
X93216095Y-131026752D01*
X93069998Y-131034254D01*
X92940878Y-131028784D01*
X92898929Y-131022805D01*
X92723956Y-130971885D01*
X92572342Y-130889560D01*
X92449229Y-130780032D01*
X92359756Y-130647504D01*
X92322181Y-130551386D01*
X92302690Y-130468368D01*
X92291372Y-130377069D01*
X92288583Y-130272037D01*
X92294675Y-130147820D01*
X92310005Y-129998965D01*
X92334928Y-129820020D01*
X92369797Y-129605533D01*
X92392048Y-129477751D01*
X92421195Y-129313747D01*
X92449030Y-129158134D01*
X92474207Y-129018358D01*
X92495380Y-128901866D01*
X92511203Y-128816105D01*
X92519339Y-128773448D01*
X92542831Y-128655125D01*
X92766610Y-128655125D01*
X92860853Y-128656440D01*
G37*
G36*
X99851632Y-131872383D02*
G01*
X99840587Y-131938826D01*
X99830228Y-131985586D01*
X99826383Y-131996340D01*
X99802221Y-132000671D01*
X99738728Y-132004592D01*
X99641648Y-132007954D01*
X99516725Y-132010611D01*
X99369703Y-132012414D01*
X99206326Y-132013216D01*
X99169436Y-132013243D01*
X98522216Y-132013243D01*
X98460544Y-132368212D01*
X98439631Y-132489665D01*
X98421790Y-132595333D01*
X98408329Y-132677318D01*
X98400551Y-132727722D01*
X98399156Y-132739661D01*
X98420712Y-132744682D01*
X98480943Y-132749630D01*
X98573449Y-132754219D01*
X98691830Y-132758161D01*
X98829685Y-132761169D01*
X98901128Y-132762199D01*
X99402817Y-132768257D01*
X99365257Y-133004065D01*
X98855627Y-133010118D01*
X98345996Y-133016172D01*
X98271869Y-133433119D01*
X98248603Y-133564109D01*
X98228267Y-133678832D01*
X98212096Y-133770311D01*
X98201323Y-133831569D01*
X98197180Y-133855629D01*
X98197171Y-133855701D01*
X98218628Y-133857133D01*
X98279574Y-133858431D01*
X98374423Y-133859547D01*
X98497590Y-133860432D01*
X98643489Y-133861040D01*
X98806534Y-133861322D01*
X98852703Y-133861336D01*
X99508804Y-133861336D01*
X99493826Y-133945852D01*
X99487297Y-133989405D01*
X99481753Y-134024512D01*
X99472699Y-134052075D01*
X99455637Y-134072995D01*
X99426072Y-134088177D01*
X99379506Y-134098521D01*
X99311443Y-134104931D01*
X99217387Y-134108308D01*
X99092842Y-134109556D01*
X98933310Y-134109576D01*
X98734295Y-134109272D01*
X98679643Y-134109251D01*
X98497702Y-134108778D01*
X98330921Y-134107436D01*
X98184440Y-134105336D01*
X98063403Y-134102591D01*
X97972950Y-134099311D01*
X97918225Y-134095610D01*
X97903616Y-134092347D01*
X97907423Y-134067515D01*
X97918357Y-134002508D01*
X97935685Y-133901535D01*
X97958674Y-133768807D01*
X97986592Y-133608532D01*
X98018708Y-133424922D01*
X98054289Y-133222185D01*
X98092603Y-133004531D01*
X98106450Y-132926021D01*
X98145503Y-132704601D01*
X98182085Y-132496995D01*
X98215464Y-132307357D01*
X98244912Y-132139844D01*
X98269698Y-131998612D01*
X98289093Y-131887816D01*
X98302367Y-131811613D01*
X98308790Y-131774158D01*
X98309284Y-131770963D01*
X98330968Y-131769644D01*
X98392594Y-131768435D01*
X98489030Y-131767373D01*
X98615144Y-131766495D01*
X98765803Y-131765837D01*
X98935875Y-131765438D01*
X99088221Y-131765329D01*
X99867153Y-131765329D01*
X99851632Y-131872383D01*
G37*
G36*
X109204782Y-131872383D02*
G01*
X109193737Y-131938826D01*
X109183378Y-131985586D01*
X109179533Y-131996340D01*
X109155371Y-132000671D01*
X109091878Y-132004592D01*
X108994798Y-132007954D01*
X108869875Y-132010611D01*
X108722853Y-132012414D01*
X108559476Y-132013216D01*
X108522586Y-132013243D01*
X107875366Y-132013243D01*
X107813694Y-132368212D01*
X107792781Y-132489665D01*
X107774940Y-132595333D01*
X107761479Y-132677318D01*
X107753701Y-132727722D01*
X107752306Y-132739661D01*
X107773862Y-132744682D01*
X107834093Y-132749630D01*
X107926599Y-132754219D01*
X108044980Y-132758161D01*
X108182834Y-132761169D01*
X108254278Y-132762199D01*
X108755967Y-132768257D01*
X108718407Y-133004065D01*
X108208776Y-133010118D01*
X107699146Y-133016172D01*
X107625019Y-133433119D01*
X107601753Y-133564109D01*
X107581417Y-133678832D01*
X107565246Y-133770311D01*
X107554473Y-133831569D01*
X107550330Y-133855629D01*
X107550321Y-133855701D01*
X107571778Y-133857133D01*
X107632724Y-133858431D01*
X107727573Y-133859547D01*
X107850740Y-133860432D01*
X107996639Y-133861040D01*
X108159684Y-133861322D01*
X108205852Y-133861336D01*
X108861954Y-133861336D01*
X108846976Y-133945852D01*
X108840447Y-133989405D01*
X108834903Y-134024512D01*
X108825849Y-134052075D01*
X108808787Y-134072995D01*
X108779222Y-134088177D01*
X108732656Y-134098521D01*
X108664593Y-134104931D01*
X108570537Y-134108308D01*
X108445992Y-134109556D01*
X108286460Y-134109576D01*
X108087445Y-134109272D01*
X108032793Y-134109251D01*
X107850852Y-134108778D01*
X107684071Y-134107436D01*
X107537590Y-134105336D01*
X107416553Y-134102591D01*
X107326100Y-134099311D01*
X107271375Y-134095610D01*
X107256765Y-134092347D01*
X107260573Y-134067515D01*
X107271507Y-134002508D01*
X107288835Y-133901535D01*
X107311824Y-133768807D01*
X107339742Y-133608532D01*
X107371858Y-133424922D01*
X107407439Y-133222185D01*
X107445753Y-133004531D01*
X107459600Y-132926021D01*
X107498653Y-132704601D01*
X107535235Y-132496995D01*
X107568614Y-132307357D01*
X107598062Y-132139844D01*
X107622848Y-131998612D01*
X107642243Y-131887816D01*
X107655517Y-131811613D01*
X107661940Y-131774158D01*
X107662434Y-131770963D01*
X107684118Y-131769644D01*
X107745744Y-131768435D01*
X107842180Y-131767373D01*
X107968294Y-131766495D01*
X108118953Y-131765837D01*
X108289025Y-131765438D01*
X108441371Y-131765329D01*
X109220303Y-131765329D01*
X109204782Y-131872383D01*
G37*
G36*
X116191472Y-131872383D02*
G01*
X116180427Y-131938826D01*
X116170068Y-131985586D01*
X116166223Y-131996340D01*
X116142061Y-132000671D01*
X116078568Y-132004592D01*
X115981489Y-132007954D01*
X115856566Y-132010611D01*
X115709544Y-132012414D01*
X115546166Y-132013216D01*
X115509276Y-132013243D01*
X114862057Y-132013243D01*
X114800384Y-132368212D01*
X114779471Y-132489665D01*
X114761631Y-132595333D01*
X114748169Y-132677318D01*
X114740391Y-132727722D01*
X114738996Y-132739661D01*
X114760552Y-132744682D01*
X114820784Y-132749630D01*
X114913289Y-132754219D01*
X115031670Y-132758161D01*
X115169525Y-132761169D01*
X115240969Y-132762199D01*
X115742657Y-132768257D01*
X115705097Y-133004065D01*
X115195467Y-133010118D01*
X114685836Y-133016172D01*
X114611709Y-133433119D01*
X114588443Y-133564109D01*
X114568108Y-133678832D01*
X114551937Y-133770311D01*
X114541163Y-133831569D01*
X114537020Y-133855629D01*
X114537012Y-133855701D01*
X114558468Y-133857133D01*
X114619414Y-133858431D01*
X114714264Y-133859547D01*
X114837431Y-133860432D01*
X114983330Y-133861040D01*
X115146374Y-133861322D01*
X115192543Y-133861336D01*
X115848645Y-133861336D01*
X115833666Y-133945852D01*
X115827137Y-133989405D01*
X115821593Y-134024512D01*
X115812539Y-134052075D01*
X115795477Y-134072995D01*
X115765912Y-134088177D01*
X115719346Y-134098521D01*
X115651284Y-134104931D01*
X115557228Y-134108308D01*
X115432682Y-134109556D01*
X115273150Y-134109576D01*
X115074136Y-134109272D01*
X115019483Y-134109251D01*
X114837543Y-134108778D01*
X114670761Y-134107436D01*
X114524281Y-134105336D01*
X114403243Y-134102591D01*
X114312791Y-134099311D01*
X114258065Y-134095610D01*
X114243456Y-134092347D01*
X114247264Y-134067515D01*
X114258198Y-134002508D01*
X114275525Y-133901535D01*
X114298514Y-133768807D01*
X114326432Y-133608532D01*
X114358548Y-133424922D01*
X114394129Y-133222185D01*
X114432443Y-133004531D01*
X114446290Y-132926021D01*
X114485344Y-132704601D01*
X114521925Y-132496995D01*
X114555305Y-132307357D01*
X114584752Y-132139844D01*
X114609538Y-131998612D01*
X114628933Y-131887816D01*
X114642207Y-131811613D01*
X114648630Y-131774158D01*
X114649124Y-131770963D01*
X114670808Y-131769644D01*
X114732434Y-131768435D01*
X114828871Y-131767373D01*
X114954985Y-131766495D01*
X115105644Y-131765837D01*
X115275715Y-131765438D01*
X115428061Y-131765329D01*
X116206993Y-131765329D01*
X116191472Y-131872383D01*
G37*
G36*
X95820204Y-131767208D02*
G01*
X95864675Y-131772050D01*
X95875216Y-131776621D01*
X95871068Y-131812961D01*
X95859432Y-131887050D01*
X95841519Y-131992409D01*
X95818541Y-132122559D01*
X95791711Y-132271021D01*
X95762240Y-132431315D01*
X95731341Y-132596964D01*
X95700224Y-132761488D01*
X95670102Y-132918407D01*
X95642187Y-133061244D01*
X95617690Y-133183519D01*
X95597825Y-133278753D01*
X95583801Y-133340467D01*
X95580123Y-133354237D01*
X95497393Y-133567786D01*
X95385447Y-133750668D01*
X95246471Y-133900479D01*
X95082648Y-134014816D01*
X94915393Y-134085520D01*
X94775730Y-134118062D01*
X94618227Y-134137453D01*
X94462497Y-134142202D01*
X94328152Y-134130821D01*
X94325321Y-134130332D01*
X94188346Y-134097727D01*
X94078803Y-134049558D01*
X93979719Y-133978002D01*
X93963317Y-133963513D01*
X93878918Y-133873379D01*
X93820762Y-133774666D01*
X93784698Y-133656851D01*
X93766579Y-133509413D01*
X93764030Y-133458037D01*
X93762693Y-133391630D01*
X93764223Y-133324288D01*
X93769397Y-133250036D01*
X93778990Y-133162901D01*
X93793777Y-133056909D01*
X93814535Y-132926088D01*
X93842039Y-132764464D01*
X93877065Y-132566064D01*
X93887256Y-132509073D01*
X94018490Y-131776597D01*
X94146764Y-131769838D01*
X94229483Y-131769624D01*
X94270043Y-131780150D01*
X94275039Y-131789528D01*
X94271234Y-131817451D01*
X94260444Y-131884245D01*
X94243610Y-131984407D01*
X94221671Y-132112433D01*
X94195567Y-132262821D01*
X94166238Y-132430068D01*
X94148803Y-132528763D01*
X94106614Y-132772272D01*
X94073709Y-132976252D01*
X94049900Y-133145244D01*
X94035000Y-133283786D01*
X94028820Y-133396418D01*
X94031174Y-133487681D01*
X94041873Y-133562115D01*
X94060729Y-133624258D01*
X94087556Y-133678652D01*
X94100389Y-133699126D01*
X94185074Y-133787999D01*
X94301214Y-133852772D01*
X94440988Y-133891459D01*
X94596575Y-133902078D01*
X94760153Y-133882645D01*
X94793446Y-133874900D01*
X94964303Y-133810614D01*
X95106875Y-133711246D01*
X95221037Y-133576912D01*
X95306663Y-133407725D01*
X95309232Y-133400933D01*
X95324550Y-133348215D01*
X95345984Y-133257561D01*
X95372200Y-133135490D01*
X95401862Y-132988521D01*
X95433636Y-132823173D01*
X95466185Y-132645965D01*
X95481329Y-132560675D01*
X95512285Y-132385151D01*
X95541193Y-132222767D01*
X95567032Y-132079147D01*
X95588779Y-131959915D01*
X95605412Y-131870695D01*
X95615909Y-131817111D01*
X95618724Y-131804770D01*
X95635529Y-131780932D01*
X95675002Y-131768844D01*
X95747916Y-131765336D01*
X95752778Y-131765329D01*
X95820204Y-131767208D01*
G37*
G36*
X96544375Y-131765607D02*
G01*
X96661742Y-131766956D01*
X96798000Y-131769360D01*
X96849972Y-131770468D01*
X97046238Y-131776475D01*
X97204052Y-131785758D01*
X97330002Y-131799751D01*
X97430675Y-131819888D01*
X97512656Y-131847603D01*
X97582534Y-131884329D01*
X97646894Y-131931502D01*
X97666479Y-131948228D01*
X97747642Y-132047971D01*
X97797969Y-132171858D01*
X97818688Y-132312354D01*
X97811028Y-132461924D01*
X97776218Y-132613031D01*
X97715487Y-132758141D01*
X97630063Y-132889717D01*
X97521176Y-133000225D01*
X97491201Y-133023125D01*
X97401973Y-133082025D01*
X97314491Y-133126418D01*
X97219931Y-133158442D01*
X97109466Y-133180238D01*
X96974271Y-133193944D01*
X96805520Y-133201700D01*
X96748553Y-133203153D01*
X96623809Y-133206525D01*
X96516451Y-133210574D01*
X96433851Y-133214927D01*
X96383381Y-133219213D01*
X96371046Y-133222180D01*
X96367308Y-133247564D01*
X96357101Y-133308739D01*
X96341935Y-133397130D01*
X96323322Y-133504164D01*
X96302772Y-133621269D01*
X96281795Y-133739870D01*
X96261903Y-133851394D01*
X96244606Y-133947268D01*
X96231415Y-134018919D01*
X96223840Y-134057773D01*
X96223671Y-134058541D01*
X96212039Y-134087966D01*
X96186023Y-134103186D01*
X96133637Y-134108711D01*
X96088895Y-134109251D01*
X96021137Y-134106462D01*
X95976271Y-134099270D01*
X95965372Y-134092347D01*
X95969180Y-134067515D01*
X95980114Y-134002508D01*
X95997442Y-133901535D01*
X96020431Y-133768807D01*
X96048349Y-133608532D01*
X96080465Y-133424922D01*
X96116046Y-133222185D01*
X96154359Y-133004531D01*
X96158269Y-132982365D01*
X96411235Y-132982365D01*
X96725116Y-132982365D01*
X96895454Y-132979548D01*
X97026755Y-132970789D01*
X97124722Y-132955623D01*
X97157118Y-132947287D01*
X97287188Y-132888029D01*
X97396579Y-132798161D01*
X97481210Y-132685666D01*
X97536998Y-132558523D01*
X97559863Y-132424713D01*
X97545723Y-132292218D01*
X97523963Y-132230002D01*
X97488376Y-132162937D01*
X97444392Y-132117336D01*
X97376136Y-132077812D01*
X97358088Y-132069242D01*
X97307229Y-132047188D01*
X97259095Y-132031852D01*
X97203981Y-132022023D01*
X97132179Y-132016489D01*
X97033983Y-132014038D01*
X96911379Y-132013464D01*
X96584010Y-132013243D01*
X96509273Y-132447094D01*
X96485431Y-132584654D01*
X96463505Y-132709589D01*
X96444888Y-132814078D01*
X96430975Y-132890303D01*
X96423159Y-132930441D01*
X96422886Y-132931655D01*
X96411235Y-132982365D01*
X96158269Y-132982365D01*
X96168207Y-132926021D01*
X96207270Y-132704494D01*
X96243860Y-132496691D01*
X96277246Y-132306781D01*
X96306697Y-132138934D01*
X96331484Y-131997319D01*
X96350876Y-131886104D01*
X96364142Y-131809459D01*
X96370552Y-131771552D01*
X96371041Y-131768200D01*
X96392482Y-131766198D01*
X96452441Y-131765344D01*
X96544375Y-131765607D01*
G37*
G36*
X92952772Y-131741979D02*
G01*
X93135925Y-131784583D01*
X93282152Y-131851597D01*
X93393214Y-131944304D01*
X93470875Y-132063987D01*
X93499388Y-132139767D01*
X93521764Y-132219802D01*
X93526096Y-132268142D01*
X93508133Y-132296007D01*
X93463625Y-132314615D01*
X93429551Y-132324097D01*
X93343873Y-132344552D01*
X93292565Y-132348805D01*
X93267574Y-132335882D01*
X93260846Y-132304807D01*
X93260842Y-132303668D01*
X93240256Y-132216959D01*
X93184002Y-132130761D01*
X93100337Y-132055702D01*
X93041059Y-132020749D01*
X92911759Y-131977229D01*
X92765389Y-131959963D01*
X92614296Y-131967681D01*
X92470828Y-131999111D01*
X92347331Y-132052984D01*
X92284511Y-132098621D01*
X92220043Y-132180307D01*
X92176992Y-132282042D01*
X92157513Y-132390841D01*
X92163761Y-132493718D01*
X92197891Y-132577688D01*
X92203700Y-132585544D01*
X92252903Y-132635094D01*
X92320613Y-132678523D01*
X92413324Y-132718615D01*
X92537526Y-132758156D01*
X92699711Y-132799929D01*
X92708382Y-132801995D01*
X92893066Y-132850644D01*
X93038135Y-132900168D01*
X93149022Y-132952972D01*
X93231162Y-133011460D01*
X93268582Y-133049895D01*
X93334120Y-133160948D01*
X93365350Y-133290621D01*
X93364600Y-133431278D01*
X93334200Y-133575280D01*
X93276477Y-133714990D01*
X93193762Y-133842769D01*
X93088382Y-133950980D01*
X92970277Y-134028263D01*
X92809096Y-134089411D01*
X92621795Y-134128698D01*
X92422693Y-134144177D01*
X92226106Y-134133902D01*
X92209510Y-134131715D01*
X92024982Y-134090240D01*
X91875987Y-134021460D01*
X91761529Y-133924484D01*
X91680617Y-133798423D01*
X91632258Y-133642387D01*
X91626668Y-133609284D01*
X91610920Y-133503727D01*
X91709040Y-133478351D01*
X91778523Y-133460109D01*
X91834378Y-133444986D01*
X91846601Y-133441528D01*
X91873097Y-133441741D01*
X91884305Y-133469864D01*
X91886042Y-133511380D01*
X91907307Y-133626427D01*
X91966175Y-133731748D01*
X92055256Y-133814906D01*
X92072962Y-133825995D01*
X92197657Y-133877789D01*
X92347015Y-133906921D01*
X92506554Y-133913076D01*
X92661791Y-133895941D01*
X92798244Y-133855201D01*
X92825726Y-133842318D01*
X92933591Y-133767822D01*
X93018160Y-133670921D01*
X93075514Y-133560586D01*
X93101731Y-133445784D01*
X93092892Y-133335485D01*
X93071579Y-133279817D01*
X93033419Y-133220239D01*
X92982849Y-133171597D01*
X92913088Y-133130548D01*
X92817357Y-133093745D01*
X92688879Y-133057844D01*
X92562173Y-133028448D01*
X92352571Y-132974081D01*
X92185178Y-132911725D01*
X92057624Y-132840076D01*
X91967541Y-132757833D01*
X91916491Y-132673547D01*
X91892615Y-132575611D01*
X91888008Y-132453936D01*
X91902373Y-132325388D01*
X91924236Y-132238224D01*
X91993087Y-132095714D01*
X92098106Y-131972528D01*
X92233531Y-131871446D01*
X92393600Y-131795248D01*
X92572552Y-131746713D01*
X92764624Y-131728623D01*
X92952772Y-131741979D01*
G37*
G36*
X100488475Y-131765607D02*
G01*
X100605842Y-131766956D01*
X100742100Y-131769360D01*
X100794072Y-131770468D01*
X100957741Y-131774538D01*
X101083737Y-131779004D01*
X101179462Y-131784606D01*
X101252317Y-131792083D01*
X101309703Y-131802175D01*
X101359021Y-131815622D01*
X101402942Y-131831326D01*
X101550201Y-131904008D01*
X101657318Y-131994567D01*
X101726933Y-132106696D01*
X101761692Y-132244089D01*
X101766915Y-132340040D01*
X101756795Y-132497362D01*
X101724735Y-132628966D01*
X101666266Y-132750683D01*
X101638930Y-132793591D01*
X101521855Y-132929157D01*
X101377489Y-133032382D01*
X101250048Y-133086879D01*
X101183383Y-133110811D01*
X101138526Y-133132499D01*
X101126503Y-133144154D01*
X101134814Y-133169452D01*
X101158084Y-133230080D01*
X101193820Y-133319809D01*
X101239528Y-133432410D01*
X101292715Y-133561653D01*
X101318074Y-133622740D01*
X101373725Y-133757012D01*
X101423020Y-133877038D01*
X101463475Y-133976676D01*
X101492603Y-134049784D01*
X101507920Y-134090222D01*
X101509644Y-134096123D01*
X101489045Y-134102697D01*
X101434986Y-134107406D01*
X101359075Y-134109250D01*
X101357429Y-134109251D01*
X101205215Y-134109251D01*
X101024998Y-133647615D01*
X100844782Y-133185980D01*
X100583529Y-133185592D01*
X100322277Y-133185204D01*
X100249236Y-133607786D01*
X100225720Y-133742627D01*
X100204173Y-133863925D01*
X100185992Y-133963986D01*
X100172575Y-134035114D01*
X100165322Y-134069616D01*
X100165269Y-134069810D01*
X100149053Y-134093601D01*
X100110251Y-134105685D01*
X100038122Y-134109239D01*
X100031905Y-134109251D01*
X99964487Y-134106438D01*
X99920019Y-134099192D01*
X99909472Y-134092347D01*
X99913280Y-134067515D01*
X99924213Y-134002508D01*
X99941541Y-133901535D01*
X99964530Y-133768807D01*
X99992448Y-133608532D01*
X100024564Y-133424922D01*
X100060145Y-133222185D01*
X100098459Y-133004531D01*
X100110298Y-132937404D01*
X100365738Y-132937404D01*
X100373997Y-132948088D01*
X100398497Y-132954929D01*
X100445330Y-132958483D01*
X100520593Y-132959307D01*
X100630380Y-132957957D01*
X100735595Y-132955923D01*
X100878654Y-132952453D01*
X100984715Y-132948118D01*
X101061858Y-132941944D01*
X101118159Y-132932954D01*
X101161697Y-132920175D01*
X101200551Y-132902631D01*
X101207519Y-132898973D01*
X101331147Y-132808606D01*
X101424958Y-132688437D01*
X101474870Y-132572913D01*
X101502675Y-132454248D01*
X101505428Y-132357847D01*
X101482431Y-132268041D01*
X101458934Y-132216530D01*
X101420726Y-132152185D01*
X101376191Y-132103632D01*
X101318550Y-132068546D01*
X101241024Y-132044603D01*
X101136836Y-132029477D01*
X100999205Y-132020846D01*
X100878274Y-132017400D01*
X100528625Y-132010288D01*
X100453958Y-132445617D01*
X100430230Y-132582637D01*
X100408393Y-132706282D01*
X100389822Y-132808952D01*
X100375894Y-132883048D01*
X100367985Y-132920968D01*
X100367623Y-132922320D01*
X100365738Y-132937404D01*
X100110298Y-132937404D01*
X100112306Y-132926021D01*
X100151369Y-132704494D01*
X100187959Y-132496691D01*
X100221345Y-132306781D01*
X100250797Y-132138934D01*
X100275583Y-131997319D01*
X100294975Y-131886104D01*
X100308241Y-131809459D01*
X100314652Y-131771552D01*
X100315140Y-131768200D01*
X100336582Y-131766198D01*
X100396540Y-131765344D01*
X100488475Y-131765607D01*
G37*
G36*
X113319826Y-131749397D02*
G01*
X113515664Y-131803647D01*
X113695032Y-131892925D01*
X113808059Y-131977074D01*
X113856813Y-132028655D01*
X113908326Y-132097527D01*
X113956867Y-132173729D01*
X113996705Y-132247299D01*
X114022111Y-132308275D01*
X114027353Y-132346697D01*
X114024011Y-132352450D01*
X113996016Y-132364529D01*
X113941029Y-132381925D01*
X113876001Y-132399926D01*
X113817885Y-132413818D01*
X113784858Y-132418922D01*
X113768578Y-132401228D01*
X113738259Y-132355934D01*
X113716115Y-132319395D01*
X113612354Y-132185111D01*
X113479140Y-132082059D01*
X113320953Y-132011797D01*
X113142273Y-131975883D01*
X112947576Y-131975875D01*
X112797098Y-131999619D01*
X112593235Y-132067042D01*
X112410213Y-132171345D01*
X112251432Y-132307843D01*
X112120295Y-132471852D01*
X112020202Y-132658686D01*
X111954555Y-132863661D01*
X111926753Y-133082091D01*
X111928202Y-133196473D01*
X111958030Y-133386128D01*
X112022744Y-133547357D01*
X112121734Y-133679517D01*
X112254388Y-133781962D01*
X112420097Y-133854049D01*
X112586146Y-133890923D01*
X112781995Y-133898309D01*
X112984891Y-133868605D01*
X113183480Y-133805504D01*
X113366411Y-133712699D01*
X113522332Y-133593882D01*
X113534153Y-133582529D01*
X113596848Y-133518227D01*
X113634171Y-133468056D01*
X113654567Y-133416343D01*
X113666480Y-133347413D01*
X113668155Y-133333801D01*
X113678681Y-133256794D01*
X113689309Y-133195876D01*
X113695751Y-133170402D01*
X113692508Y-133158660D01*
X113668668Y-133150265D01*
X113618699Y-133144725D01*
X113537068Y-133141547D01*
X113418243Y-133140239D01*
X113355622Y-133140129D01*
X113235464Y-133139515D01*
X113132960Y-133137819D01*
X113055748Y-133135263D01*
X113011465Y-133132067D01*
X113003877Y-133129969D01*
X113008216Y-133103968D01*
X113019325Y-133048487D01*
X113028282Y-133006012D01*
X113052687Y-132892214D01*
X113512843Y-132892214D01*
X113676119Y-132892860D01*
X113798784Y-132894978D01*
X113885282Y-132898840D01*
X113940063Y-132904720D01*
X113967571Y-132912889D01*
X113972988Y-132920386D01*
X113969202Y-132949440D01*
X113958547Y-133016645D01*
X113942072Y-133115777D01*
X113920821Y-133240612D01*
X113895843Y-133384925D01*
X113871579Y-133523270D01*
X113844295Y-133678116D01*
X113819788Y-133817598D01*
X113799092Y-133935799D01*
X113783240Y-134026805D01*
X113773266Y-134084699D01*
X113770169Y-134103616D01*
X113749875Y-134106832D01*
X113698003Y-134108871D01*
X113657470Y-134109251D01*
X113593179Y-134105940D01*
X113552378Y-134097476D01*
X113544782Y-134090852D01*
X113548612Y-134060209D01*
X113558523Y-133999914D01*
X113568869Y-133942151D01*
X113580108Y-133870713D01*
X113584545Y-133819122D01*
X113582346Y-133801237D01*
X113559977Y-133807528D01*
X113512661Y-133834627D01*
X113462473Y-133868411D01*
X113244758Y-133998789D01*
X113016940Y-134088509D01*
X112783615Y-134136379D01*
X112549378Y-134141206D01*
X112453507Y-134130369D01*
X112293211Y-134089087D01*
X112131565Y-134018239D01*
X111987366Y-133926794D01*
X111934920Y-133882928D01*
X111816871Y-133744481D01*
X111731623Y-133580736D01*
X111679049Y-133397176D01*
X111659019Y-133199283D01*
X111671405Y-132992540D01*
X111716079Y-132782429D01*
X111792912Y-132574432D01*
X111901775Y-132374033D01*
X111972680Y-132272427D01*
X112122182Y-132107484D01*
X112295620Y-131971068D01*
X112487223Y-131864108D01*
X112691217Y-131787531D01*
X112901830Y-131742268D01*
X113113290Y-131729247D01*
X113319826Y-131749397D01*
G37*
G36*
X104456924Y-131770894D02*
G01*
X104471299Y-131784201D01*
X104469843Y-131810661D01*
X104469037Y-131815039D01*
X104463301Y-131846904D01*
X104450528Y-131918705D01*
X104431507Y-132025989D01*
X104407026Y-132164302D01*
X104377874Y-132329188D01*
X104344836Y-132516194D01*
X104308702Y-132720864D01*
X104270260Y-132938746D01*
X104262566Y-132982365D01*
X104065812Y-134097982D01*
X103937151Y-134104741D01*
X103867877Y-134106375D01*
X103821168Y-134103638D01*
X103808491Y-134098840D01*
X103812309Y-134072897D01*
X103823029Y-134008823D01*
X103839542Y-133912849D01*
X103860746Y-133791204D01*
X103885532Y-133650116D01*
X103912796Y-133495815D01*
X103941433Y-133334530D01*
X103970336Y-133172490D01*
X103998400Y-133015923D01*
X104024519Y-132871060D01*
X104047588Y-132744129D01*
X104066501Y-132641359D01*
X104078660Y-132576731D01*
X104097350Y-132476720D01*
X104112297Y-132391933D01*
X104121697Y-132332917D01*
X104124019Y-132311913D01*
X104113028Y-132284589D01*
X104083440Y-132292490D01*
X104040325Y-132332483D01*
X103995495Y-132391331D01*
X103962964Y-132437719D01*
X103907944Y-132514375D01*
X103834764Y-132615342D01*
X103747758Y-132734663D01*
X103651258Y-132866381D01*
X103549595Y-133004537D01*
X103549325Y-133004903D01*
X103439509Y-133153611D01*
X103352829Y-133269974D01*
X103285713Y-133357959D01*
X103234589Y-133421531D01*
X103195884Y-133464656D01*
X103166026Y-133491299D01*
X103141443Y-133505427D01*
X103118562Y-133511006D01*
X103093811Y-133512001D01*
X103009741Y-133512001D01*
X102867338Y-133151398D01*
X102810338Y-133005711D01*
X102749967Y-132849128D01*
X102692140Y-132697138D01*
X102642776Y-132565227D01*
X102626544Y-132521061D01*
X102588017Y-132418858D01*
X102553443Y-132333410D01*
X102526329Y-132272960D01*
X102510184Y-132245752D01*
X102509094Y-132245093D01*
X102501300Y-132265169D01*
X102486982Y-132325089D01*
X102467037Y-132420235D01*
X102442361Y-132545992D01*
X102413851Y-132697743D01*
X102382403Y-132870870D01*
X102348914Y-133060757D01*
X102334200Y-133145883D01*
X102300196Y-133343087D01*
X102268268Y-133526888D01*
X102239277Y-133692436D01*
X102214081Y-133834882D01*
X102193541Y-133949375D01*
X102178517Y-134031065D01*
X102169868Y-134075103D01*
X102168390Y-134081078D01*
X102144031Y-134095137D01*
X102092401Y-134104911D01*
X102028698Y-134109724D01*
X101968121Y-134108899D01*
X101925869Y-134101760D01*
X101915328Y-134092347D01*
X101919136Y-134067515D01*
X101930070Y-134002508D01*
X101947397Y-133901535D01*
X101970386Y-133768807D01*
X101998305Y-133608532D01*
X102030420Y-133424922D01*
X102066001Y-133222185D01*
X102104315Y-133004531D01*
X102118162Y-132926021D01*
X102157220Y-132704559D01*
X102193804Y-132496876D01*
X102227186Y-132307133D01*
X102256636Y-132139490D01*
X102281422Y-131998108D01*
X102300816Y-131887150D01*
X102314086Y-131810774D01*
X102320504Y-131773144D01*
X102320997Y-131769888D01*
X102341484Y-131767385D01*
X102394886Y-131767522D01*
X102460797Y-131769888D01*
X102600592Y-131776597D01*
X102863465Y-132463998D01*
X102941339Y-132665215D01*
X103008842Y-132834635D01*
X103065058Y-132970109D01*
X103109069Y-133069493D01*
X103139961Y-133130638D01*
X103156784Y-133151398D01*
X103176593Y-133133858D01*
X103219878Y-133083883D01*
X103283527Y-133005437D01*
X103364431Y-132902485D01*
X103459479Y-132778992D01*
X103565559Y-132638923D01*
X103679563Y-132486243D01*
X103696045Y-132463998D01*
X104204860Y-131776597D01*
X104341807Y-131769964D01*
X104416999Y-131767296D01*
X104456924Y-131770894D01*
G37*
G36*
X95431887Y-128655477D02*
G01*
X95636892Y-128656979D01*
X95802918Y-128661744D01*
X95936000Y-128670634D01*
X96042171Y-128684513D01*
X96127465Y-128704246D01*
X96197915Y-128730695D01*
X96259554Y-128764725D01*
X96277150Y-128776487D01*
X96378056Y-128871965D01*
X96443343Y-128990113D01*
X96471775Y-129124455D01*
X96462119Y-129268513D01*
X96413138Y-129415813D01*
X96402989Y-129436487D01*
X96317689Y-129562386D01*
X96197511Y-129670851D01*
X96109758Y-129727949D01*
X96086318Y-129745788D01*
X96092902Y-129762352D01*
X96134603Y-129786729D01*
X96145943Y-129792501D01*
X96269725Y-129871097D01*
X96353277Y-129964432D01*
X96400700Y-130079087D01*
X96416094Y-130221641D01*
X96416104Y-130226011D01*
X96395123Y-130399795D01*
X96334100Y-130556795D01*
X96235852Y-130694190D01*
X96103193Y-130809161D01*
X95938939Y-130898886D01*
X95745908Y-130960547D01*
X95667568Y-130975713D01*
X95601816Y-130982950D01*
X95506831Y-130988836D01*
X95389818Y-130993362D01*
X95257980Y-130996519D01*
X95118520Y-130998299D01*
X94978643Y-130998691D01*
X94845551Y-130997688D01*
X94726448Y-130995280D01*
X94628538Y-130991458D01*
X94559025Y-130986212D01*
X94525112Y-130979535D01*
X94522954Y-130977155D01*
X94526736Y-130951932D01*
X94537480Y-130887474D01*
X94554283Y-130788932D01*
X94576241Y-130661455D01*
X94590968Y-130576464D01*
X95042610Y-130576464D01*
X95045933Y-130592493D01*
X95061773Y-130603510D01*
X95097092Y-130610435D01*
X95158851Y-130614191D01*
X95254012Y-130615697D01*
X95340805Y-130615905D01*
X95466864Y-130615121D01*
X95557792Y-130611927D01*
X95623521Y-130605060D01*
X95673981Y-130593257D01*
X95719102Y-130575256D01*
X95739530Y-130565196D01*
X95842453Y-130495659D01*
X95909259Y-130406623D01*
X95944542Y-130303925D01*
X95949501Y-130192228D01*
X95914051Y-130094405D01*
X95841058Y-130017613D01*
X95825863Y-130007619D01*
X95790948Y-129988887D01*
X95752282Y-129976358D01*
X95700806Y-129969074D01*
X95627463Y-129966076D01*
X95523194Y-129966407D01*
X95448222Y-129967684D01*
X95145185Y-129973581D01*
X95094542Y-130255302D01*
X95075127Y-130365765D01*
X95058938Y-130462517D01*
X95047584Y-130535610D01*
X95042675Y-130575095D01*
X95042610Y-130576464D01*
X94590968Y-130576464D01*
X94602452Y-130510193D01*
X94632012Y-130340297D01*
X94664018Y-130156915D01*
X94697567Y-129965197D01*
X94731755Y-129770294D01*
X94765681Y-129577355D01*
X94765841Y-129576446D01*
X95226936Y-129576446D01*
X95243900Y-129609578D01*
X95283428Y-129623926D01*
X95349959Y-129626000D01*
X95447931Y-129622309D01*
X95486441Y-129620979D01*
X95609955Y-129615797D01*
X95698421Y-129607950D01*
X95761855Y-129595880D01*
X95810272Y-129578031D01*
X95830141Y-129567518D01*
X95905542Y-129503949D01*
X95963504Y-129417166D01*
X95996950Y-129321734D01*
X95998800Y-129232220D01*
X95996982Y-129224181D01*
X95973219Y-129158384D01*
X95935888Y-129110614D01*
X95878218Y-129077908D01*
X95793441Y-129057306D01*
X95674787Y-129045844D01*
X95580662Y-129042013D01*
X95476607Y-129039833D01*
X95391290Y-129039440D01*
X95333438Y-129040773D01*
X95311778Y-129043773D01*
X95311774Y-129043829D01*
X95307983Y-129068433D01*
X95297705Y-129128011D01*
X95282579Y-129213197D01*
X95267041Y-129299266D01*
X95242945Y-129427799D01*
X95228097Y-129518023D01*
X95226936Y-129576446D01*
X94765841Y-129576446D01*
X94798439Y-129391530D01*
X94829128Y-129217968D01*
X94856844Y-129061820D01*
X94880684Y-128928235D01*
X94899744Y-128822363D01*
X94913122Y-128749354D01*
X94919325Y-128717103D01*
X94932214Y-128655125D01*
X95431887Y-128655477D01*
G37*
G36*
X92638291Y-127085654D02*
G01*
X92753344Y-127092348D01*
X92911343Y-127103422D01*
X93112798Y-127118890D01*
X93358217Y-127138765D01*
X93572964Y-127156700D01*
X95184876Y-127299431D01*
X96827545Y-127458071D01*
X98489976Y-127631543D01*
X99086840Y-127696935D01*
X100277999Y-127832480D01*
X101433627Y-127970867D01*
X102553297Y-128112009D01*
X103636581Y-128255814D01*
X104683053Y-128402193D01*
X105692285Y-128551055D01*
X106663851Y-128702312D01*
X107597322Y-128855872D01*
X108492272Y-129011647D01*
X109348274Y-129169545D01*
X110164900Y-129329478D01*
X110941723Y-129491355D01*
X111678316Y-129655086D01*
X112374253Y-129820581D01*
X113029105Y-129987751D01*
X113642445Y-130156505D01*
X114213847Y-130326754D01*
X114742883Y-130498407D01*
X115229126Y-130671375D01*
X115672150Y-130845568D01*
X116071525Y-131020895D01*
X116426827Y-131197267D01*
X116737626Y-131374594D01*
X116828987Y-131432418D01*
X117067109Y-131606835D01*
X117261496Y-131792039D01*
X117412233Y-131988263D01*
X117519407Y-132195738D01*
X117583104Y-132414697D01*
X117603411Y-132645372D01*
X117580414Y-132887995D01*
X117514200Y-133142799D01*
X117490310Y-133210017D01*
X117400813Y-133403281D01*
X117274344Y-133608109D01*
X117115602Y-133818877D01*
X116929287Y-134029963D01*
X116720097Y-134235745D01*
X116492731Y-134430601D01*
X116427603Y-134481554D01*
X116332175Y-134552840D01*
X116231717Y-134624688D01*
X116130596Y-134694399D01*
X116033179Y-134759276D01*
X115943831Y-134816618D01*
X115866918Y-134863728D01*
X115806808Y-134897907D01*
X115767866Y-134916455D01*
X115754459Y-134916674D01*
X115770953Y-134895865D01*
X115800473Y-134869186D01*
X115842921Y-134834159D01*
X115910303Y-134780102D01*
X115991902Y-134715569D01*
X116046671Y-134672693D01*
X116193226Y-134550754D01*
X116351845Y-134405612D01*
X116512008Y-134247861D01*
X116663199Y-134088095D01*
X116794900Y-133936908D01*
X116864720Y-133848723D01*
X116995226Y-133659289D01*
X117111888Y-133458977D01*
X117207082Y-133261817D01*
X117262066Y-133117591D01*
X117315951Y-132885501D01*
X117325454Y-132657048D01*
X117291234Y-132434110D01*
X117213949Y-132218562D01*
X117094258Y-132012282D01*
X116932821Y-131817145D01*
X116745841Y-131647350D01*
X116552096Y-131504254D01*
X116338805Y-131370175D01*
X116103099Y-131244059D01*
X115842109Y-131124856D01*
X115552967Y-131011511D01*
X115232802Y-130902972D01*
X114878746Y-130798187D01*
X114487930Y-130696104D01*
X114057485Y-130595668D01*
X113634933Y-130506041D01*
X113015035Y-130386290D01*
X112427776Y-130286609D01*
X111865776Y-130206329D01*
X111321652Y-130144782D01*
X110788024Y-130101297D01*
X110257509Y-130075206D01*
X109722725Y-130065841D01*
X109176293Y-130072532D01*
X108935820Y-130080182D01*
X108684240Y-130088529D01*
X108419313Y-130095400D01*
X108146194Y-130100796D01*
X107870037Y-130104717D01*
X107595995Y-130107163D01*
X107329222Y-130108134D01*
X107074873Y-130107631D01*
X106838100Y-130105654D01*
X106624059Y-130102202D01*
X106437904Y-130097277D01*
X106284787Y-130090878D01*
X106169863Y-130083005D01*
X106141144Y-130080078D01*
X105989422Y-130062333D01*
X105855363Y-130045400D01*
X105733203Y-130027954D01*
X105617172Y-130008671D01*
X105501505Y-129986227D01*
X105380435Y-129959296D01*
X105248194Y-129926555D01*
X105099017Y-129886679D01*
X104927135Y-129838344D01*
X104726783Y-129780225D01*
X104492193Y-129710997D01*
X104349396Y-129668573D01*
X103772199Y-129496966D01*
X103236684Y-129337974D01*
X102741384Y-129191171D01*
X102284834Y-129056129D01*
X101865566Y-128932424D01*
X101482116Y-128819629D01*
X101133017Y-128717317D01*
X100816802Y-128625062D01*
X100532006Y-128542439D01*
X100277162Y-128469020D01*
X100050804Y-128404380D01*
X99851467Y-128348092D01*
X99677683Y-128299730D01*
X99527988Y-128258868D01*
X99400914Y-128225079D01*
X99294996Y-128197938D01*
X99267584Y-128191141D01*
X99013187Y-128131881D01*
X98715430Y-128068432D01*
X98375808Y-128001046D01*
X97995815Y-127929976D01*
X97576949Y-127855477D01*
X97120704Y-127777800D01*
X96628575Y-127697200D01*
X96102058Y-127613929D01*
X95542648Y-127528240D01*
X94951841Y-127440388D01*
X94331132Y-127350625D01*
X94162350Y-127326625D01*
X93941711Y-127295361D01*
X93719705Y-127263910D01*
X93503671Y-127233311D01*
X93300950Y-127204602D01*
X93118884Y-127178824D01*
X92964811Y-127157016D01*
X92846074Y-127140217D01*
X92821357Y-127136722D01*
X92689416Y-127117418D01*
X92597368Y-127102413D01*
X92545723Y-127091720D01*
X92534990Y-127085354D01*
X92565676Y-127083327D01*
X92638291Y-127085654D01*
G37*
%TO.C,R18*%
X206475000Y-82322936D02*
X206475000Y-82777064D01*
X205005000Y-82322936D02*
X205005000Y-82777064D01*
%TO.C,S3*%
X151715000Y-106895000D02*
X151715000Y-121895000D01*
X151715000Y-121895000D02*
X168515000Y-121895000D01*
X168515000Y-106895000D02*
X151715000Y-106895000D01*
X168515000Y-121895000D02*
X168515000Y-106895000D01*
D18*
%TO.C,A1*%
X163490000Y-34190000D02*
X169990000Y-34190000D01*
X163490000Y-34440000D02*
X163490000Y-34190000D01*
X163490000Y-85190000D02*
X163490000Y-84940000D01*
X169990000Y-32890000D02*
X177990000Y-32890000D01*
X169990000Y-34190000D02*
X169990000Y-32890000D01*
X170330000Y-85190000D02*
X163490000Y-85190000D01*
X177990000Y-32890000D02*
X177990000Y-34190000D01*
X177990000Y-34190000D02*
X184490000Y-34190000D01*
X184490000Y-34190000D02*
X184490000Y-34440000D01*
X184490000Y-85190000D02*
X177650000Y-85190000D01*
X184490000Y-85190000D02*
X184490000Y-84940000D01*
D12*
X161950000Y-35560000D02*
G75*
G03*
X161950000Y-35560000I-150000J0D01*
G01*
D16*
%TO.C,J3*%
X211595000Y-82940736D02*
X211895000Y-83365000D01*
X211895000Y-83365000D02*
X212195000Y-82940736D01*
X212195000Y-82940736D02*
X211595000Y-82940736D01*
X213255000Y-84325000D02*
X213255000Y-84625000D01*
X213255000Y-84625000D02*
X213705000Y-84625000D01*
X213255000Y-86825000D02*
X213255000Y-87125000D01*
X213255000Y-87125000D02*
X213705000Y-87125000D01*
X213705000Y-82645000D02*
X213705000Y-88805000D01*
X213705000Y-84325000D02*
X213255000Y-84325000D01*
X213705000Y-84625000D02*
X213705000Y-84325000D01*
X213705000Y-86825000D02*
X213255000Y-86825000D01*
X213705000Y-87125000D02*
X213705000Y-86825000D01*
X213705000Y-88805000D02*
X222385000Y-88805000D01*
X222385000Y-82645000D02*
X213705000Y-82645000D01*
X222385000Y-88805000D02*
X222385000Y-82645000D01*
%TO.C,R2*%
X89402936Y-101715000D02*
X89857064Y-101715000D01*
X89402936Y-103185000D02*
X89857064Y-103185000D01*
%TO.C,R3*%
X144467064Y-115885000D02*
X144012936Y-115885000D01*
X144467064Y-114415000D02*
X144012936Y-114415000D01*
%TO.C,TP3*%
X158672000Y-35560000D02*
G75*
G03*
X158672000Y-35560000I-1700000J0D01*
G01*
%TO.C,R11*%
X203427064Y-57250000D02*
X202972936Y-57250000D01*
X203427064Y-55780000D02*
X202972936Y-55780000D01*
D19*
%TO.C,Back*%
X73700000Y-123925000D02*
X73700000Y-123925000D01*
X73700000Y-123925000D02*
X73700000Y-123925000D01*
X73700000Y-123825000D02*
X73700000Y-123825000D01*
X69500000Y-123215000D02*
X69500000Y-105815000D01*
X86900000Y-123215000D02*
X69500000Y-123215000D01*
X69500000Y-105815000D02*
X86900000Y-105815000D01*
X86900000Y-105815000D02*
X86900000Y-123215000D01*
X73700000Y-123825000D02*
G75*
G03*
X73700000Y-123925000I0J-50000D01*
G01*
X73700000Y-123925000D02*
G75*
G03*
X73700000Y-123825000I0J50000D01*
G01*
X73700000Y-123925000D02*
G75*
G03*
X73700000Y-123825000I0J50000D01*
G01*
D16*
%TO.C,TP1*%
X220775000Y-72390000D02*
G75*
G03*
X220775000Y-72390000I-1700000J0D01*
G01*
%TO.C,R13*%
X197385000Y-42371941D02*
X197385000Y-41917813D01*
X198855000Y-42371941D02*
X198855000Y-41917813D01*
%TO.C,R6*%
X182295436Y-102770000D02*
X182749564Y-102770000D01*
X182295436Y-104240000D02*
X182749564Y-104240000D01*
D19*
%TO.C,Select*%
X96560000Y-123925000D02*
X96560000Y-123925000D01*
X96560000Y-123925000D02*
X96560000Y-123925000D01*
X96560000Y-123825000D02*
X96560000Y-123825000D01*
X92360000Y-123215000D02*
X92360000Y-105815000D01*
X109760000Y-123215000D02*
X92360000Y-123215000D01*
X92360000Y-105815000D02*
X109760000Y-105815000D01*
X109760000Y-105815000D02*
X109760000Y-123215000D01*
X96560000Y-123825000D02*
G75*
G03*
X96560000Y-123925000I0J-50000D01*
G01*
X96560000Y-123925000D02*
G75*
G03*
X96560000Y-123825000I0J50000D01*
G01*
X96560000Y-123925000D02*
G75*
G03*
X96560000Y-123825000I0J50000D01*
G01*
D16*
%TO.C,F1*%
X210152064Y-72665000D02*
X208947936Y-72665000D01*
X210152064Y-70845000D02*
X208947936Y-70845000D01*
%TO.C,U2*%
X187360000Y-66150000D02*
X205260000Y-66150000D01*
X205260000Y-66150000D02*
X205260000Y-60850000D01*
X187360000Y-64500000D02*
X187360000Y-66150000D01*
X187360000Y-60850000D02*
X187360000Y-62500000D01*
X205260000Y-60850000D02*
X187360000Y-60850000D01*
X187360000Y-64500000D02*
G75*
G03*
X187360000Y-62500000I0J1000000D01*
G01*
%TO.C,C1*%
X197341190Y-94538748D02*
X197341190Y-95961252D01*
X195521190Y-94538748D02*
X195521190Y-95961252D01*
%TO.C,R16*%
X201345436Y-48795000D02*
X201799564Y-48795000D01*
X201345436Y-50265000D02*
X201799564Y-50265000D01*
%TO.C,R1*%
X115734419Y-117942828D02*
X116188547Y-117942828D01*
X115734419Y-119412828D02*
X116188547Y-119412828D01*
%TO.C,R17*%
X201345436Y-45620000D02*
X201799564Y-45620000D01*
X201345436Y-47090000D02*
X201799564Y-47090000D01*
%TO.C,J1*%
X211595000Y-93735736D02*
X211895000Y-94160000D01*
X211895000Y-94160000D02*
X212195000Y-93735736D01*
X212195000Y-93735736D02*
X211595000Y-93735736D01*
X213255000Y-95120000D02*
X213255000Y-95420000D01*
X213255000Y-95420000D02*
X213705000Y-95420000D01*
X213255000Y-97620000D02*
X213255000Y-97920000D01*
X213255000Y-97920000D02*
X213705000Y-97920000D01*
X213705000Y-93440000D02*
X213705000Y-99600000D01*
X213705000Y-95120000D02*
X213255000Y-95120000D01*
X213705000Y-95420000D02*
X213705000Y-95120000D01*
X213705000Y-97620000D02*
X213255000Y-97620000D01*
X213705000Y-97920000D02*
X213705000Y-97620000D01*
X213705000Y-99600000D02*
X222385000Y-99600000D01*
X222385000Y-93440000D02*
X213705000Y-93440000D01*
X222385000Y-99600000D02*
X222385000Y-93440000D01*
%TO.C,R5*%
X115641443Y-109329519D02*
X116095571Y-109329519D01*
X115641443Y-110799519D02*
X116095571Y-110799519D01*
%TO.C,R9*%
X194717936Y-52605000D02*
X195172064Y-52605000D01*
X194717936Y-54075000D02*
X195172064Y-54075000D01*
D18*
%TO.C,ON/OFF*%
X205300000Y-80200000D02*
X205300000Y-70930000D01*
X205300000Y-70930000D02*
X188400000Y-70930000D01*
X188400000Y-80200000D02*
X205300000Y-80200000D01*
X188400000Y-70930000D02*
X188400000Y-80200000D01*
D19*
X206150000Y-75565000D02*
G75*
G03*
X206150000Y-75565000I-100000J0D01*
G01*
D16*
%TO.C,D1*%
X199700000Y-100745000D02*
X201620000Y-100745000D01*
X201620000Y-100745000D02*
X201620000Y-98060000D01*
X199700000Y-98060000D02*
X199700000Y-100745000D01*
%TO.C,GW*%
G36*
X200813074Y-128332094D02*
G01*
X200960740Y-128339766D01*
X201082411Y-128355889D01*
X201199241Y-128383191D01*
X201321746Y-128420893D01*
X201677332Y-128572762D01*
X201998577Y-128780980D01*
X202281438Y-129040605D01*
X202521872Y-129346695D01*
X202715838Y-129694308D01*
X202859292Y-130078503D01*
X202931534Y-130388983D01*
X202966179Y-130778308D01*
X202936573Y-131173537D01*
X202845109Y-131565304D01*
X202694180Y-131944241D01*
X202486178Y-132300981D01*
X202419291Y-132393948D01*
X202322347Y-132506890D01*
X202191024Y-132638610D01*
X202046690Y-132768304D01*
X201972530Y-132828868D01*
X201637222Y-133130041D01*
X201360712Y-133461402D01*
X201168971Y-133773936D01*
X201097838Y-133916061D01*
X201030589Y-134059740D01*
X200972686Y-134192060D01*
X200929587Y-134300107D01*
X200906752Y-134370967D01*
X200907508Y-134392320D01*
X200932410Y-134366116D01*
X200983246Y-134297539D01*
X201046600Y-134205015D01*
X201260190Y-133938039D01*
X201524488Y-133695825D01*
X201823485Y-133489797D01*
X202141169Y-133331382D01*
X202384984Y-133249930D01*
X202573059Y-133216690D01*
X202801909Y-133199435D01*
X203045831Y-133198167D01*
X203279122Y-133212887D01*
X203476080Y-133243596D01*
X203502017Y-133249868D01*
X203865601Y-133378182D01*
X204203994Y-133567432D01*
X204511007Y-133812876D01*
X204780449Y-134109770D01*
X204953021Y-134361482D01*
X205066454Y-134588973D01*
X205163969Y-134861121D01*
X205239524Y-135154931D01*
X205287078Y-135447405D01*
X205300963Y-135685839D01*
X205286912Y-135889448D01*
X205249781Y-136127037D01*
X205195376Y-136370619D01*
X205129503Y-136592202D01*
X205092927Y-136688764D01*
X204919044Y-137022725D01*
X204692866Y-137327397D01*
X204423415Y-137595134D01*
X204119714Y-137818285D01*
X203790787Y-137989204D01*
X203445656Y-138100242D01*
X203421488Y-138105498D01*
X203173931Y-138138614D01*
X202895839Y-138144788D01*
X202614785Y-138125241D01*
X202358342Y-138081196D01*
X202259173Y-138053979D01*
X201940968Y-137921026D01*
X201634582Y-137732173D01*
X201356265Y-137499745D01*
X201122270Y-137236071D01*
X201055216Y-137140765D01*
X200986216Y-137039088D01*
X200932489Y-136966036D01*
X200903812Y-136934747D01*
X200901911Y-136934687D01*
X200907513Y-136971358D01*
X200936980Y-137054680D01*
X200983942Y-137169983D01*
X201042026Y-137302597D01*
X201104862Y-137437852D01*
X201166076Y-137561076D01*
X201206068Y-137634986D01*
X201457686Y-138014053D01*
X201749592Y-138338988D01*
X202083312Y-138610860D01*
X202460376Y-138830737D01*
X202882310Y-138999687D01*
X203318930Y-139112567D01*
X203368123Y-139122738D01*
X203404728Y-139131647D01*
X203424932Y-139139378D01*
X203424921Y-139146014D01*
X203400881Y-139151639D01*
X203348998Y-139156336D01*
X203265458Y-139160190D01*
X203146446Y-139163284D01*
X202988150Y-139165701D01*
X202786754Y-139167526D01*
X202538446Y-139168842D01*
X202239410Y-139169733D01*
X201885834Y-139170282D01*
X201473902Y-139170574D01*
X200999802Y-139170692D01*
X200669536Y-139170714D01*
X200154159Y-139170712D01*
X199703346Y-139170609D01*
X199313291Y-139170318D01*
X198980187Y-139169748D01*
X198700225Y-139168812D01*
X198469600Y-139167420D01*
X198284505Y-139165485D01*
X198141131Y-139162916D01*
X198035673Y-139159626D01*
X197964324Y-139155525D01*
X197923275Y-139150525D01*
X197908721Y-139144538D01*
X197916855Y-139137473D01*
X197943868Y-139129243D01*
X197985955Y-139119759D01*
X198037235Y-139109347D01*
X198397470Y-139022763D01*
X198710614Y-138913246D01*
X198996428Y-138772187D01*
X199274677Y-138590980D01*
X199341774Y-138541131D01*
X199666935Y-138251507D01*
X199946836Y-137910700D01*
X200181355Y-137518882D01*
X200360804Y-137102872D01*
X200405944Y-136969982D01*
X200427132Y-136888335D01*
X200424410Y-136861311D01*
X200397818Y-136892287D01*
X200359116Y-136961619D01*
X200161382Y-137271540D01*
X199912293Y-137542569D01*
X199619914Y-137769635D01*
X199292310Y-137947668D01*
X198937546Y-138071595D01*
X198563687Y-138136348D01*
X198481649Y-138142049D01*
X198079842Y-138131436D01*
X197703315Y-138057336D01*
X197352314Y-137919839D01*
X197027085Y-137719034D01*
X196806226Y-137532657D01*
X196520232Y-137217493D01*
X196297016Y-136875464D01*
X196137053Y-136507772D01*
X196040823Y-136115619D01*
X196008805Y-135700210D01*
X196013435Y-135538940D01*
X196040421Y-135246017D01*
X196089726Y-134992578D01*
X196168256Y-134751496D01*
X196274863Y-134511970D01*
X196295187Y-134477784D01*
X200413143Y-134477784D01*
X200430236Y-134494877D01*
X200447329Y-134477784D01*
X200430236Y-134460691D01*
X200413143Y-134477784D01*
X196295187Y-134477784D01*
X196480947Y-134165320D01*
X196734906Y-133862851D01*
X197031024Y-133609309D01*
X197363583Y-133409439D01*
X197726866Y-133267987D01*
X197796570Y-133248709D01*
X197978452Y-133216621D01*
X198201962Y-133199622D01*
X198442052Y-133197681D01*
X198673671Y-133210767D01*
X198871769Y-133238849D01*
X198920545Y-133250097D01*
X199271488Y-133375439D01*
X199603541Y-133561870D01*
X199907742Y-133802830D01*
X200175129Y-134091761D01*
X200294502Y-134255577D01*
X200359657Y-134350086D01*
X200394518Y-134391060D01*
X200404710Y-134383138D01*
X200398096Y-134341041D01*
X200364875Y-134239109D01*
X200303506Y-134095311D01*
X200222282Y-133925630D01*
X200129496Y-133746053D01*
X200033441Y-133572562D01*
X199942410Y-133421143D01*
X199864695Y-133307779D01*
X199856759Y-133297618D01*
X199656750Y-133099122D01*
X199470619Y-132972854D01*
X199190595Y-132776511D01*
X198930774Y-132527317D01*
X198703579Y-132240345D01*
X198521434Y-131930672D01*
X198426422Y-131705722D01*
X198315155Y-131306509D01*
X198267677Y-130916820D01*
X198283088Y-130524053D01*
X198323938Y-130272939D01*
X198437632Y-129877011D01*
X198606033Y-129513358D01*
X198824533Y-129187339D01*
X199088529Y-128904316D01*
X199393416Y-128669650D01*
X199734589Y-128488703D01*
X199914769Y-128420893D01*
X200046024Y-128380781D01*
X200162494Y-128354380D01*
X200285336Y-128338960D01*
X200435705Y-128331794D01*
X200618257Y-128330143D01*
X200813074Y-128332094D01*
G37*
%TO.C,C3*%
X191626190Y-94538748D02*
X191626190Y-95961252D01*
X189806190Y-94538748D02*
X189806190Y-95961252D01*
%TO.C,R7*%
X199925000Y-95119564D02*
X199925000Y-94665436D01*
X201395000Y-95119564D02*
X201395000Y-94665436D01*
%TD*%
%LPC*%
D20*
%TO.C,R4*%
X115015000Y-114300000D03*
X116840000Y-114300000D03*
%TD*%
D21*
%TO.C,TP2*%
X191135000Y-137795000D03*
%TD*%
D22*
%TO.C,H3*%
X72500000Y-132500000D03*
%TD*%
D23*
%TO.C,J2*%
X72000000Y-51000000D03*
D24*
X72000000Y-53540000D03*
X72000000Y-56080000D03*
X72000000Y-58620000D03*
X72000000Y-61160000D03*
X72000000Y-63700000D03*
X72000000Y-66240000D03*
X72000000Y-68780000D03*
X72000000Y-71320000D03*
X72000000Y-73860000D03*
X72000000Y-76400000D03*
X72000000Y-78940000D03*
X72000000Y-81480000D03*
X72000000Y-84020000D03*
D23*
X156300000Y-63700000D03*
D24*
X156300000Y-66240000D03*
X156300000Y-68780000D03*
X156300000Y-71320000D03*
%TD*%
D21*
%TO.C,TP4*%
X219075000Y-78105000D03*
%TD*%
D25*
%TO.C,C5*%
X200622500Y-43180000D03*
X202522500Y-43180000D03*
%TD*%
D26*
%TO.C,J4*%
X218635000Y-53460000D03*
X218635000Y-65960000D03*
D27*
X208955000Y-53460000D03*
D26*
X208955000Y-55960000D03*
X208955000Y-58460000D03*
X208955000Y-60960000D03*
X208955000Y-63460000D03*
X208955000Y-65960000D03*
X211455000Y-53460000D03*
X211455000Y-55960000D03*
X211455000Y-58460000D03*
X211455000Y-60960000D03*
X211455000Y-63460000D03*
X211455000Y-65960000D03*
%TD*%
D28*
%TO.C,R10*%
X198397500Y-56515000D03*
X196572500Y-56515000D03*
%TD*%
D29*
%TO.C,D2*%
X205740000Y-87932500D03*
X205740000Y-86057500D03*
%TD*%
D21*
%TO.C,TP5*%
X182880000Y-137795000D03*
%TD*%
D20*
%TO.C,R14*%
X196143074Y-49030790D03*
X197968074Y-49030790D03*
%TD*%
D30*
%TO.C,Encoder*%
X139055000Y-111975000D03*
X139055000Y-116975000D03*
X124555000Y-111975000D03*
X124555000Y-114475000D03*
X124555000Y-116975000D03*
%TD*%
D31*
%TO.C,RV1*%
X205725000Y-123230000D03*
X203185000Y-123230000D03*
X200645000Y-123230000D03*
%TD*%
D26*
%TO.C,J7*%
X191175000Y-36195000D03*
X193675000Y-36195000D03*
D32*
X191175000Y-45875000D03*
D26*
X193675000Y-45875000D03*
X191175000Y-43375000D03*
X193675000Y-43375000D03*
%TD*%
D33*
%TO.C,R18*%
X205740000Y-81637500D03*
X205740000Y-83462500D03*
%TD*%
D34*
%TO.C,S3*%
X152985000Y-107925000D03*
X152985000Y-120625000D03*
X165685000Y-107925000D03*
X165685000Y-120625000D03*
D35*
X154835000Y-118085000D03*
X154835000Y-110465000D03*
X159335000Y-116815000D03*
X159335000Y-111735000D03*
X159335000Y-114275000D03*
%TD*%
D36*
%TO.C,A1*%
X165100000Y-35560000D03*
X165100000Y-38100000D03*
D37*
X165100000Y-40640000D03*
D36*
X165100000Y-43180000D03*
X165100000Y-45720000D03*
X165100000Y-48260000D03*
X165100000Y-50800000D03*
D37*
X165100000Y-53340000D03*
D36*
X165100000Y-55880000D03*
X165100000Y-58420000D03*
X165100000Y-60960000D03*
X165100000Y-63500000D03*
D37*
X165100000Y-66040000D03*
D36*
X165100000Y-68580000D03*
X165100000Y-71120000D03*
X165141881Y-73660000D03*
X165100000Y-76200000D03*
D37*
X165100000Y-78740000D03*
D36*
X165100000Y-81280000D03*
X165100000Y-83820000D03*
X182880000Y-83820000D03*
X182880000Y-81280000D03*
D37*
X182880000Y-78740000D03*
D36*
X182880000Y-76200000D03*
X182880000Y-73660000D03*
X182880000Y-71120000D03*
X182880000Y-68580000D03*
D37*
X182880000Y-66040000D03*
D36*
X182880000Y-63500000D03*
X182880000Y-60960000D03*
X182880000Y-58420000D03*
X182880000Y-55880000D03*
D37*
X182880000Y-53340000D03*
D36*
X182880000Y-50800000D03*
X182880000Y-48260000D03*
X182880000Y-45720000D03*
X182880000Y-43180000D03*
D37*
X182880000Y-40640000D03*
D36*
X182880000Y-38100000D03*
X182880000Y-35560000D03*
%TD*%
D26*
%TO.C,J3*%
X219075000Y-84475000D03*
X219075000Y-86975000D03*
D38*
X211895000Y-84475000D03*
D39*
X211895000Y-86975000D03*
%TD*%
D20*
%TO.C,R2*%
X88717500Y-102450000D03*
X90542500Y-102450000D03*
%TD*%
D28*
%TO.C,R3*%
X145152500Y-115150000D03*
X143327500Y-115150000D03*
%TD*%
D21*
%TO.C,TP3*%
X156972000Y-35560000D03*
%TD*%
D28*
%TO.C,R11*%
X204112500Y-56515000D03*
X202287500Y-56515000D03*
%TD*%
D34*
%TO.C,Back*%
X71850000Y-120865000D03*
X84550000Y-120865000D03*
X71850000Y-108165000D03*
X84550000Y-108165000D03*
D40*
X73700000Y-118325000D03*
D41*
X76290000Y-113755000D03*
X76290000Y-112235000D03*
X80110000Y-112235000D03*
X80110000Y-113755000D03*
D40*
X73700000Y-110705000D03*
%TD*%
D21*
%TO.C,TP1*%
X219075000Y-72390000D03*
%TD*%
D42*
%TO.C,R13*%
X198120000Y-43057377D03*
X198120000Y-41232377D03*
%TD*%
D20*
%TO.C,R6*%
X181610000Y-103505000D03*
X183435000Y-103505000D03*
%TD*%
D34*
%TO.C,Select*%
X94710000Y-120865000D03*
X107410000Y-120865000D03*
X94710000Y-108165000D03*
X107410000Y-108165000D03*
D40*
X96560000Y-118325000D03*
D41*
X99150000Y-113755000D03*
X99150000Y-112235000D03*
X102970000Y-112235000D03*
X102970000Y-113755000D03*
D40*
X96560000Y-110705000D03*
%TD*%
D22*
%TO.C,H4*%
X72500000Y-42500000D03*
%TD*%
%TO.C,H1*%
X212500000Y-132500000D03*
%TD*%
D43*
%TO.C,F1*%
X210950000Y-71755000D03*
X208150000Y-71755000D03*
%TD*%
D44*
%TO.C,U2*%
X188690000Y-67310000D03*
D45*
X191230000Y-67310000D03*
X193770000Y-67310000D03*
X196310000Y-67310000D03*
X198850000Y-67310000D03*
X201390000Y-67310000D03*
X203930000Y-67310000D03*
X203930000Y-59690000D03*
X201390000Y-59690000D03*
X198850000Y-59690000D03*
X196310000Y-59690000D03*
X193770000Y-59690000D03*
X191230000Y-59690000D03*
X188690000Y-59690000D03*
%TD*%
D46*
%TO.C,C1*%
X196431190Y-93775000D03*
X196431190Y-96725000D03*
%TD*%
D20*
%TO.C,R16*%
X200660000Y-49530000D03*
X202485000Y-49530000D03*
%TD*%
%TO.C,R1*%
X115048983Y-118677828D03*
X116873983Y-118677828D03*
%TD*%
%TO.C,R17*%
X200660000Y-46355000D03*
X202485000Y-46355000D03*
%TD*%
D26*
%TO.C,J1*%
X219075000Y-95270000D03*
X219075000Y-97770000D03*
D38*
X211895000Y-95270000D03*
D39*
X211895000Y-97770000D03*
%TD*%
D20*
%TO.C,R5*%
X114956007Y-110064519D03*
X116781007Y-110064519D03*
%TD*%
%TO.C,R9*%
X194032500Y-53340000D03*
X195857500Y-53340000D03*
%TD*%
D47*
%TO.C,ON/OFF*%
X201550000Y-75565000D03*
D48*
X196850000Y-75565000D03*
X192150000Y-75565000D03*
%TD*%
D29*
%TO.C,D1*%
X200660000Y-99997500D03*
X200660000Y-98122500D03*
%TD*%
D46*
%TO.C,C3*%
X190716190Y-93775000D03*
X190716190Y-96725000D03*
%TD*%
D42*
%TO.C,R7*%
X200660000Y-95805000D03*
X200660000Y-93980000D03*
%TD*%
D22*
%TO.C,H2*%
X212500000Y-42500000D03*
%TD*%
%LPD*%
M02*
