M48
; DRILL file {KiCad 7.0.7} date Sat Feb  3 16:35:46 2024
; FORMAT={-:-/ absolute / metric / decimal}
; #@! TF.CreationDate,2024-02-03T16:35:46-08:00
; #@! TF.GenerationSoftware,Kicad,Pcbnew,7.0.7
; #@! TF.FileFunction,Plated,1,2,PTH
FMAT,2
METRIC
; #@! TA.AperFunction,Plated,PTH,ViaDrill
T1C0.400
; #@! TA.AperFunction,Plated,PTH,ComponentDrill
T2C0.700
; #@! TA.AperFunction,Plated,PTH,ComponentDrill
T3C0.800
; #@! TA.AperFunction,Plated,PTH,ComponentDrill
T4C0.900
; #@! TA.AperFunction,Plated,PTH,ComponentDrill
T5C1.000
; #@! TA.AperFunction,Plated,PTH,ComponentDrill
T6C1.092
; #@! TA.AperFunction,Plated,PTH,ComponentDrill
T7C1.200
; #@! TA.AperFunction,Plated,PTH,ComponentDrill
T8C1.850
; #@! TA.AperFunction,Plated,PTH,ComponentDrill
T9C2.000
%
G90
G05
T1
X94.488Y-79.248
X104.14Y-96.52
X111.855Y-77.05
X120.9Y-81.48
X129.54Y-71.335
X144.875Y-118.173
X148.05Y-118.325
X148.685Y-108.165
X158.115Y-98.005
X165.138Y-87.033
X171.326Y-51.868
X175.26Y-97.155
X177.165Y-94.748
X177.165Y-98.425
X185.456Y-54.767
X190.728Y-91.468
X194.137Y-49.299
X194.972Y-61.493
X198.12Y-99.06
X199.485Y-63.715
X200.66Y-50.803
X203.835Y-89.535
X208.965Y-67.739
T2
X76.29Y-112.235
X76.29Y-113.755
X80.11Y-112.235
X80.11Y-113.755
X99.15Y-112.235
X99.15Y-113.755
X102.97Y-112.235
X102.97Y-113.755
X159.335Y-111.735
X159.335Y-114.275
X159.335Y-116.815
T3
X154.835Y-110.465
X154.835Y-118.085
X188.69Y-59.69
X188.69Y-67.31
X191.23Y-59.69
X191.23Y-67.31
X193.77Y-59.69
X193.77Y-67.31
X196.31Y-59.69
X196.31Y-67.31
X198.85Y-59.69
X198.85Y-67.31
X201.39Y-59.69
X201.39Y-67.31
X203.93Y-59.69
X203.93Y-67.31
T4
X73.7Y-110.705
X73.7Y-118.325
X96.56Y-110.705
X96.56Y-118.325
T5
X72.0Y-51.0
X72.0Y-53.54
X72.0Y-56.08
X72.0Y-58.62
X72.0Y-61.16
X72.0Y-63.7
X72.0Y-66.24
X72.0Y-68.78
X72.0Y-71.32
X72.0Y-73.86
X72.0Y-76.4
X72.0Y-78.94
X72.0Y-81.48
X72.0Y-84.02
X156.3Y-63.7
X156.3Y-66.24
X156.3Y-68.78
X156.3Y-71.32
X165.1Y-35.56
X165.1Y-38.1
X165.1Y-40.64
X165.1Y-43.18
X165.1Y-45.72
X165.1Y-48.26
X165.1Y-50.8
X165.1Y-53.34
X165.1Y-55.88
X165.1Y-58.42
X165.1Y-60.96
X165.1Y-63.5
X165.1Y-66.04
X165.1Y-68.58
X165.1Y-71.12
X165.1Y-76.2
X165.1Y-78.74
X165.1Y-81.28
X165.1Y-83.82
X165.142Y-73.66
X182.88Y-35.56
X182.88Y-38.1
X182.88Y-40.64
X182.88Y-43.18
X182.88Y-45.72
X182.88Y-48.26
X182.88Y-50.8
X182.88Y-53.34
X182.88Y-55.88
X182.88Y-58.42
X182.88Y-60.96
X182.88Y-63.5
X182.88Y-66.04
X182.88Y-68.58
X182.88Y-71.12
X182.88Y-73.66
X182.88Y-76.2
X182.88Y-78.74
X182.88Y-81.28
X182.88Y-83.82
X200.645Y-123.23
X203.185Y-123.23
X205.725Y-123.23
T6
X124.555Y-111.975
X124.555Y-114.475
X124.555Y-116.975
X139.055Y-111.975
X139.055Y-116.975
T7
X191.175Y-43.375
X191.175Y-45.875
X193.675Y-43.375
X193.675Y-45.875
X208.955Y-53.46
X208.955Y-55.96
X208.955Y-58.46
X208.955Y-60.96
X208.955Y-63.46
X208.955Y-65.96
X211.455Y-53.46
X211.455Y-55.96
X211.455Y-58.46
X211.455Y-60.96
X211.455Y-63.46
X211.455Y-65.96
X211.895Y-84.475
X211.895Y-86.975
X211.895Y-95.27
X211.895Y-97.77
T8
X192.15Y-75.565
X196.85Y-75.565
X201.55Y-75.565
T9
X156.972Y-35.56
X182.88Y-137.795
X191.135Y-137.795
X219.075Y-72.39
X219.075Y-78.105
T0
M30
